<?xml version="1.0" standalone="no"?>
<!DOCTYPE svg PUBLIC "-//W3C//DTD SVG 20010904//EN"
 "http://www.w3.org/TR/2001/REC-SVG-20010904/DTD/svg10.dtd">
<svg version="1.0" xmlns="http://www.w3.org/2000/svg"
 width="745.000000pt" height="568.000000pt" viewBox="0 0 745.000000 568.000000"
 preserveAspectRatio="xMidYMid meet">
<metadata>
Created by potrace 1.14, written by Peter Selinger 2001-2017
</metadata>
<g transform="translate(0.000000,568.000000) scale(0.100000,-0.100000)"
fill="#000000" stroke="none">
<path d="M2820 5460 l0 -220 1075 0 1075 0 0 220 0 220 -1075 0 -1075 0 0
-220z"/>
<path d="M472 4223 c8 -10 318 -425 688 -923 370 -498 680 -913 689 -923 16
-16 41 -17 308 -15 l292 3 -380 510 c-208 281 -522 702 -697 937 l-317 427
-299 0 c-284 1 -298 0 -284 -16z"/>
<path d="M5042 4228 c3 -7 110 -428 239 -935 129 -508 237 -923 240 -923 3 0
70 162 149 360 l143 359 -136 538 c-76 296 -142 555 -148 576 l-10 37 -241 0
c-188 0 -239 -3 -236 -12z"/>
<path d="M4026 1695 c-116 -41 -182 -152 -193 -325 -16 -252 83 -413 262 -427
76 -6 133 9 186 50 58 44 68 62 47 83 -16 16 -20 15 -58 -20 -52 -47 -77 -56
-151 -56 -76 0 -116 17 -161 69 -48 56 -68 132 -68 256 0 124 20 200 68 256
45 52 85 69 161 69 74 0 99 -9 151 -56 38 -35 42 -36 58 -20 21 21 11 39 -47
83 -69 53 -171 68 -255 38z"/>
<path d="M2120 1675 l0 -25 120 0 120 0 0 -350 0 -350 25 0 25 0 0 350 0 350
120 0 120 0 0 25 0 25 -265 0 -265 0 0 -25z"/>
<path d="M3010 1325 l0 -375 230 0 230 0 0 25 0 25 -200 0 -200 0 0 155 0 155
175 0 175 0 0 25 0 25 -175 0 -175 0 0 145 0 145 200 0 200 0 0 25 0 25 -230
0 -230 0 0 -375z"/>
<path d="M4720 1325 l0 -375 30 0 30 0 0 180 0 180 205 0 205 0 0 -180 0 -180
30 0 30 0 0 375 0 375 -30 0 -30 0 0 -170 0 -170 -205 0 -205 0 0 170 0 170
-30 0 -30 0 0 -375z"/>
</g>
</svg>
