<?xml version="1.0" standalone="no"?>
<!DOCTYPE svg PUBLIC "-//W3C//DTD SVG 1.1//EN" "http://www.w3.org/Graphics/SVG/1.1/DTD/svg11.dtd" >
<svg xmlns="http://www.w3.org/2000/svg" xmlns:xlink="http://www.w3.org/1999/xlink" version="1.1">
<metadata>
Created by FontForge 20161013 at Thu Dec 26 20:38:24 2013
 By ,,,
Copyright (c) 2013 by Miguel &#38; Daniel HernA~ndez. All rights reserved.
</metadata>
<defs>
<font id="ArquitectaMedium" horiz-adv-x="550" >
  <font-face 
    font-family="Arquitecta Medium"
    font-weight="500"
    font-stretch="normal"
    units-per-em="1000"
    panose-1="0 0 0 0 0 0 0 0 0 0"
    ascent="750"
    descent="-250"
    x-height="346"
    cap-height="600"
    bbox="-165 -250 1028 923"
    underline-thickness="50"
    underline-position="-200"
    unicode-range="U+000D-FB04"
  />
<missing-glyph horiz-adv-x="500" 
 />
    <glyph glyph-name=".notdef" horiz-adv-x="500" 
 />
    <glyph glyph-name=".null" horiz-adv-x="0" 
 />
    <glyph glyph-name="nonmarkingreturn" horiz-adv-x="333" 
 />
    <glyph glyph-name="NUL" horiz-adv-x="0" 
 />
    <glyph glyph-name="NUL" horiz-adv-x="0" 
 />
    <glyph glyph-name="CR" unicode="&#xd;" horiz-adv-x="139" 
 />
    <glyph glyph-name="space" unicode=" " horiz-adv-x="196" 
 />
    <glyph glyph-name="exclam" unicode="!" horiz-adv-x="242" 
d="M169 600v-37l-20 -388h-57l-22 388v37h99zM66 48q0 23 16 39t39 16t39.5 -16t16.5 -39t-16.5 -39.5t-39.5 -16.5t-39 16.5t-16 39.5z" />
    <glyph glyph-name="quotedbl" unicode="&#x22;" horiz-adv-x="310" 
d="M141 657l-41 -194h-52v15l18 194h75v-15zM273 657l-40 -194h-52v15l19 194h73v-15z" />
    <glyph glyph-name="numbersign" unicode="#" horiz-adv-x="648" 
d="M527 583l-36 -159h123l-12 -51h-122l-37 -164h118l-11 -52h-119l-35 -157h-55l35 157h-165l-35 -157h-55l35 157h-122l11 52h123l37 164h-118l10 51h119l36 159h55l-36 -159h165l36 159h55zM260 373l-37 -164h165l37 164h-165z" />
    <glyph glyph-name="dollar" unicode="$" horiz-adv-x="540" 
d="M44 59l45 62q7 -6 21.5 -16t61 -26t97.5 -16q73 0 108.5 25.5t35.5 69.5q0 39 -33 62.5t-125 49.5q-112 32 -160.5 71t-48.5 107q0 72 52 115t145 49v82h63v-82q56 -4 101 -18t63 -26l17 -13l-45 -68q-7 5 -20 13.5t-57.5 22t-93.5 13.5q-62 0 -100 -23t-38 -64
q0 -34 33.5 -55t124.5 -46q116 -32 163 -75t47 -112q0 -72 -49 -119t-146 -54v-82h-63v81q-60 4 -110 22t-69 34z" />
    <glyph glyph-name="percent" unicode="%" horiz-adv-x="672" 
d="M172 613q62 0 98.5 -43.5t36.5 -106.5q0 -62 -36.5 -106.5t-98.5 -44.5q-63 0 -99.5 44t-36.5 107t36.5 106.5t99.5 43.5zM172 553q-33 0 -50 -24.5t-17 -65.5t17 -65.5t50 -24.5q31 0 48.5 25t17.5 65q0 41 -17 65.5t-49 24.5zM544 606l51 -41l-469 -564l-50 41z
M500 293q63 0 99.5 -43.5t36.5 -107.5q0 -62 -37 -106t-99 -44t-99 44t-37 106q0 63 37 107t99 44zM500 233q-32 0 -49.5 -25t-17.5 -66q0 -39 18 -64t49 -25q32 0 49 24.5t17 64.5q0 42 -17 66.5t-49 24.5z" />
    <glyph glyph-name="ampersand" unicode="&#x26;" horiz-adv-x="626" 
d="M54 161q0 60 35.5 97.5t98.5 68.5l-8 8q-64 62 -64 135q0 63 45 103t118 40q78 0 123 -40.5t45 -100.5q0 -59 -36.5 -96t-101.5 -69l153 -147q32 60 32 134v21h80v-20q0 -104 -56 -188l103 -99v-8h-95l-55 53q-76 -66 -186 -66t-170.5 47.5t-60.5 126.5zM285 59
q82 0 133 45l-176 170q-48 -25 -73 -49.5t-25 -60.5q0 -45 39 -75t102 -30zM195 463q0 -50 60 -106q55 25 84 48.5t29 59.5q0 34 -21.5 56.5t-66.5 22.5q-38 0 -61.5 -22t-23.5 -59z" />
    <glyph glyph-name="quotesingle" unicode="'" horiz-adv-x="177" 
d="M141 657l-41 -194h-52v15l18 194h75v-15z" />
    <glyph glyph-name="parenleft" unicode="(" horiz-adv-x="327" 
d="M316 621q-21 -13 -41 -28.5t-51 -48.5t-53 -70.5t-38.5 -94.5t-16.5 -121t16.5 -121.5t38.5 -95t53 -70.5t51 -48.5t41 -28.5l-41 -58q-24 13 -50 32t-62.5 57t-64 82.5t-47.5 111t-20 139.5t20 139.5t47.5 111t64 82t62.5 56.5t50 32z" />
    <glyph glyph-name="parenright" unicode=")" horiz-adv-x="327" 
d="M11 621l42 58q24 -13 49.5 -32t62.5 -56.5t64.5 -82t47.5 -111t20 -139.5t-20 -139.5t-47.5 -111t-64 -82.5t-62.5 -57t-50 -32l-42 58q21 13 41.5 28.5t51.5 48.5t53 70.5t38.5 95t16.5 121.5t-16.5 121t-38.5 94.5t-53 70.5t-51.5 48.5t-41.5 28.5z" />
    <glyph glyph-name="asterisk" unicode="*" horiz-adv-x="411" 
d="M238 700l-14 -77h-36l-13 77v29h63v-29zM336 583l-78 -11l-10 33l70 38l26 9l19 -61zM153 572l-78 11l-27 8l19 61l27 -9l70 -38zM105 491l57 55l28 -20l-34 -73l-17 -23l-50 37zM250 545l57 -54l17 -24l-52 -37l-16 23l-35 73z" />
    <glyph glyph-name="plus" unicode="+" horiz-adv-x="484" 
d="M278 494v-161h161v-67h-161v-156h-70v156h-163v67h163v161h70z" />
    <glyph glyph-name="comma" unicode="," horiz-adv-x="156" 
d="M25 45q0 23 15 38t37 15q23 0 38.5 -15.5t15.5 -38.5q0 -33 -19 -68l-40 -71h-56l36 64l16 20v4q-19 3 -31 17.5t-12 34.5z" />
    <glyph glyph-name="hyphen" unicode="-" horiz-adv-x="389" 
d="M51 259v68h287v-68h-287z" />
    <glyph glyph-name="period" unicode="." horiz-adv-x="156" 
d="M25 45q0 23 15.5 38.5t37.5 15.5t37.5 -15.5t15.5 -38.5t-15.5 -38t-37.5 -15t-37.5 15t-15.5 38z" />
    <glyph glyph-name="slash" unicode="/" horiz-adv-x="361" 
d="M332 703l-221 -879h-82l221 879h82z" />
    <glyph glyph-name="zero" unicode="0" horiz-adv-x="622" 
d="M311 -14q-123 0 -194.5 89.5t-71.5 223.5q0 135 71.5 224.5t194.5 89.5q124 0 195 -89.5t71 -224.5q0 -134 -71 -223.5t-195 -89.5zM311 65q86 0 134 66t48 168q0 103 -48 169.5t-134 66.5t-134 -66.5t-48 -169.5q0 -102 48 -168t134 -66z" />
    <glyph glyph-name="one" unicode="1" horiz-adv-x="326" 
d="M21 525v75h214v-600h-82v525h-132z" />
    <glyph glyph-name="two" unicode="2" horiz-adv-x="511" 
d="M43 0v18l260 289q35 39 48.5 63t13.5 52q0 48 -35.5 80t-94.5 32q-40 0 -79 -18t-54.5 -31t-21.5 -21l-46 66l9 9t26 20t42 25t56.5 20t70.5 9q103 0 159 -51t56 -132q0 -75 -67 -149l-185 -206h267v-75h-425z" />
    <glyph glyph-name="three" unicode="3" horiz-adv-x="517" 
d="M258 290h-84v24l153 211h-266v75h399v-18l-165 -227q83 -4 130.5 -52.5t47.5 -129.5t-60 -134t-165 -53q-21 0 -42 3t-38.5 7.5t-33.5 10.5t-29.5 13t-24.5 13.5t-20 13t-15 11t-9 8.5l-4 3q8 11 41 64q3 -3 8.5 -7.5t23.5 -16.5t37 -21t47.5 -16.5t56.5 -7.5
q65 0 103.5 31t38.5 80q0 53 -35 84t-95 31z" />
    <glyph glyph-name="four" unicode="4" horiz-adv-x="549" 
d="M25 139v60l353 401h62v-386h71v-75h-72v-139h-82v139h-332zM135 222v-8h222v255l-205 -236z" />
    <glyph glyph-name="five" unicode="5" horiz-adv-x="511" 
d="M441 525h-271l-5 -165q40 7 78 7q114 0 171.5 -50t57.5 -135q0 -91 -58.5 -143.5t-166.5 -52.5q-58 0 -112 21t-79 42l-25 21l43 64q8 -8 23.5 -19.5t60.5 -31t89 -19.5q65 0 102.5 32t37.5 88q0 50 -40 80t-112 30q-40 0 -74.5 -5.5t-48.5 -10t-16 -6.5l-14 11l10 317
h349v-75z" />
    <glyph glyph-name="six" unicode="6" horiz-adv-x="514" 
d="M46 186q1 86 56 174l150 240h101l-136 -213q-5 -8 -11.5 -15t-11.5 -10l-4 -4v-6q37 21 81 21q97 0 156.5 -53t59.5 -136q0 -90 -62 -144t-157 -54q-99 0 -160.5 54.5t-61.5 145.5zM268 299q-59 0 -97.5 -31.5t-38.5 -85.5q0 -53 38.5 -86.5t97.5 -33.5q60 0 96.5 34
t36.5 86t-35.5 84.5t-97.5 32.5z" />
    <glyph glyph-name="seven" unicode="7" horiz-adv-x="462" 
d="M37 525v75h418v-20l-274 -580h-100l254 525h-298z" />
    <glyph glyph-name="eight" unicode="8" horiz-adv-x="541" 
d="M271 -14q-103 0 -163 51.5t-60 127.5q0 104 99 152q-76 45 -76 131q0 71 54.5 118t145.5 47t145 -47t54 -118q0 -86 -76 -131q99 -49 99 -152q0 -76 -60 -127.5t-162 -51.5zM271 62q61 0 99 31t38 75q0 50 -38.5 82t-98.5 32t-99 -32t-39 -82q0 -44 38.5 -75t99.5 -31z
M271 346q52 0 83.5 28t31.5 71q0 39 -31.5 65.5t-83.5 26.5q-53 0 -84.5 -26.5t-31.5 -65.5q0 -44 31.5 -71.5t84.5 -27.5z" />
    <glyph glyph-name="nine" unicode="9" horiz-adv-x="515" 
d="M469 413q0 -87 -55 -174l-150 -239h-102l135 212q5 8 11.5 15t11.5 11l4 3v4q-35 -20 -80 -20q-97 0 -156.5 53.5t-59.5 136.5q0 90 61.5 144t156.5 54q100 0 161.5 -54.5t61.5 -145.5zM248 301q57 0 96 30.5t39 84.5q0 52 -39 86t-96 34q-60 0 -96.5 -33.5t-36.5 -85.5
q0 -51 35.5 -83.5t97.5 -32.5z" />
    <glyph glyph-name="colon" unicode=":" horiz-adv-x="203" 
d="M47 297q0 22 16 37.5t38 15.5t37.5 -15.5t15.5 -37.5q0 -23 -15.5 -38.5t-37.5 -15.5q-23 0 -38.5 15.5t-15.5 38.5zM47 45q0 23 15.5 38.5t38.5 15.5q22 0 37.5 -15.5t15.5 -38.5t-15 -38t-38 -15t-38.5 15.5t-15.5 37.5z" />
    <glyph glyph-name="semicolon" unicode=";" horiz-adv-x="220" 
d="M58 45q0 22 15.5 37.5t38.5 15.5t38.5 -15.5t15.5 -38.5q0 -33 -20 -68l-40 -71h-55l36 64l15 20v4q-20 3 -32 17.5t-12 34.5zM59 297q0 22 15.5 37.5t37.5 15.5q23 0 38.5 -15.5t15.5 -37.5q0 -23 -15.5 -38.5t-38.5 -15.5q-22 0 -37.5 15.5t-15.5 38.5z" />
    <glyph glyph-name="less" unicode="&#x3c;" horiz-adv-x="378" 
d="M277 44l-241 232v23l241 232l48 -50l-202 -194l202 -193z" />
    <glyph glyph-name="equal" unicode="=" horiz-adv-x="528" 
d="M80 354v68h368v-68h-368zM80 164v67h368v-67h-368z" />
    <glyph glyph-name="greater" unicode="&#x3e;" horiz-adv-x="378" 
d="M342 276l-241 -232l-48 50l202 193l-202 194l48 50l241 -232v-23z" />
    <glyph glyph-name="question" unicode="?" horiz-adv-x="384" 
d="M64 515l-29 64q53 34 147 34q74 0 116.5 -39.5t42.5 -99.5q0 -38 -13.5 -68.5t-33.5 -52t-40.5 -42t-36.5 -48t-20 -59.5l-2 -32h-56v39q0 41 18.5 76.5t41 56.5t41 51.5t18.5 63.5q0 38 -25.5 61.5t-67.5 23.5q-28 0 -53.5 -7t-36.5 -15zM116 45q0 23 15.5 38.5
t37.5 15.5q23 0 38.5 -15.5t15.5 -38.5q0 -22 -15.5 -37.5t-38.5 -15.5t-38 15t-15 38z" />
    <glyph glyph-name="at" unicode="@" horiz-adv-x="914" 
d="M456 -244q-131 0 -228 59.5t-143.5 154t-46.5 210.5q0 87 28 164t80.5 136t133 93t179.5 34t179 -33t129 -86.5t75 -118t26 -131.5q0 -115 -47 -183t-132 -68q-28 0 -51 7.5t-35 18.5t-20.5 22t-10.5 19l-3 7h-6q-6 -13 -16.5 -25.5t-43 -28t-76.5 -15.5q-76 0 -125.5 50
t-49.5 131q0 83 49.5 132t125.5 49q93 0 130 -63l13 55h55v-218q0 -73 68 -73q50 0 78.5 47t28.5 126q0 133 -91.5 223.5t-249.5 90.5t-255.5 -101.5t-97.5 -259.5q0 -157 96 -258.5t254 -101.5q53 0 98 9.5t64 19.5l19 9l27 -58q-7 -5 -21.5 -12.5t-68.5 -20t-118 -12.5z
M551 174q0 53 -30.5 83t-79.5 30q-47 0 -78 -31.5t-31 -81.5q0 -51 31 -83t78 -32q48 0 79 31.5t31 83.5z" />
    <glyph glyph-name="A" unicode="A" horiz-adv-x="611" 
d="M-1 0l298 600h17l299 -600h-94l-49 98h-329l-49 -98h-93zM428 181l-118 257h-10l-117 -257l-6 -10h257z" />
    <glyph glyph-name="B" unicode="B" horiz-adv-x="635" 
d="M588 168q0 -82 -60.5 -125t-163.5 -43h-281v600h270q102 0 158.5 -41.5t56.5 -120.5q0 -95 -89 -127v-7q50 -15 79.5 -50t29.5 -86zM375 267h-210v-192h202q59 0 97 25.5t38 72.5q0 43 -35.5 67.5t-91.5 26.5zM482 432q0 93 -131 93h-186v-186h186q61 0 96 25t35 68z" />
    <glyph glyph-name="C" unicode="C" horiz-adv-x="589" 
d="M517 126l47 -64l-8 -8t-24.5 -18.5t-41.5 -23.5t-58.5 -18t-76.5 -8q-139 0 -226.5 90t-87.5 223q0 134 87.5 224t226.5 90q40 0 76.5 -8t59.5 -19t40.5 -22t24.5 -19l8 -8l-47 -64q-3 3 -7.5 7t-21 14.5t-34 19t-44.5 15t-54 6.5q-101 0 -166 -68t-65 -168
q0 -99 65 -167t166 -68q45 0 85 15.5t58 30.5z" />
    <glyph glyph-name="D" unicode="D" horiz-adv-x="660" 
d="M617 300q0 -136 -87.5 -218t-231.5 -82h-215v600h215q144 0 231.5 -82t87.5 -218zM292 525h-127v-450h127q106 0 173.5 60t67.5 165t-67.5 165t-173.5 60z" />
    <glyph glyph-name="E" unicode="E" horiz-adv-x="567" 
d="M481 333v-73h-316v-185h364v-75h-446v600h446v-75h-364v-192h316z" />
    <glyph glyph-name="F" unicode="F" horiz-adv-x="557" 
d="M83 0v600h446v-75h-364v-192h319v-73h-319v-260h-82z" />
    <glyph glyph-name="G" unicode="G" horiz-adv-x="673" 
d="M337 260v73h297v-46q0 -138 -74.5 -219.5t-207.5 -81.5q-141 0 -226 89.5t-85 223.5q0 135 86.5 224.5t227.5 89.5q43 0 82 -8t63.5 -19.5t43 -23t26.5 -19.5l8 -8l-49 -63q-7 7 -20.5 17.5t-59 28t-94.5 17.5q-103 0 -166.5 -67.5t-63.5 -168.5t61.5 -168t164.5 -67
q87 0 141.5 52t56.5 136v8h-212z" />
    <glyph glyph-name="H" unicode="H" horiz-adv-x="675" 
d="M593 600v-600h-83v258h-345v-258h-82v600h82v-268h345v268h83z" />
    <glyph glyph-name="I" unicode="I" horiz-adv-x="248" 
d="M165 600v-600h-82v600h82z" />
    <glyph glyph-name="J" unicode="J" horiz-adv-x="459" 
d="M22 35l39 65q47 -34 108 -34q130 0 130 146v388h83v-405q0 -99 -52.5 -154t-153.5 -55q-44 0 -82.5 12.5t-52 21.5t-19.5 15z" />
    <glyph glyph-name="K" unicode="K" horiz-adv-x="601" 
d="M165 600v-320l321 320h100v-12l-239 -240l239 -336v-12h-97l-202 288l-122 -123v-165h-82v600h82z" />
    <glyph glyph-name="L" unicode="L" horiz-adv-x="520" 
d="M508 0h-425v600h82v-525h343v-75z" />
    <glyph glyph-name="M" unicode="M" horiz-adv-x="757" 
d="M593 0v421l-203 -217h-22l-203 216v-420h-82v600h23l273 -288l274 288h22v-600h-82z" />
    <glyph glyph-name="N" unicode="N" horiz-adv-x="696" 
d="M614 600v-600h-23l-426 431v-431h-82v600h23l425 -426v426h83z" />
    <glyph glyph-name="O" unicode="O" horiz-adv-x="706" 
d="M352 -14q-140 0 -225.5 89.5t-85.5 223.5q0 135 85.5 224.5t225.5 89.5q141 0 227 -89.5t86 -224.5q0 -134 -86 -223.5t-227 -89.5zM352 65q103 0 166 67t63 167q0 101 -63 168.5t-166 67.5q-101 0 -164 -68t-63 -168t63 -167t164 -67z" />
    <glyph glyph-name="P" unicode="P" horiz-adv-x="604" 
d="M83 0v600h252q114 0 177.5 -52.5t63.5 -149.5q0 -100 -66.5 -154.5t-179.5 -54.5h-165v-189h-82zM491 396q0 64 -42.5 96.5t-116.5 32.5h-167v-262h167q159 0 159 133z" />
    <glyph glyph-name="Q" unicode="Q" horiz-adv-x="706" 
d="M352 -14q-140 0 -225.5 89.5t-85.5 223.5q0 135 85.5 224.5t225.5 89.5q141 0 227 -89.5t86 -224.5q0 -81 -33 -148.5t-94 -109.5l56 -82v-13h-90l-39 58q-56 -18 -113 -18zM330 208v12h87l75 -111q89 68 89 190q0 101 -63 168.5t-166 67.5q-101 0 -164 -68t-63 -168
t63 -167t164 -67q33 0 67 8z" />
    <glyph glyph-name="R" unicode="R" horiz-adv-x="631" 
d="M334 600q114 0 178 -52.5t64 -149.5q0 -70 -36 -117.5t-99 -69.5v-4l155 -191v-16h-91l-157 195h-183v-195h-82v600h251zM490 396q0 64 -42 96.5t-116 32.5h-167v-256h175q69 0 109.5 32t40.5 95z" />
    <glyph glyph-name="S" unicode="S" horiz-adv-x="537" 
d="M42 59l45 62q7 -6 21.5 -16t61 -26t97.5 -16q73 0 108.5 25.5t35.5 69.5q0 39 -33 62.5t-125 49.5q-112 32 -160.5 71t-48.5 107q0 77 59.5 121t165.5 44q67 0 121 -14.5t74 -28.5l21 -15l-45 -68q-7 5 -20 13.5t-57.5 22t-93.5 13.5q-62 0 -100 -23t-38 -64
q0 -34 33.5 -55t124.5 -46q116 -32 163 -75t47 -112q0 -79 -58 -127t-173 -48q-43 0 -82.5 7.5t-64.5 18t-44 21.5t-27 19z" />
    <glyph glyph-name="T" unicode="T" horiz-adv-x="526" 
d="M15 525v75h497v-75h-208v-525h-82v525h-207z" />
    <glyph glyph-name="U" unicode="U" horiz-adv-x="659" 
d="M330 -14q-119 0 -187.5 73.5t-68.5 192.5v348h82v-348q0 -84 45 -135.5t129 -51.5t128.5 51.5t44.5 135.5v348h83v-348q0 -119 -68 -192.5t-188 -73.5z" />
    <glyph glyph-name="V" unicode="V" horiz-adv-x="611" 
d="M301 157h9l60 136l149 307h92l-297 -600h-18l-297 600h92l152 -307z" />
    <glyph glyph-name="W" unicode="W" horiz-adv-x="817" 
d="M266 203l118 397h49l117 -397l14 -52h6l15 55l135 394h87l-217 -600h-56l-117 394l-8 25h-5l-7 -25l-119 -394h-53l-217 600h86l137 -394l14 -55h6z" />
    <glyph glyph-name="X" unicode="X" horiz-adv-x="561" 
d="M540 600l-199 -292l207 -308h-100l-144 216l-23 46q-1 -1 -13 -23t-12 -23l-143 -216h-98l204 308l-197 292h99l139 -207l21 -43l22 43q2 4 69 103t69 104h99z" />
    <glyph glyph-name="Y" unicode="Y" 
d="M297 346l155 254h95l-231 -370v-230h-83v229l-230 371h96l157 -254l17 -37h6z" />
    <glyph glyph-name="Z" unicode="Z" horiz-adv-x="543" 
d="M30 0v21l352 504h-340v75h473v-21l-345 -504h339v-75h-479z" />
    <glyph glyph-name="bracketleft" unicode="[" horiz-adv-x="324" 
d="M74 -158v832h227v-68h-149v-696h149v-68h-227z" />
    <glyph glyph-name="backslash" unicode="\" horiz-adv-x="361" 
d="M250 -176l-221 879h82l221 -879h-82z" />
    <glyph glyph-name="bracketright" unicode="]" horiz-adv-x="324" 
d="M23 -158v68h149v696h-149v68h227v-832h-227z" />
    <glyph glyph-name="asciicircum" unicode="^" horiz-adv-x="402" 
d="M287 489l-87 118l-85 -118h-59v15l120 164h49l121 -164v-15h-59z" />
    <glyph glyph-name="underscore" unicode="_" horiz-adv-x="495" 
d="M44 -88v68h403v-68h-403z" />
    <glyph glyph-name="grave" unicode="`" horiz-adv-x="254" 
d="M140 419l-87 143v15h97l42 -143v-15h-52z" />
    <glyph glyph-name="a" unicode="a" horiz-adv-x="424" 
d="M28 103q0 47 39.5 76.5t115.5 29.5q69 0 105 -27h6v17q0 88 -109 88q-27 0 -52 -6.5t-37 -13.5l-11 -7l-27 61q47 33 142 33q89 0 131 -43.5t42 -119.5v-191h-58l-8 40h-5q-34 -48 -128 -48q-70 0 -108 31.5t-38 79.5zM108 105q0 -25 21.5 -40.5t62.5 -15.5t70.5 19.5
t29.5 38.5q0 23 -28 38t-72 15q-40 0 -62 -14.5t-22 -40.5z" />
    <glyph glyph-name="b" unicode="b" horiz-adv-x="468" 
d="M57 0v668h82v-366h3q1 2 3.5 5.5t12 12.5t22 16t35 12.5t48.5 5.5q73 0 122 -50.5t49 -130.5q0 -82 -49.5 -131.5t-124.5 -49.5q-28 0 -52 6.5t-38 15.5t-24 18t-14 16l-4 6h-3l-11 -54h-57zM134 173q0 -51 31 -82t79 -31q47 0 77 32t30 81q0 50 -30 81.5t-77 31.5
q-48 0 -79 -31t-31 -82z" />
    <glyph glyph-name="c" unicode="c" horiz-adv-x="363" 
d="M225 -8q-84 0 -138 50.5t-54 129.5q0 80 54 131t138 51q33 0 61.5 -7.5t40.5 -14.5l12 -8l-24 -61q-32 23 -83 23q-50 0 -83.5 -31.5t-33.5 -82.5t33.5 -81.5t83.5 -30.5q23 0 43.5 6t30.5 12l9 5l22 -61q-37 -30 -112 -30z" />
    <glyph glyph-name="d" unicode="d" horiz-adv-x="468" 
d="M326 306h3v362h82v-668h-56l-12 51h-4q-1 -2 -4 -6t-14 -14.5t-24.5 -18t-37 -14t-51.5 -6.5q-76 0 -125.5 49.5t-49.5 131.5q0 80 49 130.5t123 50.5q41 0 71 -12t40 -24zM334 173q0 51 -31.5 82t-78.5 31t-77.5 -31.5t-30.5 -81.5q0 -49 30.5 -81t77.5 -32t78.5 31
t31.5 82z" />
    <glyph glyph-name="e" unicode="e" horiz-adv-x="416" 
d="M333 85l28 -54q-5 -4 -14.5 -11t-43.5 -18t-73 -11q-89 0 -143 50.5t-54 130.5q0 79 51 130.5t132 51.5q79 0 125.5 -48.5t46.5 -125.5l-1 -24h-274q5 -49 37.5 -74.5t81.5 -25.5q29 0 54 7t36 15zM215 290q-38 0 -64.5 -21t-35.5 -60h193q-5 36 -30 58.5t-63 22.5z" />
    <glyph glyph-name="f" unicode="f" horiz-adv-x="319" 
d="M300 282h-122v-282h-81v282h-80v64h80v147q0 87 39 130t111 43q42 0 78 -18l-21 -70q-24 12 -46 12q-80 0 -80 -97v-147h122v-64z" />
    <glyph glyph-name="g" unicode="g" horiz-adv-x="406" 
d="M211 -237q-91 0 -140 35t-49 92q0 67 64 97v5q-59 25 -59 77q0 50 56 79q-24 30 -24 74q0 57 41 94t104 37l183 -8v-58h-60v-5q22 -14 22 -64q0 -51 -40 -87t-105 -36q-43 0 -77 17q-28 -13 -28 -35q0 -21 24 -32t88 -11q190 0 190 -132q0 -61 -50 -100t-140 -39z
M211 -31q-53 0 -82 -20.5t-29 -51.5t28.5 -51.5t82.5 -20.5t82 20t28 52q0 31 -28 51.5t-82 20.5zM204 291q-36 0 -56.5 -19.5t-20.5 -48.5q0 -30 20.5 -49t56.5 -19t56.5 19t20.5 49q0 29 -20.5 48.5t-56.5 19.5z" />
    <glyph glyph-name="h" unicode="h" horiz-adv-x="459" 
d="M57 0v668h82v-354h3q42 40 112 40q71 0 111.5 -42t40.5 -113v-199h-81v188q0 44 -24 71t-67 27q-44 0 -68 -24.5t-27 -56.5v-205h-82z" />
    <glyph glyph-name="i" unicode="i" horiz-adv-x="198" 
d="M99 478q-21 0 -35.5 14.5t-14.5 35.5t14.5 36t35.5 15t36 -15t15 -36t-15 -35.5t-36 -14.5zM58 0v346h82v-346h-82z" />
    <glyph glyph-name="j" unicode="j" horiz-adv-x="195" 
d="M-32 -184l14 61q16 -9 34 -9q40 0 40 50v428h83v-431q0 -116 -104 -116q-19 0 -35.5 4.5t-23.5 8.5zM97 478q-21 0 -36 14.5t-15 35.5t15 36t36 15t35.5 -15t14.5 -36t-14 -35.5t-36 -14.5z" />
    <glyph glyph-name="k" unicode="k" horiz-adv-x="401" 
d="M278 346h96l-154 -169l176 -177h-109l-146 153h-3v-153h-82v668h82v-476h3z" />
    <glyph glyph-name="l" unicode="l" horiz-adv-x="198" 
d="M58 0v668h82v-668h-82z" />
    <glyph glyph-name="m" unicode="m" horiz-adv-x="726" 
d="M57 0v346h54l10 -49h4q43 57 127 57q92 0 132 -62h4q40 62 132 62q72 0 113 -42t41 -113v-199h-82v188q0 44 -23 71t-67 27t-70 -25t-26 -56v-205h-81v198q0 39 -24 63.5t-67 24.5q-44 0 -69.5 -25t-25.5 -56v-205h-82z" />
    <glyph glyph-name="n" unicode="n" horiz-adv-x="457" 
d="M139 199v-199h-82v346h54l10 -49h4q39 57 127 57q72 0 113 -42t41 -113v-199h-81v188q0 43 -24 70.5t-67 27.5q-46 0 -70.5 -27t-24.5 -60z" />
    <glyph glyph-name="o" unicode="o" horiz-adv-x="446" 
d="M414 171q0 -81 -55 -130t-136 -49t-135.5 49t-54.5 130q0 82 54.5 132.5t135.5 50.5t136 -51t55 -132zM223 58q47 0 79 31t32 83t-32 84t-79 32t-78.5 -32t-31.5 -84t31.5 -83t78.5 -31z" />
    <glyph glyph-name="p" unicode="p" horiz-adv-x="468" 
d="M142 40h-3v-232h-82v538h55l11 -49h6q4 6 12 15.5t42 25.5t77 16q75 0 124.5 -49.5t49.5 -131.5q0 -80 -49 -130.5t-122 -50.5q-42 0 -72 12t-39 24zM134 173q0 -51 31 -82t79 -31q47 0 77 31.5t30 81.5q0 49 -30 81t-77 32q-48 0 -79 -31t-31 -82z" />
    <glyph glyph-name="q" unicode="q" horiz-adv-x="468" 
d="M411 346v-538h-82v236h-3q-1 -2 -3.5 -5.5t-12 -12.5t-22 -16t-35 -12.5t-48.5 -5.5q-74 0 -123 50.5t-49 130.5q0 82 49.5 131.5t125.5 49.5q45 0 77.5 -16t42.5 -32l11 -15h4l12 55h56zM334 173q0 51 -31.5 82t-78.5 31t-77.5 -32t-30.5 -81q0 -50 30.5 -81.5
t77.5 -31.5t78.5 31t31.5 82z" />
    <glyph glyph-name="r" unicode="r" horiz-adv-x="297" 
d="M295 329l-29 -64q-16 11 -46 11q-32 0 -56.5 -21t-24.5 -55v-200h-82v346h54l10 -49h4q33 50 101 50q20 0 37.5 -4.5t24.5 -8.5z" />
    <glyph glyph-name="s" unicode="s" horiz-adv-x="378" 
d="M31 32l29 57q54 -34 124 -34q79 0 79 42q0 21 -35.5 34.5t-77.5 21t-77.5 32t-35.5 66.5q0 46 37 74.5t112 28.5q44 0 81.5 -7t52.5 -14l16 -7l-28 -64q-40 29 -113 29q-77 0 -77 -39q0 -21 35.5 -33.5t78.5 -19.5t78.5 -32.5t35.5 -68.5q0 -47 -39.5 -76.5t-119.5 -29.5
q-48 0 -87 10t-54 20z" />
    <glyph glyph-name="t" unicode="t" horiz-adv-x="320" 
d="M16 346h67v104h81v-104h129v-66h-129v-136q0 -83 70 -83q12 0 23.5 3.5t17.5 7.5l6 3l27 -56q-31 -27 -86 -27q-67 0 -103 38.5t-36 110.5v139h-67v66z" />
    <glyph glyph-name="u" unicode="u" horiz-adv-x="455" 
d="M399 346v-346h-54l-14 48h-4q-6 -11 -17.5 -22t-40.5 -22.5t-66 -11.5q-72 0 -112 42t-40 113v199h82v-188q0 -44 22.5 -71t65.5 -27q44 0 70 26t26 59v201h82z" />
    <glyph glyph-name="v" unicode="v" horiz-adv-x="411" 
d="M403 346l-169 -346h-57l-169 346h90l94 -212q10 -21 11 -37h5q1 13 12 37l93 212h90z" />
    <glyph glyph-name="w" unicode="w" horiz-adv-x="589" 
d="M154 0l-142 346h87l78 -223q5 -13 6 -26h7q1 11 6 26l69 223h62l69 -223q3 -10 5 -26h7q1 10 7 26l78 223h83l-141 -346h-62l-69 211q-6 16 -7 33h-5q-2 -17 -7 -33l-70 -211h-61z" />
    <glyph glyph-name="x" unicode="x" horiz-adv-x="400" 
d="M12 0l139 178l-131 168h92l86 -117h3l87 117h92l-132 -168l139 -178h-92l-94 128h-3l-94 -128h-92z" />
    <glyph glyph-name="y" unicode="y" horiz-adv-x="409" 
d="M399 346l-252 -538h-86l106 215l-156 323h89l100 -223q5 -13 6 -26h5q1 13 6 26l98 223h84z" />
    <glyph glyph-name="z" unicode="z" horiz-adv-x="381" 
d="M349 0h-317v37l202 242h-201v67h316v-34l-202 -245h202v-67z" />
    <glyph glyph-name="braceleft" unicode="{" horiz-adv-x="267" 
d="M17 290h16q27 0 43 19.5t16 57.5v215q0 113 126 122l12 -69q-29 -4 -40.5 -16t-11.5 -44v-217q0 -80 -56 -98v-8q56 -17 56 -95v-219q0 -31 11.5 -43t40.5 -16l-12 -69q-126 7 -126 121v216q0 37 -16 57t-43 20h-16v66z" />
    <glyph glyph-name="bar" unicode="|" horiz-adv-x="223" 
d="M149 673v-825h-75v825h75z" />
    <glyph glyph-name="braceright" unicode="}" horiz-adv-x="267" 
d="M249 224h-16q-27 0 -43 -20t-16 -57v-216q0 -114 -127 -121l-11 69q29 4 40 16t11 43v219q0 78 58 95v8q-58 18 -58 98v217q0 32 -11 44t-40 16l11 69q127 -9 127 -122v-215q0 -38 16 -57.5t43 -19.5h16v-66z" />
    <glyph glyph-name="asciitilde" unicode="~" horiz-adv-x="454" 
d="M299 314q22 0 41 5t26 11l8 5l26 -51q-31 -34 -99 -34q-26 0 -72.5 12.5t-74.5 12.5q-22 0 -40.5 -5.5t-26.5 -10.5l-8 -5l-25 51q31 34 98 34q26 0 72.5 -12.5t74.5 -12.5z" />
    <glyph glyph-name="uni00A0" unicode="&#xa0;" horiz-adv-x="196" 
 />
    <glyph glyph-name="exclamdown" unicode="&#xa1;" horiz-adv-x="241" 
d="M169 37v-37h-99v37l21 388h57zM65 552q0 23 16 39.5t40 16.5q23 0 39.5 -16.5t16.5 -39.5q0 -22 -16.5 -38.5t-39.5 -16.5q-24 0 -40 16t-16 39z" />
    <glyph glyph-name="cent" unicode="&#xa2;" horiz-adv-x="409" 
d="M201 -94v89q-70 11 -113 59.5t-43 117.5t42.5 118t112.5 61v91h58v-89q29 -2 55 -9.5t37 -13.5l12 -7l-29 -64q-38 27 -88 27q-49 0 -83 -31.5t-34 -82.5q0 -50 34 -81t83 -31q22 0 44 6t33 12l11 7l29 -62q-39 -25 -103 -30v-87h-58z" />
    <glyph glyph-name="sterling" unicode="&#xa3;" horiz-adv-x="516" 
d="M459 76v-73h-394v73q2 1 6.5 3t15 10t18.5 18.5t14.5 30t6.5 43.5q0 23 -16 64h-65v62h42q-17 48 -17 95q0 82 60.5 144t171.5 62q34 0 64 -6.5t48.5 -16t32.5 -19.5t19 -16l6 -7l-46 -60q-4 5 -12.5 12.5t-40 20.5t-67.5 13q-71 0 -108 -40t-37 -94q0 -39 17 -88h226
v-62h-202q12 -34 12 -62q0 -63 -42 -107h287z" />
    <glyph glyph-name="currency" unicode="&#xa4;" horiz-adv-x="577" 
d="M118 71l-54 53l57 57q-37 51 -37 116q0 64 37 117l-57 58l54 53l54 -62q52 36 115 36q64 0 117 -37l55 63l54 -53l-59 -60q36 -52 36 -115q0 -61 -35 -114l58 -59l-54 -53l-54 61q-53 -37 -118 -37q-64 0 -116 36zM161 297q0 -52 37 -89.5t89 -37.5t89 37.5t37 89.5
q0 53 -37 90t-89 37t-89 -37.5t-37 -89.5z" />
    <glyph glyph-name="yen" unicode="&#xa5;" horiz-adv-x="606" 
d="M325 346l155 254h95l-193 -309h134v-63h-172v-79h172v-62h-172v-87h-83v87h-173v62h173v79h-173v63h134l-191 309h96l157 -254l17 -37h6z" />
    <glyph glyph-name="brokenbar" unicode="&#xa6;" horiz-adv-x="223" 
d="M150 -152h-76v825h76v-825z" />
    <glyph glyph-name="section" unicode="&#xa7;" horiz-adv-x="535" 
d="M37 -124l46 63q8 -7 23 -17.5t63 -28.5t96 -18q67 0 100.5 26.5t33.5 66.5q0 41 -31.5 66t-110.5 54q-86 31 -126 62t-40 87q0 55 39 84q-76 47 -76 123t56 122.5t164 46.5q65 0 117.5 -15.5t72.5 -31.5l20 -15l-46 -68q-7 6 -19.5 15t-55 24.5t-89.5 15.5
q-63 0 -94.5 -24.5t-31.5 -64.5q0 -37 30 -63.5t90 -46.5q92 -31 140 -65t48 -91q0 -55 -35 -92q73 -49 73 -123q0 -72 -56.5 -120.5t-170.5 -48.5q-69 0 -126.5 19.5t-80.5 38.5zM239 274q-14 4 -40 14q-26 -11 -26 -46q0 -27 27 -47t86 -41q32 -11 65 -26q21 21 21 49
q0 31 -32.5 52.5t-100.5 44.5z" />
    <glyph glyph-name="dieresis" unicode="&#xa8;" horiz-adv-x="403" 
d="M63 483q0 19 14 33t33 14t33 -14t14 -33t-14 -33t-33 -14t-33 14t-14 33zM245 483q0 19 14 33t33 14t33 -14t14 -33t-14 -33t-33 -14t-33 14t-14 33z" />
    <glyph glyph-name="copyright" unicode="&#xa9;" horiz-adv-x="719" 
d="M359 606q144 0 229.5 -88t85.5 -219q0 -130 -85.5 -218t-229.5 -88q-143 0 -229 88t-86 218q0 131 86 219t229 88zM359 559q-120 0 -192 -74.5t-72 -185.5q0 -109 72 -183.5t192 -74.5t192.5 74.5t72.5 183.5q0 111 -72.5 185.5t-192.5 74.5zM471 423l-29 -39
q-27 23 -76 23t-78 -30t-29 -77q0 -46 29 -76t78 -30q22 0 41 6t27 12l8 5l29 -39q-4 -4 -11.5 -10t-35 -16.5t-60.5 -10.5q-75 0 -119.5 45.5t-44.5 113.5q0 69 44.5 114.5t119.5 45.5q33 0 59.5 -9t36.5 -19z" />
    <glyph glyph-name="ordfeminine" unicode="&#xaa;" horiz-adv-x="404" 
d="M34 367q0 48 38.5 76t103.5 28q78 0 107 -27v15q0 49 -24.5 73t-80.5 24q-17 0 -35 -3.5t-29.5 -7t-22.5 -7.5l-11 -4l-21 54q66 26 132 26q160 0 160 -158v-182h-50l-11 33h-5q-31 -41 -119 -41q-58 0 -95 28t-37 73zM101 371q0 -26 22.5 -41.5t61.5 -15.5q42 0 69 16.5
t29 39.5v3q0 25 -26 40t-67 15q-43 0 -66 -15t-23 -42z" />
    <glyph glyph-name="guillemotleft" unicode="&#xab;" horiz-adv-x="424" 
d="M36 162v19l106 155h70v-8l-104 -153v-5l104 -155v-8h-70zM213 162v19l106 155h69v-8l-104 -153v-5l104 -155v-8h-69z" />
    <glyph glyph-name="logicalnot" unicode="&#xac;" horiz-adv-x="553" 
d="M32 279v68h441v-347h-69v279h-372z" />
    <glyph glyph-name="registered" unicode="&#xae;" horiz-adv-x="568" 
d="M522 380q0 -99 -65.5 -166.5t-173.5 -67.5t-172 67.5t-64 166.5t64 166.5t172 67.5t173.5 -67.5t65.5 -166.5zM470 380q0 80 -52 132.5t-135 52.5t-134 -51t-51 -134q0 -80 51.5 -132.5t133.5 -52.5q83 0 135 52.5t52 132.5zM195 485h94q40 0 65.5 -20t25.5 -54
q0 -44 -39 -64l41 -54v-10h-42l-40 53h-64v-53h-41v202zM289 447h-53v-74h51q50 0 50 37t-48 37z" />
    <glyph glyph-name="macron" unicode="&#xaf;" horiz-adv-x="433" 
d="M83 443v52h267v-52h-267z" />
    <glyph glyph-name="degree" unicode="&#xb0;" horiz-adv-x="304" 
d="M152 672q52 0 84.5 -31t32.5 -77t-32.5 -76.5t-84.5 -30.5t-84.5 30.5t-32.5 76.5t32.5 77t84.5 31zM152 628q-30 0 -49 -18.5t-19 -45.5q0 -26 19 -44t49 -18q31 0 49.5 18t18.5 44q0 27 -18.5 45.5t-49.5 18.5z" />
    <glyph glyph-name="plusminus" unicode="&#xb1;" horiz-adv-x="547" 
d="M310 173h-69v167h-177v67h177v172h69v-172h173v-67h-173v-167zM483 104v-68h-419v68h419z" />
    <glyph glyph-name="twosuperior" unicode="&#xb2;" horiz-adv-x="312" 
d="M26 342v18l147 141q34 32 34 64q0 57 -67 57q-10 0 -19.5 -1.5t-17.5 -4.5t-15 -6.5t-13 -7.5t-10 -6.5t-7 -5.5l-3 -2l-30 44q5 5 15 12.5t41.5 20t63.5 12.5q63 0 93.5 -29t30.5 -75q0 -48 -46 -94l-91 -87h155v-50h-261z" />
    <glyph glyph-name="threesuperior" unicode="&#xb3;" horiz-adv-x="313" 
d="M36 618v50h236v-15l-73 -114q88 -12 88 -97q0 -46 -35 -77t-101 -31q-34 0 -65.5 11.5t-44 20t-18.5 14.5l31 43q40 -35 96 -35q38 0 58 15.5t20 40.5q0 23 -16.5 37.5t-47.5 15.5h-44v16l68 105h-152z" />
    <glyph glyph-name="acute" unicode="&#xb4;" horiz-adv-x="247" 
d="M188 562l-87 -143h-52v15l43 143h96v-15z" />
    <glyph glyph-name="mu" unicode="&#xb5;" horiz-adv-x="502" 
d="M155 -192h-81v538h82v-188q0 -44 22.5 -71t65.5 -27q44 0 70 26t26 59v201h82v-346h-54l-14 48h-4q-6 -11 -17.5 -22t-40.5 -22.5t-66 -11.5q-38 0 -71 13v-197z" />
    <glyph glyph-name="paragraph" unicode="&#xb6;" horiz-adv-x="500" 
d="M326 -163v271h-59q-110 0 -173.5 52t-63.5 150q0 94 61.5 144t171.5 50h145v-667h-82z" />
    <glyph glyph-name="periodcentered" unicode="&#xb7;" horiz-adv-x="161" 
d="M25 359q0 23 16 39.5t38 16.5q24 0 40 -16.5t16 -39.5t-16 -39t-40 -16q-23 0 -38.5 16t-15.5 39z" />
    <glyph glyph-name="cedilla" unicode="&#xb8;" horiz-adv-x="216" 
d="M81 -66l-16 20l24 48h44l-15 -32q30 0 48.5 -16.5t18.5 -46.5q0 -32 -21.5 -52t-60.5 -20q-24 0 -43 7.5t-26 15.5l-8 7l18 32q22 -21 57 -21q41 0 41 32q0 15 -11 23.5t-28 8.5q-6 0 -11.5 -1.5t-7.5 -2.5z" />
    <glyph glyph-name="onesuperior" unicode="&#xb9;" horiz-adv-x="199" 
d="M18 618v50h129v-326h-57v276h-72z" />
    <glyph glyph-name="ordmasculine" unicode="&#xba;" horiz-adv-x="417" 
d="M209 613q76 0 124.5 -47.5t48.5 -126.5q0 -77 -48.5 -124t-124.5 -47t-125 47t-49 124q0 79 48.5 126.5t125.5 47.5zM209 554q-48 0 -77.5 -31t-29.5 -83q0 -50 29.5 -81t77.5 -31t77 31t29 81q0 52 -29 83t-77 31z" />
    <glyph glyph-name="guillemotright" unicode="&#xbb;" horiz-adv-x="424" 
d="M213 181v-19l-106 -155h-70v8l103 155v5l-103 153v8h70zM388 181v-19l-106 -155h-69v8l103 155v5l-103 153v8h69z" />
    <glyph glyph-name="onequarter" unicode="&#xbc;" horiz-adv-x="637" 
d="M320 84v36l187 206h43v-194h52v-48h-52v-84h-56v84h-174zM93 4l-42 34l469 564l43 -34zM39 550v50h129v-326h-58v276h-71zM421 161q-5 -6 -12 -13.5t-11.5 -12t-5.5 -6.5l44 3h58v113h-1z" />
    <glyph glyph-name="onehalf" unicode="&#xbd;" horiz-adv-x="718" 
d="M93 4l-42 34l469 564l43 -34zM423 18v-18h261v50h-156l91 87q47 45 47 94q0 46 -30 75t-94 29q-33 0 -63 -11.5t-43 -22.5l-14 -11l30 -44q4 4 12.5 10t30 15t42.5 9q34 0 51 -15.5t17 -41.5t-36 -64zM39 550v50h129v-326h-58v276h-71z" />
    <glyph glyph-name="threequarters" unicode="&#xbe;" horiz-adv-x="735" 
d="M417 83v36l187 206h43v-194h52v-48h-52v-83h-55v83h-175zM52 550v50h236v-15l-73 -114q87 -12 87 -97q0 -46 -35 -77t-100 -31q-34 0 -65.5 11.5t-44.5 20t-19 14.5l32 43q40 -35 95 -35q39 0 58.5 15.5t19.5 40.5q0 53 -69 53h-39v16l69 105h-152zM195 4l-43 34l469 564
l43 -34zM518 159q-6 -7 -17 -18t-12 -13l44 3h59v113h-1z" />
    <glyph glyph-name="questiondown" unicode="&#xbf;" horiz-adv-x="383" 
d="M319 90l29 -65q-53 -33 -147 -33q-73 0 -116 39t-43 99q0 38 13.5 69t33.5 52.5t40.5 42t36.5 48t19 59.5l2 32h57v-40q0 -34 -12.5 -62.5t-30 -49t-34.5 -40t-29.5 -44t-12.5 -51.5q0 -38 25.5 -61.5t66.5 -23.5q29 0 54.5 7.5t36.5 14.5zM268 559q0 -22 -16 -37.5
t-39 -15.5t-38 15t-15 38t15.5 38.5t37.5 15.5q23 0 39 -16t16 -38z" />
    <glyph glyph-name="Agrave" unicode="&#xc0;" horiz-adv-x="611" 
d="M-1 0l298 600h17l299 -600h-94l-49 98h-329l-49 -98h-93zM428 181l-118 257h-10l-117 -257l-6 -10h257zM277 638l-87 143v15h97l42 -143v-15h-52z" />
    <glyph glyph-name="Aacute" unicode="&#xc1;" horiz-adv-x="611" 
d="M-1 0l298 600h17l299 -600h-94l-49 98h-329l-49 -98h-93zM428 181l-118 257h-10l-117 -257l-6 -10h257zM419 781l-87 -143h-52v15l43 143h96v-15z" />
    <glyph glyph-name="Acircumflex" unicode="&#xc2;" horiz-adv-x="611" 
d="M397 638l-92 99l-93 -99h-52v15l100 143h89l100 -143v-15h-52zM-1 0l298 600h17l299 -600h-94l-49 98h-329l-49 -98h-93zM428 181l-118 257h-10l-117 -257l-6 -10h257z" />
    <glyph glyph-name="Atilde" unicode="&#xc3;" horiz-adv-x="611" 
d="M-1 0l298 600h17l299 -600h-94l-49 98h-329l-49 -98h-93zM428 181l-118 257h-10l-117 -257l-6 -10h257zM374 645q-30 0 -71 22.5t-57 22.5t-24 -8.5t-13 -25.5l-4 -13l-58 6l5 26q16 78 85 78q30 0 70 -22.5t57 -22.5q31 0 38 33l3 13l58 -5l-4 -26q-15 -78 -85 -78z" />
    <glyph glyph-name="Adieresis" unicode="&#xc4;" horiz-adv-x="611" 
d="M166 721q0 19 14 33t33 14t33 -14t14 -33t-14 -33t-33 -14t-33 14t-14 33zM348 721q0 19 14 33t33 14t33 -14t14 -33t-14 -33t-33 -14t-33 14t-14 33zM-1 0l298 600h17l299 -600h-94l-49 98h-329l-49 -98h-93zM428 181l-118 257h-10l-117 -257l-6 -10h257z" />
    <glyph glyph-name="Aring" unicode="&#xc5;" horiz-adv-x="612" 
d="M-1 0l284 572q-34 7 -55 32t-21 60q0 40 28 67t70 27q41 0 68.5 -27t27.5 -67q0 -34 -20 -59t-53 -33l285 -572h-94l-49 98h-329l-49 -98h-93zM428 181l-118 257h-10l-117 -257l-6 -10h257zM348 664q0 20 -11.5 32t-31.5 12t-32.5 -12t-12.5 -32q0 -19 12.5 -31t32.5 -12
t31.5 11.5t11.5 31.5z" />
    <glyph glyph-name="AE" unicode="&#xc6;" horiz-adv-x="912" 
d="M-14 0l431 600h457v-75h-363v-193h315v-73h-315v-184h363v-75h-446v98h-273l-67 -98h-102zM419 472l-214 -301h223v301h-9z" />
    <glyph glyph-name="Ccedilla" unicode="&#xc7;" horiz-adv-x="589" 
d="M325 -66l-16 20l16 33q-127 10 -205.5 98.5t-78.5 213.5q0 134 87.5 224t226.5 90q40 0 76.5 -8t59.5 -19t40.5 -22t24.5 -19l8 -8l-47 -64q-3 3 -7.5 7t-21 14.5t-34 19t-44.5 15t-54 6.5q-101 0 -166 -68t-65 -168q0 -99 65 -167t166 -68q45 0 85 15.5t58 30.5l18 16
l47 -64l-8 -8t-23 -17.5t-38.5 -22t-54.5 -18.5t-71 -10l-7 -16q30 0 48.5 -16.5t18.5 -46.5q0 -32 -21.5 -52t-60.5 -20q-24 0 -43 7.5t-26 15.5l-8 7l18 32q22 -21 57 -21q41 0 41 32q0 15 -11 23.5t-28 8.5q-6 0 -11.5 -1.5t-7.5 -2.5z" />
    <glyph glyph-name="Egrave" unicode="&#xc8;" horiz-adv-x="567" 
d="M481 333v-73h-316v-185h364v-75h-446v600h446v-75h-364v-192h316zM296 637l-87 143v15h97l42 -143v-15h-52z" />
    <glyph glyph-name="Eacute" unicode="&#xc9;" horiz-adv-x="567" 
d="M417 781l-87 -143h-52v15l43 143h96v-15zM481 333v-73h-316v-185h364v-75h-446v600h446v-75h-364v-192h316z" />
    <glyph glyph-name="Ecircumflex" unicode="&#xca;" horiz-adv-x="567" 
d="M403 638l-92 99l-93 -99h-52v15l100 143h89l100 -143v-15h-52zM481 333v-73h-316v-185h364v-75h-446v600h446v-75h-364v-192h316z" />
    <glyph glyph-name="Edieresis" unicode="&#xcb;" horiz-adv-x="567" 
d="M172 705q0 19 14 33t33 14t33 -14t14 -33t-14 -33t-33 -14t-33 14t-14 33zM354 705q0 19 14 33t33 14t33 -14t14 -33t-14 -33t-33 -14t-33 14t-14 33zM481 333v-73h-316v-185h364v-75h-446v600h446v-75h-364v-192h316z" />
    <glyph glyph-name="Igrave" unicode="&#xcc;" horiz-adv-x="248" 
d="M165 600v-600h-82v600h82zM96 637l-87 143v15h97l42 -143v-15h-52z" />
    <glyph glyph-name="Iacute" unicode="&#xcd;" horiz-adv-x="248" 
d="M165 600v-600h-82v600h82zM237 781l-87 -143h-52v15l43 143h96v-15z" />
    <glyph glyph-name="Icircumflex" unicode="&#xce;" horiz-adv-x="248" 
d="M217 638l-92 99l-93 -99h-52v15l100 143h89l100 -143v-15h-52zM165 600v-600h-82v600h82z" />
    <glyph glyph-name="Idieresis" unicode="&#xcf;" horiz-adv-x="248" 
d="M-14 705q0 19 14 33t33 14t33 -14t14 -33t-14 -33t-33 -14t-33 14t-14 33zM168 705q0 19 14 33t33 14t33 -14t14 -33t-14 -33t-33 -14t-33 14t-14 33zM165 600v-600h-82v600h82z" />
    <glyph glyph-name="Eth" unicode="&#xd0;" horiz-adv-x="668" 
d="M16 270v59h75v271h215q144 0 231.5 -82t87.5 -218t-87.5 -218t-231.5 -82h-215v270h-75zM300 525h-127v-196h122v-59h-122v-195h127q106 0 173.5 60t67.5 165t-67.5 165t-173.5 60z" />
    <glyph glyph-name="Ntilde" unicode="&#xd1;" horiz-adv-x="696" 
d="M614 600v-600h-23l-426 431v-431h-82v600h23l425 -426v426h83zM417 660q-30 0 -71 22.5t-57 22.5t-24 -8.5t-13 -25.5l-4 -13l-58 6l5 26q16 78 85 78q30 0 70 -22.5t57 -22.5q31 0 38 33l3 13l58 -5l-4 -26q-15 -78 -85 -78z" />
    <glyph glyph-name="Ograve" unicode="&#xd2;" horiz-adv-x="706" 
d="M327 638l-87 143v15h97l42 -143v-15h-52zM352 -14q-140 0 -225.5 89.5t-85.5 223.5q0 135 85.5 224.5t225.5 89.5q141 0 227 -89.5t86 -224.5q0 -134 -86 -223.5t-227 -89.5zM352 65q103 0 166 67t63 167q0 101 -63 168.5t-166 67.5q-101 0 -164 -68t-63 -168t63 -167
t164 -67z" />
    <glyph glyph-name="Oacute" unicode="&#xd3;" horiz-adv-x="706" 
d="M463 781l-87 -143h-52v15l43 143h96v-15zM352 -14q-140 0 -225.5 89.5t-85.5 223.5q0 135 85.5 224.5t225.5 89.5q141 0 227 -89.5t86 -224.5q0 -134 -86 -223.5t-227 -89.5zM352 65q103 0 166 67t63 167q0 101 -63 168.5t-166 67.5q-101 0 -164 -68t-63 -168t63 -167
t164 -67z" />
    <glyph glyph-name="Ocircumflex" unicode="&#xd4;" horiz-adv-x="706" 
d="M444 638l-92 99l-93 -99h-52v15l100 143h89l100 -143v-15h-52zM352 -14q-140 0 -225.5 89.5t-85.5 223.5q0 135 85.5 224.5t225.5 89.5q141 0 227 -89.5t86 -224.5q0 -134 -86 -223.5t-227 -89.5zM352 65q103 0 166 67t63 167q0 101 -63 168.5t-166 67.5q-101 0 -164 -68
t-63 -168t63 -167t164 -67z" />
    <glyph glyph-name="Otilde" unicode="&#xd5;" horiz-adv-x="706" 
d="M352 -14q-140 0 -225.5 89.5t-85.5 223.5q0 135 85.5 224.5t225.5 89.5q141 0 227 -89.5t86 -224.5q0 -134 -86 -223.5t-227 -89.5zM352 65q103 0 166 67t63 167q0 101 -63 168.5t-166 67.5q-101 0 -164 -68t-63 -168t63 -167t164 -67zM421 659q-30 0 -71 22.5t-57 22.5
t-24 -8.5t-13 -25.5l-4 -13l-58 6l5 26q16 78 85 78q30 0 70 -22.5t57 -22.5q31 0 38 33l3 13l58 -5l-4 -26q-15 -78 -85 -78z" />
    <glyph glyph-name="Odieresis" unicode="&#xd6;" horiz-adv-x="706" 
d="M214 704q0 19 14 33t33 14t33 -14t14 -33t-14 -33t-33 -14t-33 14t-14 33zM396 704q0 19 14 33t33 14t33 -14t14 -33t-14 -33t-33 -14t-33 14t-14 33zM352 -14q-140 0 -225.5 89.5t-85.5 223.5q0 135 85.5 224.5t225.5 89.5q141 0 227 -89.5t86 -224.5q0 -134 -86 -223.5
t-227 -89.5zM352 65q103 0 166 67t63 167q0 101 -63 168.5t-166 67.5q-101 0 -164 -68t-63 -168t63 -167t164 -67z" />
    <glyph glyph-name="multiply" unicode="&#xd7;" horiz-adv-x="515" 
d="M104 102l-48 47l154 154l-154 154l48 47l153 -154l154 154l48 -47l-154 -154l154 -154l-48 -47l-154 153z" />
    <glyph glyph-name="Oslash" unicode="&#xd8;" horiz-adv-x="704" 
d="M352 -14q-122 0 -206 71l-62 -60l-41 42l62 61q-64 84 -64 199q0 135 85.5 224.5t225.5 89.5q122 0 206 -70l54 53l41 -42l-54 -53q66 -85 66 -202q0 -134 -86 -223.5t-227 -89.5zM352 65q103 0 166 67t63 167q0 82 -43 142l-333 -326q61 -50 147 -50zM125 299
q0 -81 41 -140l332 326q-61 50 -146 50q-101 0 -164 -68t-63 -168z" />
    <glyph glyph-name="Ugrave" unicode="&#xd9;" horiz-adv-x="659" 
d="M330 -14q-119 0 -187.5 73.5t-68.5 192.5v348h82v-348q0 -84 45 -135.5t129 -51.5t128.5 51.5t44.5 135.5v348h83v-348q0 -119 -68 -192.5t-188 -73.5zM309 638l-87 143v15h97l42 -143v-15h-52z" />
    <glyph glyph-name="Uacute" unicode="&#xda;" horiz-adv-x="659" 
d="M445 781l-87 -143h-52v15l43 143h96v-15zM330 -14q-119 0 -187.5 73.5t-68.5 192.5v348h82v-348q0 -84 45 -135.5t129 -51.5t128.5 51.5t44.5 135.5v348h83v-348q0 -119 -68 -192.5t-188 -73.5z" />
    <glyph glyph-name="Ucircumflex" unicode="&#xdb;" horiz-adv-x="659" 
d="M425 638l-92 99l-93 -99h-52v15l100 143h89l100 -143v-15h-52zM330 -14q-119 0 -187.5 73.5t-68.5 192.5v348h82v-348q0 -84 45 -135.5t129 -51.5t128.5 51.5t44.5 135.5v348h83v-348q0 -119 -68 -192.5t-188 -73.5z" />
    <glyph glyph-name="Udieresis" unicode="&#xdc;" horiz-adv-x="659" 
d="M193 706q0 19 14 33t33 14t33 -14t14 -33t-14 -33t-33 -14t-33 14t-14 33zM375 706q0 19 14 33t33 14t33 -14t14 -33t-14 -33t-33 -14t-33 14t-14 33zM330 -14q-119 0 -187.5 73.5t-68.5 192.5v348h82v-348q0 -84 45 -135.5t129 -51.5t128.5 51.5t44.5 135.5v348h83v-348
q0 -119 -68 -192.5t-188 -73.5z" />
    <glyph glyph-name="Yacute" unicode="&#xdd;" 
d="M297 346l155 254h95l-231 -370v-230h-83v229l-230 371h96l157 -254l17 -37h6zM388 781l-87 -143h-52v15l43 143h96v-15z" />
    <glyph glyph-name="Thorn" unicode="&#xde;" horiz-adv-x="603" 
d="M165 600v-96h170q113 0 177 -52.5t64 -149.5q0 -101 -66.5 -155t-179.5 -54h-165v-93h-82v600h82zM490 299q0 64 -42 96.5t-116 32.5h-167v-260h167q158 0 158 131z" />
    <glyph glyph-name="germandbls" unicode="&#xdf;" horiz-adv-x="480" 
d="M263 125h-49v27l94 130h-169v-282h-82v453q0 178 164 178q19 0 37 -3.5t26 -7.5l9 -3l-22 -70q-20 10 -43 10q-89 0 -89 -98v-112h294v-16l-113 -153q59 -8 94 -41.5t35 -94.5q0 -69 -48.5 -108t-131.5 -39q-31 0 -57 4.5t-36 8.5l-11 5l18 59q31 -13 83 -13
q43 0 69 23.5t26 60.5q0 39 -27 60.5t-71 21.5z" />
    <glyph glyph-name="agrave" unicode="&#xe0;" horiz-adv-x="424" 
d="M28 103q0 47 39.5 76.5t115.5 29.5q69 0 105 -27h6v17q0 88 -109 88q-27 0 -52 -6.5t-37 -13.5l-11 -7l-27 61q47 33 142 33q89 0 131 -43.5t42 -119.5v-191h-58l-8 40h-5q-34 -48 -128 -48q-70 0 -108 31.5t-38 79.5zM108 105q0 -25 21.5 -40.5t62.5 -15.5t70.5 19.5
t29.5 38.5q0 23 -28 38t-72 15q-40 0 -62 -14.5t-22 -40.5zM179 419l-87 143v15h97l42 -143v-15h-52z" />
    <glyph glyph-name="aacute" unicode="&#xe1;" horiz-adv-x="424" 
d="M28 103q0 47 39.5 76.5t115.5 29.5q69 0 105 -27h6v17q0 88 -109 88q-27 0 -52 -6.5t-37 -13.5l-11 -7l-27 61q47 33 142 33q89 0 131 -43.5t42 -119.5v-191h-58l-8 40h-5q-34 -48 -128 -48q-70 0 -108 31.5t-38 79.5zM108 105q0 -25 21.5 -40.5t62.5 -15.5t70.5 19.5
t29.5 38.5q0 23 -28 38t-72 15q-40 0 -62 -14.5t-22 -40.5zM325 562l-87 -143h-52v15l43 143h96v-15z" />
    <glyph glyph-name="acircumflex" unicode="&#xe2;" horiz-adv-x="424" 
d="M28 103q0 47 39.5 76.5t115.5 29.5q69 0 105 -27h6v17q0 88 -109 88q-27 0 -52 -6.5t-37 -13.5l-11 -7l-27 61q47 33 142 33q89 0 131 -43.5t42 -119.5v-191h-58l-8 40h-5q-34 -48 -128 -48q-70 0 -108 31.5t-38 79.5zM108 105q0 -25 21.5 -40.5t62.5 -15.5t70.5 19.5
t29.5 38.5q0 23 -28 38t-72 15q-40 0 -62 -14.5t-22 -40.5zM307 419l-92 99l-93 -99h-52v15l100 143h89l100 -143v-15h-52z" />
    <glyph glyph-name="atilde" unicode="&#xe3;" horiz-adv-x="424" 
d="M28 103q0 47 39.5 76.5t115.5 29.5q69 0 105 -27h6v17q0 88 -109 88q-27 0 -52 -6.5t-37 -13.5l-11 -7l-27 61q47 33 142 33q89 0 131 -43.5t42 -119.5v-191h-58l-8 40h-5q-34 -48 -128 -48q-70 0 -108 31.5t-38 79.5zM108 105q0 -25 21.5 -40.5t62.5 -15.5t70.5 19.5
t29.5 38.5q0 23 -28 38t-72 15q-40 0 -62 -14.5t-22 -40.5zM273 439q-30 0 -71 22.5t-57 22.5t-24 -8.5t-13 -25.5l-4 -13l-58 6l5 26q16 78 85 78q30 0 70 -22.5t57 -22.5q31 0 38 33l3 13l58 -5l-4 -26q-15 -78 -85 -78z" />
    <glyph glyph-name="adieresis" unicode="&#xe4;" horiz-adv-x="424" 
d="M28 103q0 47 39.5 76.5t115.5 29.5q69 0 105 -27h6v17q0 88 -109 88q-27 0 -52 -6.5t-37 -13.5l-11 -7l-27 61q47 33 142 33q89 0 131 -43.5t42 -119.5v-191h-58l-8 40h-5q-34 -48 -128 -48q-70 0 -108 31.5t-38 79.5zM108 105q0 -25 21.5 -40.5t62.5 -15.5t70.5 19.5
t29.5 38.5q0 23 -28 38t-72 15q-40 0 -62 -14.5t-22 -40.5zM70 483q0 19 14 33t33 14t33 -14t14 -33t-14 -33t-33 -14t-33 14t-14 33zM252 483q0 19 14 33t33 14t33 -14t14 -33t-14 -33t-33 -14t-33 14t-14 33z" />
    <glyph glyph-name="aring" unicode="&#xe5;" horiz-adv-x="424" 
d="M28 103q0 47 39.5 76.5t115.5 29.5q69 0 105 -27h6v17q0 88 -109 88q-27 0 -52 -6.5t-37 -13.5l-11 -7l-27 61q47 33 142 33q89 0 131 -43.5t42 -119.5v-191h-58l-8 40h-5q-34 -48 -128 -48q-70 0 -108 31.5t-38 79.5zM108 105q0 -25 21.5 -40.5t62.5 -15.5t70.5 19.5
t29.5 38.5q0 23 -28 38t-72 15q-40 0 -62 -14.5t-22 -40.5zM205 427q-42 0 -70 27t-28 67t28 67t70 27q41 0 68.5 -27t27.5 -67t-27.5 -67t-68.5 -27zM248 521q0 20 -11.5 32t-31.5 12t-32.5 -12t-12.5 -32q0 -19 12.5 -31t32.5 -12t31.5 11.5t11.5 31.5z" />
    <glyph glyph-name="ae" unicode="&#xe6;" horiz-adv-x="682" 
d="M598 83l28 -54q-5 -4 -15.5 -10.5t-45.5 -17t-75 -10.5q-95 0 -149 60q-52 -59 -156 -59q-78 0 -117.5 31.5t-39.5 79.5q0 47 38.5 76.5t106.5 29.5q79 0 117 -30h2v16q0 93 -107 93q-27 0 -53 -6t-38 -12l-12 -7l-25 60q57 31 143 31q98 0 142 -57q51 57 138 57
q80 0 126 -48t46 -126l-1 -24h-274q5 -49 37.5 -74.5t81.5 -25.5q28 0 53.5 7t36.5 13zM105 105q0 -56 87 -56q42 0 71.5 17t29.5 40t-30 37.5t-71 14.5q-87 0 -87 -53zM479 291q-40 0 -66.5 -21.5t-33.5 -62.5h195q-5 37 -30 60.5t-65 23.5z" />
    <glyph glyph-name="ccedilla" unicode="&#xe7;" horiz-adv-x="363" 
d="M191 -66l-16 20l20 40q-72 8 -117 57t-45 121q0 80 54 131t138 51q33 0 61.5 -7.5t40.5 -14.5l12 -8l-24 -61q-32 23 -83 23q-50 0 -83.5 -31.5t-33.5 -82.5t33.5 -81.5t83.5 -30.5q23 0 43.5 6t30.5 12l9 5l22 -61q-33 -26 -99 -30l-10 -22q30 0 48.5 -16.5t18.5 -46.5
q0 -32 -21.5 -52t-60.5 -20q-24 0 -43 7.5t-26 15.5l-8 7l18 32q22 -21 57 -21q41 0 41 32q0 15 -11 23.5t-28 8.5q-6 0 -11.5 -1.5t-7.5 -2.5z" />
    <glyph glyph-name="egrave" unicode="&#xe8;" horiz-adv-x="416" 
d="M333 85l28 -54q-5 -4 -14.5 -11t-43.5 -18t-73 -11q-89 0 -143 50.5t-54 130.5q0 79 51 130.5t132 51.5q79 0 125.5 -48.5t46.5 -125.5l-1 -24h-274q5 -49 37.5 -74.5t81.5 -25.5q29 0 54 7t36 15zM215 290q-38 0 -64.5 -21t-35.5 -60h193q-5 36 -30 58.5t-63 22.5z
M188 419l-87 143v15h97l42 -143v-15h-52z" />
    <glyph glyph-name="eacute" unicode="&#xe9;" horiz-adv-x="416" 
d="M331 562l-87 -143h-52v15l43 143h96v-15zM333 85l28 -54q-5 -4 -14.5 -11t-43.5 -18t-73 -11q-89 0 -143 50.5t-54 130.5q0 79 51 130.5t132 51.5q79 0 125.5 -48.5t46.5 -125.5l-1 -24h-274q5 -49 37.5 -74.5t81.5 -25.5q29 0 54 7t36 15zM215 290q-38 0 -64.5 -21
t-35.5 -60h193q-5 36 -30 58.5t-63 22.5z" />
    <glyph glyph-name="ecircumflex" unicode="&#xea;" horiz-adv-x="416" 
d="M309 419l-92 99l-93 -99h-52v15l100 143h89l100 -143v-15h-52zM333 85l28 -54q-5 -4 -14.5 -11t-43.5 -18t-73 -11q-89 0 -143 50.5t-54 130.5q0 79 51 130.5t132 51.5q79 0 125.5 -48.5t46.5 -125.5l-1 -24h-274q5 -49 37.5 -74.5t81.5 -25.5q29 0 54 7t36 15zM215 290
q-38 0 -64.5 -21t-35.5 -60h193q-5 36 -30 58.5t-63 22.5z" />
    <glyph glyph-name="edieresis" unicode="&#xeb;" horiz-adv-x="416" 
d="M78 483q0 19 14 33t33 14t33 -14t14 -33t-14 -33t-33 -14t-33 14t-14 33zM260 483q0 19 14 33t33 14t33 -14t14 -33t-14 -33t-33 -14t-33 14t-14 33zM333 85l28 -54q-5 -4 -14.5 -11t-43.5 -18t-73 -11q-89 0 -143 50.5t-54 130.5q0 79 51 130.5t132 51.5
q79 0 125.5 -48.5t46.5 -125.5l-1 -24h-274q5 -49 37.5 -74.5t81.5 -25.5q29 0 54 7t36 15zM215 290q-38 0 -64.5 -21t-35.5 -60h193q-5 36 -30 58.5t-63 22.5z" />
    <glyph glyph-name="igrave" unicode="&#xec;" horiz-adv-x="198" 
d="M58 0v346h82v-346h-82zM70 419l-87 143v15h97l42 -143v-15h-52z" />
    <glyph glyph-name="iacute" unicode="&#xed;" horiz-adv-x="198" 
d="M211 562l-87 -143h-52v15l43 143h96v-15zM58 0v346h82v-346h-82z" />
    <glyph glyph-name="icircumflex" unicode="&#xee;" horiz-adv-x="198" 
d="M192 419l-92 99l-93 -99h-52v15l100 143h89l100 -143v-15h-52zM58 0v346h82v-346h-82z" />
    <glyph glyph-name="idieresis" unicode="&#xef;" horiz-adv-x="198" 
d="M-37 483q0 19 14 33t33 14t33 -14t14 -33t-14 -33t-33 -14t-33 14t-14 33zM145 483q0 19 14 33t33 14t33 -14t14 -33t-14 -33t-33 -14t-33 14t-14 33zM58 0v346h82v-346h-82z" />
    <glyph glyph-name="eth" unicode="&#xf0;" horiz-adv-x="468" 
d="M111 387l-26 47l105 60l-60 95v11h77l45 -71l98 56l27 -46l-96 -55l99 -154q29 -48 41.5 -80.5t12.5 -78.5q0 -82 -55.5 -131.5t-144.5 -49.5t-145 49.5t-56 131.5q0 79 56 130t146 51q27 0 49 -6v4q-12 14 -40 58l-26 40zM234 58q52 0 85 31.5t33 81.5q0 49 -32.5 81
t-84.5 32q-53 0 -86 -32t-33 -81q0 -50 33 -81.5t85 -31.5z" />
    <glyph glyph-name="ntilde" unicode="&#xf1;" horiz-adv-x="457" 
d="M139 199v-199h-82v346h54l10 -49h4q39 57 127 57q72 0 113 -42t41 -113v-199h-81v188q0 43 -24 70.5t-67 27.5q-46 0 -70.5 -27t-24.5 -60zM294 439q-30 0 -71 22.5t-57 22.5t-24 -8.5t-13 -25.5l-4 -13l-58 6l5 26q16 78 85 78q30 0 70 -22.5t57 -22.5q31 0 38 33l3 13
l58 -5l-4 -26q-15 -78 -85 -78z" />
    <glyph glyph-name="ograve" unicode="&#xf2;" horiz-adv-x="446" 
d="M414 171q0 -81 -55 -130t-136 -49t-135.5 49t-54.5 130q0 82 54.5 132.5t135.5 50.5t136 -51t55 -132zM223 58q47 0 79 31t32 83t-32 84t-79 32t-78.5 -32t-31.5 -84t31.5 -83t78.5 -31zM196 419l-87 143v15h97l42 -143v-15h-52z" />
    <glyph glyph-name="oacute" unicode="&#xf3;" horiz-adv-x="446" 
d="M334 562l-87 -143h-52v15l43 143h96v-15zM414 171q0 -81 -55 -130t-136 -49t-135.5 49t-54.5 130q0 82 54.5 132.5t135.5 50.5t136 -51t55 -132zM223 58q47 0 79 31t32 83t-32 84t-79 32t-78.5 -32t-31.5 -84t31.5 -83t78.5 -31z" />
    <glyph glyph-name="ocircumflex" unicode="&#xf4;" horiz-adv-x="446" 
d="M316 419l-92 99l-93 -99h-52v15l100 143h89l100 -143v-15h-52zM414 171q0 -81 -55 -130t-136 -49t-135.5 49t-54.5 130q0 82 54.5 132.5t135.5 50.5t136 -51t55 -132zM223 58q47 0 79 31t32 83t-32 84t-79 32t-78.5 -32t-31.5 -84t31.5 -83t78.5 -31z" />
    <glyph glyph-name="otilde" unicode="&#xf5;" horiz-adv-x="446" 
d="M414 171q0 -81 -55 -130t-136 -49t-135.5 49t-54.5 130q0 82 54.5 132.5t135.5 50.5t136 -51t55 -132zM223 58q47 0 79 31t32 83t-32 84t-79 32t-78.5 -32t-31.5 -84t31.5 -83t78.5 -31zM288 439q-30 0 -71 22.5t-57 22.5t-24 -8.5t-13 -25.5l-4 -13l-58 6l5 26
q16 78 85 78q30 0 70 -22.5t57 -22.5q31 0 38 33l3 13l58 -5l-4 -26q-15 -78 -85 -78z" />
    <glyph glyph-name="odieresis" unicode="&#xf6;" horiz-adv-x="446" 
d="M87 483q0 19 14 33t33 14t33 -14t14 -33t-14 -33t-33 -14t-33 14t-14 33zM269 483q0 19 14 33t33 14t33 -14t14 -33t-14 -33t-33 -14t-33 14t-14 33zM414 171q0 -81 -55 -130t-136 -49t-135.5 49t-54.5 130q0 82 54.5 132.5t135.5 50.5t136 -51t55 -132zM223 58
q47 0 79 31t32 83t-32 84t-79 32t-78.5 -32t-31.5 -84t31.5 -83t78.5 -31z" />
    <glyph glyph-name="divide" unicode="&#xf7;" horiz-adv-x="502" 
d="M195 141q0 23 16.5 39.5t39.5 16.5t39.5 -16.5t16.5 -39.5t-16.5 -39t-39.5 -16t-39.5 16t-16.5 39zM195 455q0 23 16.5 39.5t39.5 16.5t39.5 -16.5t16.5 -39.5t-16.5 -39t-39.5 -16t-39.5 16t-16.5 39zM54 262v68h394v-68h-394z" />
    <glyph glyph-name="oslash" unicode="&#xf8;" horiz-adv-x="446" 
d="M415 171q0 -81 -55 -130t-136 -49q-69 0 -119 35l-38 -38l-30 30l37 37q-40 46 -40 115q0 82 54.5 132.5t135.5 50.5q63 0 113 -33l42 42l30 -30l-40 -39q46 -51 46 -123zM224 58q47 0 79 31t32 83q0 37 -20 69l-160 -161q28 -22 69 -22zM114 172q0 -38 15 -63l159 159
q-28 20 -64 20q-47 0 -78.5 -32t-31.5 -84z" />
    <glyph glyph-name="ugrave" unicode="&#xf9;" horiz-adv-x="455" 
d="M399 346v-346h-54l-14 48h-4q-6 -11 -17.5 -22t-40.5 -22.5t-66 -11.5q-72 0 -112 42t-40 113v199h82v-188q0 -44 22.5 -71t65.5 -27q44 0 70 26t26 59v201h82zM199 419l-87 143v15h97l42 -143v-15h-52z" />
    <glyph glyph-name="uacute" unicode="&#xfa;" horiz-adv-x="455" 
d="M338 562l-87 -143h-52v15l43 143h96v-15zM399 346v-346h-54l-14 48h-4q-6 -11 -17.5 -22t-40.5 -22.5t-66 -11.5q-72 0 -112 42t-40 113v199h82v-188q0 -44 22.5 -71t65.5 -27q44 0 70 26t26 59v201h82z" />
    <glyph glyph-name="ucircumflex" unicode="&#xfb;" horiz-adv-x="455" 
d="M316 419l-92 99l-93 -99h-52v15l100 143h89l100 -143v-15h-52zM399 346v-346h-54l-14 48h-4q-6 -11 -17.5 -22t-40.5 -22.5t-66 -11.5q-72 0 -112 42t-40 113v199h82v-188q0 -44 22.5 -71t65.5 -27q44 0 70 26t26 59v201h82z" />
    <glyph glyph-name="udieresis" unicode="&#xfc;" horiz-adv-x="455" 
d="M89 483q0 19 14 33t33 14t33 -14t14 -33t-14 -33t-33 -14t-33 14t-14 33zM271 483q0 19 14 33t33 14t33 -14t14 -33t-14 -33t-33 -14t-33 14t-14 33zM399 346v-346h-54l-14 48h-4q-6 -11 -17.5 -22t-40.5 -22.5t-66 -11.5q-72 0 -112 42t-40 113v199h82v-188
q0 -44 22.5 -71t65.5 -27q44 0 70 26t26 59v201h82z" />
    <glyph glyph-name="yacute" unicode="&#xfd;" horiz-adv-x="409" 
d="M399 346l-252 -538h-86l106 215l-156 323h89l100 -223q5 -13 6 -26h5q1 13 6 26l98 223h84zM320 562l-87 -143h-52v15l43 143h96v-15z" />
    <glyph glyph-name="thorn" unicode="&#xfe;" horiz-adv-x="468" 
d="M141 57h-3v-249h-82v792h82v-309h3q1 3 3.5 7t12.5 15t22.5 19t34.5 15t48 7q75 0 123.5 -49.5t48.5 -131.5q0 -80 -49.5 -130.5t-122.5 -50.5q-42 0 -72 16.5t-40 32.5zM134 173q0 -51 31 -82t79 -31q47 0 77 31.5t30 81.5q0 49 -30 81t-77 32q-48 0 -79 -31t-31 -82z
" />
    <glyph glyph-name="ydieresis" unicode="&#xff;" horiz-adv-x="409" 
d="M399 346l-252 -538h-86l106 215l-156 323h89l100 -223q5 -13 6 -26h5q1 13 6 26l98 223h84zM71 483q0 19 14 33t33 14t33 -14t14 -33t-14 -33t-33 -14t-33 14t-14 33zM253 483q0 19 14 33t33 14t33 -14t14 -33t-14 -33t-33 -14t-33 14t-14 33z" />
    <glyph glyph-name="Amacron" unicode="&#x100;" horiz-adv-x="611" 
d="M-1 0l298 600h17l299 -600h-94l-49 98h-329l-49 -98h-93zM428 181l-118 257h-10l-117 -257l-6 -10h257zM171 644v52h267v-52h-267z" />
    <glyph glyph-name="amacron" unicode="&#x101;" horiz-adv-x="424" 
d="M28 103q0 47 39.5 76.5t115.5 29.5q69 0 105 -27h6v17q0 88 -109 88q-27 0 -52 -6.5t-37 -13.5l-11 -7l-27 61q47 33 142 33q89 0 131 -43.5t42 -119.5v-191h-58l-8 40h-5q-34 -48 -128 -48q-70 0 -108 31.5t-38 79.5zM108 105q0 -25 21.5 -40.5t62.5 -15.5t70.5 19.5
t29.5 38.5q0 23 -28 38t-72 15q-40 0 -62 -14.5t-22 -40.5zM73 443v52h267v-52h-267z" />
    <glyph glyph-name="Abreve" unicode="&#x102;" horiz-adv-x="611" 
d="M-1 0l298 600h17l299 -600h-94l-49 98h-329l-49 -98h-93zM428 181l-118 257h-10l-117 -257l-6 -10h257zM371 806h64q0 -54 -36.5 -91.5t-93.5 -37.5t-93.5 37.5t-36.5 91.5h64q0 -30 18.5 -49t47.5 -19q28 0 47 19.5t19 48.5z" />
    <glyph glyph-name="abreve" unicode="&#x103;" horiz-adv-x="424" 
d="M28 103q0 47 39.5 76.5t115.5 29.5q69 0 105 -27h6v17q0 88 -109 88q-27 0 -52 -6.5t-37 -13.5l-11 -7l-27 61q47 33 142 33q89 0 131 -43.5t42 -119.5v-191h-58l-8 40h-5q-34 -48 -128 -48q-70 0 -108 31.5t-38 79.5zM108 105q0 -25 21.5 -40.5t62.5 -15.5t70.5 19.5
t29.5 38.5q0 23 -28 38t-72 15q-40 0 -62 -14.5t-22 -40.5zM277 581h64q0 -54 -36.5 -91.5t-93.5 -37.5t-93.5 37.5t-36.5 91.5h64q0 -30 18.5 -49t47.5 -19q28 0 47 19.5t19 48.5z" />
    <glyph glyph-name="Aogonek" unicode="&#x104;" horiz-adv-x="611" 
d="M604 -78l25 -33q-23 -27 -67 -27q-36 0 -56.5 19t-20.5 51q0 40 38 68h-4l-49 98h-329l-49 -98h-93l298 600h17l299 -600h-26l-2 -1q-2 -1 -4.5 -2t-6 -2.5t-7 -4t-7.5 -5.5l-8 -6t-7 -7.5t-5.5 -9t-4 -9.5t-1.5 -11q0 -34 36 -34q9 0 17.5 3.5t12.5 6.5zM428 181
l-118 257h-10l-117 -257l-6 -10h257z" />
    <glyph glyph-name="aogonek" unicode="&#x105;" horiz-adv-x="424" 
d="M389 -78l25 -33q-23 -27 -67 -27q-36 0 -56.5 19t-20.5 51q0 45 44 72l-7 36h-5q-34 -48 -128 -48q-70 0 -108 31.5t-38 79.5q0 47 39.5 76.5t115.5 29.5q69 0 105 -27h6v17q0 88 -109 88q-27 0 -52 -6.5t-37 -13.5l-11 -7l-27 61q47 33 142 33q89 0 131 -43.5t42 -119.5
v-191q-6 -2 -15 -6t-24 -19t-15 -33q0 -34 36 -34q9 0 17.5 3.5t12.5 6.5zM108 105q0 -25 21.5 -40.5t62.5 -15.5t70.5 19.5t29.5 38.5q0 23 -28 38t-72 15q-40 0 -62 -14.5t-22 -40.5z" />
    <glyph glyph-name="Cacute" unicode="&#x106;" horiz-adv-x="589" 
d="M463 798l-87 -143h-52v15l43 143h96v-15zM517 126l47 -64l-8 -8t-24.5 -18.5t-41.5 -23.5t-58.5 -18t-76.5 -8q-139 0 -226.5 90t-87.5 223q0 134 87.5 224t226.5 90q40 0 76.5 -8t59.5 -19t40.5 -22t24.5 -19l8 -8l-47 -64q-3 3 -7.5 7t-21 14.5t-34 19t-44.5 15
t-54 6.5q-101 0 -166 -68t-65 -168q0 -99 65 -167t166 -68q45 0 85 15.5t58 30.5z" />
    <glyph glyph-name="cacute" unicode="&#x107;" horiz-adv-x="363" 
d="M335 562l-87 -143h-52v15l43 143h96v-15zM225 -8q-84 0 -138 50.5t-54 129.5q0 80 54 131t138 51q33 0 61.5 -7.5t40.5 -14.5l12 -8l-24 -61q-32 23 -83 23q-50 0 -83.5 -31.5t-33.5 -82.5t33.5 -81.5t83.5 -30.5q23 0 43.5 6t30.5 12l9 5l22 -61q-37 -30 -112 -30z" />
    <glyph glyph-name="Ccircumflex" unicode="&#x108;" horiz-adv-x="589" 
d="M442 638l-92 99l-93 -99h-52v15l100 143h89l100 -143v-15h-52zM517 126l47 -64l-8 -8t-24.5 -18.5t-41.5 -23.5t-58.5 -18t-76.5 -8q-139 0 -226.5 90t-87.5 223q0 134 87.5 224t226.5 90q40 0 76.5 -8t59.5 -19t40.5 -22t24.5 -19l8 -8l-47 -64q-3 3 -7.5 7t-21 14.5
t-34 19t-44.5 15t-54 6.5q-101 0 -166 -68t-65 -168q0 -99 65 -167t166 -68q45 0 85 15.5t58 30.5z" />
    <glyph glyph-name="ccircumflex" unicode="&#x109;" horiz-adv-x="363" 
d="M310 419l-92 99l-93 -99h-52v15l100 143h89l100 -143v-15h-52zM225 -8q-84 0 -138 50.5t-54 129.5q0 80 54 131t138 51q33 0 61.5 -7.5t40.5 -14.5l12 -8l-24 -61q-32 23 -83 23q-50 0 -83.5 -31.5t-33.5 -82.5t33.5 -81.5t83.5 -30.5q23 0 43.5 6t30.5 12l9 5l22 -61
q-37 -30 -112 -30z" />
    <glyph glyph-name="Cdotaccent" unicode="&#x10a;" horiz-adv-x="589" 
d="M517 126l47 -64l-8 -8t-24.5 -18.5t-41.5 -23.5t-58.5 -18t-76.5 -8q-139 0 -226.5 90t-87.5 223q0 134 87.5 224t226.5 90q40 0 76.5 -8t59.5 -19t40.5 -22t24.5 -19l8 -8l-47 -64q-3 3 -7.5 7t-21 14.5t-34 19t-44.5 15t-54 6.5q-101 0 -166 -68t-65 -168
q0 -99 65 -167t166 -68q45 0 85 15.5t58 30.5zM294 750q0 25 16.5 42t41.5 17q24 0 40.5 -17t16.5 -42q0 -24 -16.5 -40.5t-40.5 -16.5q-25 0 -41.5 16.5t-16.5 40.5z" />
    <glyph glyph-name="cdotaccent" unicode="&#x10b;" horiz-adv-x="363" 
d="M225 -8q-84 0 -138 50.5t-54 129.5q0 80 54 131t138 51q33 0 61.5 -7.5t40.5 -14.5l12 -8l-24 -61q-32 23 -83 23q-50 0 -83.5 -31.5t-33.5 -82.5t33.5 -81.5t83.5 -30.5q23 0 43.5 6t30.5 12l9 5l22 -61q-37 -30 -112 -30zM168 510q0 25 16.5 42t41.5 17q24 0 40.5 -17
t16.5 -42q0 -24 -16.5 -40.5t-40.5 -16.5q-25 0 -41.5 16.5t-16.5 40.5z" />
    <glyph glyph-name="Ccaron" unicode="&#x10c;" horiz-adv-x="589" 
d="M350 712l92 99h52v-15l-100 -143h-89l-100 143v15h52zM517 126l47 -64l-8 -8t-24.5 -18.5t-41.5 -23.5t-58.5 -18t-76.5 -8q-139 0 -226.5 90t-87.5 223q0 134 87.5 224t226.5 90q40 0 76.5 -8t59.5 -19t40.5 -22t24.5 -19l8 -8l-47 -64q-3 3 -7.5 7t-21 14.5t-34 19
t-44.5 15t-54 6.5q-101 0 -166 -68t-65 -168q0 -99 65 -167t166 -68q45 0 85 15.5t58 30.5z" />
    <glyph glyph-name="ccaron" unicode="&#x10d;" horiz-adv-x="363" 
d="M214 478l92 99h52v-15l-100 -143h-89l-100 143v15h52zM225 -8q-84 0 -138 50.5t-54 129.5q0 80 54 131t138 51q33 0 61.5 -7.5t40.5 -14.5l12 -8l-24 -61q-32 23 -83 23q-50 0 -83.5 -31.5t-33.5 -82.5t33.5 -81.5t83.5 -30.5q23 0 43.5 6t30.5 12l9 5l22 -61
q-37 -30 -112 -30z" />
    <glyph glyph-name="Dcaron" unicode="&#x10e;" horiz-adv-x="660" 
d="M310 712l92 99h52v-15l-100 -143h-89l-100 143v15h52zM617 300q0 -136 -87.5 -218t-231.5 -82h-215v600h215q144 0 231.5 -82t87.5 -218zM292 525h-127v-450h127q106 0 173.5 60t67.5 165t-67.5 165t-173.5 60z" />
    <glyph glyph-name="dcaron" unicode="&#x10f;" horiz-adv-x="468" 
d="M455 616q0 23 16 38.5t42 15.5t42.5 -16.5t17.5 -43.5q0 -26 -20 -61l-27 -48h-58l24 40l16 20v3q-24 1 -38.5 16t-14.5 36zM326 306h3v362h82v-668h-56l-12 51h-4q-1 -2 -4 -6t-14 -14.5t-24.5 -18t-37 -14t-51.5 -6.5q-76 0 -125.5 49.5t-49.5 131.5q0 80 49 130.5
t123 50.5q41 0 71 -12t40 -24zM334 173q0 51 -31.5 82t-78.5 31t-77.5 -31.5t-30.5 -81.5q0 -49 30.5 -81t77.5 -32t78.5 31t31.5 82z" />
    <glyph glyph-name="Dcroat" unicode="&#x110;" horiz-adv-x="668" 
d="M16 270v59h75v271h215q144 0 231.5 -82t87.5 -218t-87.5 -218t-231.5 -82h-215v270h-75zM300 525h-127v-196h122v-59h-122v-195h127q106 0 173.5 60t67.5 165t-67.5 165t-173.5 60z" />
    <glyph glyph-name="dcroat" unicode="&#x111;" horiz-adv-x="468" 
d="M198 457v50h131v161h82v-161h55v-50h-55v-457h-56l-12 51h-4q-1 -2 -4 -6t-14 -14.5t-24.5 -18t-37 -14t-51.5 -6.5q-76 0 -125.5 49.5t-49.5 131.5q0 80 49 130.5t123 50.5q41 0 71 -12t40 -24l10 -12h3v151h-131zM334 173q0 51 -31.5 82t-78.5 31t-77.5 -31.5
t-30.5 -81.5q0 -49 30.5 -81t77.5 -32t78.5 31t31.5 82z" />
    <glyph glyph-name="Emacron" unicode="&#x112;" horiz-adv-x="567" 
d="M481 333v-73h-316v-185h364v-75h-446v600h446v-75h-364v-192h316zM180 687v52h267v-52h-267z" />
    <glyph glyph-name="emacron" unicode="&#x113;" horiz-adv-x="416" 
d="M333 85l28 -54q-5 -4 -14.5 -11t-43.5 -18t-73 -11q-89 0 -143 50.5t-54 130.5q0 79 51 130.5t132 51.5q79 0 125.5 -48.5t46.5 -125.5l-1 -24h-274q5 -49 37.5 -74.5t81.5 -25.5q29 0 54 7t36 15zM215 290q-38 0 -64.5 -21t-35.5 -60h193q-5 36 -30 58.5t-63 22.5z
M85 443v52h267v-52h-267z" />
    <glyph glyph-name="Ebreve" unicode="&#x114;" horiz-adv-x="567" 
d="M481 333v-73h-316v-185h364v-75h-446v600h446v-75h-364v-192h316zM379 806h64q0 -54 -36.5 -91.5t-93.5 -37.5t-93.5 37.5t-36.5 91.5h64q0 -30 18.5 -49t47.5 -19q28 0 47 19.5t19 48.5z" />
    <glyph glyph-name="ebreve" unicode="&#x115;" horiz-adv-x="416" 
d="M333 85l28 -54q-5 -4 -14.5 -11t-43.5 -18t-73 -11q-89 0 -143 50.5t-54 130.5q0 79 51 130.5t132 51.5q79 0 125.5 -48.5t46.5 -125.5l-1 -24h-274q5 -49 37.5 -74.5t81.5 -25.5q29 0 54 7t36 15zM215 290q-38 0 -64.5 -21t-35.5 -60h193q-5 36 -30 58.5t-63 22.5z
M283 581h64q0 -54 -36.5 -91.5t-93.5 -37.5t-93.5 37.5t-36.5 91.5h64q0 -30 18.5 -49t47.5 -19q28 0 47 19.5t19 48.5z" />
    <glyph glyph-name="Edotaccent" unicode="&#x116;" horiz-adv-x="567" 
d="M481 333v-73h-316v-185h364v-75h-446v600h446v-75h-364v-192h316zM257 735q0 25 16.5 42t41.5 17q24 0 40.5 -17t16.5 -42q0 -24 -16.5 -40.5t-40.5 -16.5q-25 0 -41.5 16.5t-16.5 40.5z" />
    <glyph glyph-name="edotaccent" unicode="&#x117;" horiz-adv-x="416" 
d="M333 85l28 -54q-5 -4 -14.5 -11t-43.5 -18t-73 -11q-89 0 -143 50.5t-54 130.5q0 79 51 130.5t132 51.5q79 0 125.5 -48.5t46.5 -125.5l-1 -24h-274q5 -49 37.5 -74.5t81.5 -25.5q29 0 54 7t36 15zM215 290q-38 0 -64.5 -21t-35.5 -60h193q-5 36 -30 58.5t-63 22.5z
M160 510q0 25 16.5 42t41.5 17q24 0 40.5 -17t16.5 -42q0 -24 -16.5 -40.5t-40.5 -16.5q-25 0 -41.5 16.5t-16.5 40.5z" />
    <glyph glyph-name="Eogonek" unicode="&#x118;" horiz-adv-x="567" 
d="M481 333v-73h-316v-185h364v-75h-40l-2 -1q-2 -1 -4.5 -2t-6 -2.5t-7 -4t-7.5 -5.5l-8 -6t-7 -7.5t-5.5 -9t-4 -9.5t-1.5 -11q0 -34 36 -34q9 0 17.5 3.5t12.5 6.5l4 4l25 -33q-23 -27 -67 -27q-36 0 -56.5 19t-20.5 51q0 40 38 68h-342v600h446v-75h-364v-192h316z" />
    <glyph glyph-name="eogonek" unicode="&#x119;" horiz-adv-x="416" 
d="M333 85l28 -54q-19 -16 -53 -28q-16 -6 -31 -20t-15 -35q0 -34 36 -34q9 0 17.5 3.5t12.5 6.5l4 4l25 -33q-23 -27 -67 -27q-36 0 -56.5 19t-20.5 51q0 30 21 53h-4q-89 0 -143 50.5t-54 130.5q0 79 51 130.5t132 51.5q79 0 125.5 -48.5t46.5 -125.5l-1 -24h-274
q5 -49 37.5 -74.5t81.5 -25.5q29 0 54 7t36 15zM215 290q-38 0 -64.5 -21t-35.5 -60h193q-5 36 -30 58.5t-63 22.5z" />
    <glyph glyph-name="Ecaron" unicode="&#x11a;" horiz-adv-x="567" 
d="M310 704l92 99h52v-15l-100 -143h-89l-100 143v15h52zM481 333v-73h-316v-185h364v-75h-446v600h446v-75h-364v-192h316z" />
    <glyph glyph-name="ecaron" unicode="&#x11b;" horiz-adv-x="416" 
d="M216 478l92 99h52v-15l-100 -143h-89l-100 143v15h52zM333 85l28 -54q-5 -4 -14.5 -11t-43.5 -18t-73 -11q-89 0 -143 50.5t-54 130.5q0 79 51 130.5t132 51.5q79 0 125.5 -48.5t46.5 -125.5l-1 -24h-274q5 -49 37.5 -74.5t81.5 -25.5q29 0 54 7t36 15zM215 290
q-38 0 -64.5 -21t-35.5 -60h193q-5 36 -30 58.5t-63 22.5z" />
    <glyph glyph-name="Gcircumflex" unicode="&#x11c;" horiz-adv-x="666" 
d="M445 637l-92 99l-93 -99h-52v15l100 143h89l100 -143v-15h-52zM337 260v73h297v-46q0 -138 -74.5 -219.5t-207.5 -81.5q-141 0 -226 89.5t-85 223.5q0 135 86.5 224.5t227.5 89.5q43 0 82 -8t63.5 -19.5t43 -23t26.5 -19.5l8 -8l-49 -63q-7 7 -20.5 17.5t-59 28
t-94.5 17.5q-103 0 -166.5 -67.5t-63.5 -168.5t61.5 -168t164.5 -67q87 0 141.5 52t56.5 136v8h-212z" />
    <glyph glyph-name="gcircumflex" unicode="&#x11d;" horiz-adv-x="414" 
d="M306 419l-92 99l-93 -99h-52v15l100 143h89l100 -143v-15h-52zM218 -237q-91 0 -140 35t-49 92q0 67 64 97v5q-59 25 -59 77q0 50 56 79q-24 30 -24 74q0 57 41 94t104 37l183 -8v-58h-60v-5q22 -14 22 -64q0 -51 -40 -87t-105 -36q-43 0 -77 17q-28 -13 -28 -35
q0 -21 24 -32t88 -11q190 0 190 -132q0 -61 -50 -100t-140 -39zM218 -31q-53 0 -82 -20.5t-29 -51.5t28.5 -51.5t82.5 -20.5t82 20t28 52q0 31 -28 51.5t-82 20.5zM211 291q-36 0 -56.5 -19.5t-20.5 -48.5q0 -30 20.5 -49t56.5 -19t56.5 19t20.5 49q0 29 -20.5 48.5
t-56.5 19.5z" />
    <glyph glyph-name="Gbreve" unicode="&#x11e;" horiz-adv-x="666" 
d="M337 260v73h297v-46q0 -138 -74.5 -219.5t-207.5 -81.5q-141 0 -226 89.5t-85 223.5q0 135 86.5 224.5t227.5 89.5q43 0 82 -8t63.5 -19.5t43 -23t26.5 -19.5l8 -8l-49 -63q-7 7 -20.5 17.5t-59 28t-94.5 17.5q-103 0 -166.5 -67.5t-63.5 -168.5t61.5 -168t164.5 -67
q87 0 141.5 52t56.5 136v8h-212zM418 806h64q0 -54 -36.5 -91.5t-93.5 -37.5t-93.5 37.5t-36.5 91.5h64q0 -30 18.5 -49t47.5 -19q28 0 47 19.5t19 48.5z" />
    <glyph glyph-name="gbreve" unicode="&#x11f;" horiz-adv-x="414" 
d="M218 -237q-91 0 -140 35t-49 92q0 67 64 97v5q-59 25 -59 77q0 50 56 79q-24 30 -24 74q0 57 41 94t104 37l183 -8v-58h-60v-5q22 -14 22 -64q0 -51 -40 -87t-105 -36q-43 0 -77 17q-28 -13 -28 -35q0 -21 24 -32t88 -11q190 0 190 -132q0 -61 -50 -100t-140 -39z
M218 -31q-53 0 -82 -20.5t-29 -51.5t28.5 -51.5t82.5 -20.5t82 20t28 52q0 31 -28 51.5t-82 20.5zM211 291q-36 0 -56.5 -19.5t-20.5 -48.5q0 -30 20.5 -49t56.5 -19t56.5 19t20.5 49q0 29 -20.5 48.5t-56.5 19.5zM278 581h64q0 -54 -36.5 -91.5t-93.5 -37.5t-93.5 37.5
t-36.5 91.5h64q0 -30 18.5 -49t47.5 -19q28 0 47 19.5t19 48.5z" />
    <glyph glyph-name="Gdotaccent" unicode="&#x120;" horiz-adv-x="666" 
d="M337 260v73h297v-46q0 -138 -74.5 -219.5t-207.5 -81.5q-141 0 -226 89.5t-85 223.5q0 135 86.5 224.5t227.5 89.5q43 0 82 -8t63.5 -19.5t43 -23t26.5 -19.5l8 -8l-49 -63q-7 7 -20.5 17.5t-59 28t-94.5 17.5q-103 0 -166.5 -67.5t-63.5 -168.5t61.5 -168t164.5 -67
q87 0 141.5 52t56.5 136v8h-212zM292 735q0 25 16.5 42t41.5 17q24 0 40.5 -17t16.5 -42q0 -24 -16.5 -40.5t-40.5 -16.5q-25 0 -41.5 16.5t-16.5 40.5z" />
    <glyph glyph-name="gdotaccent" unicode="&#x121;" horiz-adv-x="414" 
d="M218 -237q-91 0 -140 35t-49 92q0 67 64 97v5q-59 25 -59 77q0 50 56 79q-24 30 -24 74q0 57 41 94t104 37l183 -8v-58h-60v-5q22 -14 22 -64q0 -51 -40 -87t-105 -36q-43 0 -77 17q-28 -13 -28 -35q0 -21 24 -32t88 -11q190 0 190 -132q0 -61 -50 -100t-140 -39z
M218 -31q-53 0 -82 -20.5t-29 -51.5t28.5 -51.5t82.5 -20.5t82 20t28 52q0 31 -28 51.5t-82 20.5zM211 291q-36 0 -56.5 -19.5t-20.5 -48.5q0 -30 20.5 -49t56.5 -19t56.5 19t20.5 49q0 29 -20.5 48.5t-56.5 19.5zM155 510q0 25 16.5 42t41.5 17q24 0 40.5 -17t16.5 -42
q0 -24 -16.5 -40.5t-40.5 -16.5q-25 0 -41.5 16.5t-16.5 40.5z" />
    <glyph glyph-name="Gcommaaccent" unicode="&#x122;" horiz-adv-x="666" 
d="M293 -90q0 23 16 38.5t42 15.5t42.5 -16.5t17.5 -43.5q0 -26 -20 -61l-27 -48h-58l24 40l16 20v3q-24 1 -38.5 16t-14.5 36zM337 260v73h297v-46q0 -138 -74.5 -219.5t-207.5 -81.5q-141 0 -226 89.5t-85 223.5q0 135 86.5 224.5t227.5 89.5q43 0 82 -8t63.5 -19.5
t43 -23t26.5 -19.5l8 -8l-49 -63q-7 7 -20.5 17.5t-59 28t-94.5 17.5q-103 0 -166.5 -67.5t-63.5 -168.5t61.5 -168t164.5 -67q87 0 141.5 52t56.5 136v8h-212z" />
    <glyph glyph-name="gcommaaccent" unicode="&#x123;" horiz-adv-x="414" 
d="M270 475q0 -23 -16 -38.5t-42 -15.5t-42.5 16.5t-17.5 43.5q0 26 20 61l27 48h58l-24 -40l-16 -20v-3q24 -1 38.5 -16t14.5 -36zM218 -237q-91 0 -140 35t-49 92q0 67 64 97v5q-59 25 -59 77q0 50 56 79q-24 30 -24 74q0 57 41 94t104 37l183 -8v-58h-60v-5
q22 -14 22 -64q0 -51 -40 -87t-105 -36q-43 0 -77 17q-28 -13 -28 -35q0 -21 24 -32t88 -11q190 0 190 -132q0 -61 -50 -100t-140 -39zM218 -31q-53 0 -82 -20.5t-29 -51.5t28.5 -51.5t82.5 -20.5t82 20t28 52q0 31 -28 51.5t-82 20.5zM211 291q-36 0 -56.5 -19.5
t-20.5 -48.5q0 -30 20.5 -49t56.5 -19t56.5 19t20.5 49q0 29 -20.5 48.5t-56.5 19.5z" />
    <glyph glyph-name="Hcircumflex" unicode="&#x124;" horiz-adv-x="675" 
d="M426 638l-92 99l-93 -99h-52v15l100 143h89l100 -143v-15h-52zM593 600v-600h-83v258h-345v-258h-82v600h82v-268h345v268h83z" />
    <glyph glyph-name="hcircumflex" unicode="&#x125;" horiz-adv-x="459" 
d="M325 717l-92 99l-93 -99h-52v15l100 143h89l100 -143v-15h-52zM57 0v668h82v-354h3q42 40 112 40q71 0 111.5 -42t40.5 -113v-199h-81v188q0 44 -24 71t-67 27q-44 0 -68 -24.5t-27 -56.5v-205h-82z" />
    <glyph glyph-name="Hbar" unicode="&#x126;" horiz-adv-x="682" 
d="M597 600v-97h31v-57h-31v-446h-83v258h-345v-258h-82v446h-35v57h35v97h82v-97h345v97h83zM169 332h345v114h-345v-114z" />
    <glyph glyph-name="hbar" unicode="&#x127;" horiz-adv-x="459" 
d="M3 457v50h54v161h82v-161h132v-50h-132v-143h3q42 40 112 40q71 0 111.5 -42t40.5 -113v-199h-81v188q0 44 -24 71t-67 27q-44 0 -68 -24.5t-27 -56.5v-205h-82v457h-54z" />
    <glyph glyph-name="Itilde" unicode="&#x128;" horiz-adv-x="248" 
d="M165 600v-600h-82v600h82zM194 660q-30 0 -71 22.5t-57 22.5t-24 -8.5t-13 -25.5l-4 -13l-58 6l5 26q16 78 85 78q30 0 70 -22.5t57 -22.5q31 0 38 33l3 13l58 -5l-4 -26q-15 -78 -85 -78z" />
    <glyph glyph-name="itilde" unicode="&#x129;" horiz-adv-x="198" 
d="M58 0v346h82v-346h-82zM167 439q-30 0 -71 22.5t-57 22.5t-24 -8.5t-13 -25.5l-4 -13l-58 6l5 26q16 78 85 78q30 0 70 -22.5t57 -22.5q31 0 38 33l3 13l58 -5l-4 -26q-15 -78 -85 -78z" />
    <glyph glyph-name="Imacron" unicode="&#x12a;" horiz-adv-x="248" 
d="M165 600v-600h-82v600h82zM-10 663v52h267v-52h-267z" />
    <glyph glyph-name="imacron" unicode="&#x12b;" horiz-adv-x="198" 
d="M58 0v346h82v-346h-82zM-35 443v52h267v-52h-267z" />
    <glyph glyph-name="Ibreve" unicode="&#x12c;" horiz-adv-x="248" 
d="M165 600v-600h-82v600h82zM191 806h64q0 -54 -36.5 -91.5t-93.5 -37.5t-93.5 37.5t-36.5 91.5h64q0 -30 18.5 -49t47.5 -19q28 0 47 19.5t19 48.5z" />
    <glyph glyph-name="ibreve" unicode="&#x12d;" horiz-adv-x="198" 
d="M58 0v346h82v-346h-82zM165 581h64q0 -54 -36.5 -91.5t-93.5 -37.5t-93.5 37.5t-36.5 91.5h64q0 -30 18.5 -49t47.5 -19q28 0 47 19.5t19 48.5z" />
    <glyph glyph-name="Iogonek" unicode="&#x12e;" horiz-adv-x="248" 
d="M181 -78l25 -33q-23 -27 -67 -27q-36 0 -56.5 19t-20.5 51q0 40 38 68h-17v600h82v-600q-6 -2 -15 -6t-24 -19t-15 -33q0 -34 36 -34q9 0 17.5 3.5t12.5 6.5z" />
    <glyph glyph-name="iogonek" unicode="&#x12f;" horiz-adv-x="199" 
d="M59 0v346h82v-346q-6 -2 -15 -6t-24 -19t-15 -33q0 -34 36 -34q9 0 17.5 3.5t12.5 6.5l4 4l25 -33q-23 -27 -67 -27q-36 0 -56.5 19t-20.5 51q0 40 38 68h-17zM100 478q-21 0 -35.5 14.5t-14.5 35.5t14.5 36t35.5 15t36 -15t15 -36t-15 -35.5t-36 -14.5z" />
    <glyph glyph-name="Idotaccent" unicode="&#x130;" horiz-adv-x="248" 
d="M165 600v-600h-82v600h82zM67 734q0 25 16.5 42t41.5 17q24 0 40.5 -17t16.5 -42q0 -24 -16.5 -40.5t-40.5 -16.5q-25 0 -41.5 16.5t-16.5 40.5z" />
    <glyph glyph-name="dotlessi" unicode="&#x131;" horiz-adv-x="199" 
d="M58 0v346h82v-346h-82z" />
    <glyph glyph-name="IJ" unicode="&#x132;" horiz-adv-x="768" 
d="M165 600v-600h-82v600h82zM331 35l39 65q47 -34 108 -34q130 0 130 146v388h83v-405q0 -99 -52.5 -154t-153.5 -55q-44 0 -82.5 12.5t-52 21.5t-19.5 15z" />
    <glyph glyph-name="ij" unicode="&#x133;" horiz-adv-x="448" 
d="M99 478q-21 0 -35.5 14.5t-14.5 35.5t14.5 36t35.5 15t36 -15t15 -36t-15 -35.5t-36 -14.5zM58 0v346h82v-346h-82zM222 -184l14 61q16 -9 34 -9q40 0 40 50v428h83v-431q0 -116 -104 -116q-19 0 -35.5 4.5t-23.5 8.5zM351 478q-21 0 -36 14.5t-15 35.5t15 36t36 15
t35.5 -15t14.5 -36t-14 -35.5t-36 -14.5z" />
    <glyph glyph-name="Jcircumflex" unicode="&#x134;" horiz-adv-x="459" 
d="M433 637l-92 99l-93 -99h-52v15l100 143h89l100 -143v-15h-52zM22 35l39 65q47 -34 108 -34q130 0 130 146v388h83v-405q0 -99 -52.5 -154t-153.5 -55q-44 0 -82.5 12.5t-52 21.5t-19.5 15z" />
    <glyph glyph-name="jcircumflex" unicode="&#x135;" horiz-adv-x="195" 
d="M-46 -180l23 61q18 -10 38 -10q41 0 41 55v420h83v-428q0 -119 -109 -119q-20 0 -39 5.5t-28 10.5zM191 419l-92 99l-93 -99h-52v15l100 143h89l100 -143v-15h-52z" />
    <glyph glyph-name="Kcommaaccent" unicode="&#x136;" horiz-adv-x="601" 
d="M262 -90q0 23 16 38.5t42 15.5t42.5 -16.5t17.5 -43.5q0 -26 -20 -61l-27 -48h-58l24 40l16 20v3q-24 1 -38.5 16t-14.5 36zM165 600v-320l321 320h100v-12l-239 -240l239 -336v-12h-97l-202 288l-122 -123v-165h-82v600h82z" />
    <glyph glyph-name="kcommaaccent" unicode="&#x137;" horiz-adv-x="401" 
d="M150 -90q0 23 16 38.5t42 15.5t42.5 -16.5t17.5 -43.5q0 -26 -20 -61l-27 -48h-58l24 40l16 20v3q-24 1 -38.5 16t-14.5 36zM278 346h96l-154 -169l176 -177h-109l-146 153h-3v-153h-82v668h82v-476h3z" />
    <glyph glyph-name="kgreenlandic" unicode="&#x138;" horiz-adv-x="402" 
d="M279 346h94l-153 -169l176 -177h-109l-147 153h-2v-153h-82v346h82v-154h2z" />
    <glyph glyph-name="Lacute" unicode="&#x139;" horiz-adv-x="520" 
d="M237 781l-87 -143h-52v15l43 143h96v-15zM508 0h-425v600h82v-525h343v-75z" />
    <glyph glyph-name="lacute" unicode="&#x13a;" horiz-adv-x="198" 
d="M211 860l-87 -143h-52v15l43 143h96v-15zM58 0v668h82v-668h-82z" />
    <glyph glyph-name="Lcommaaccent" unicode="&#x13b;" horiz-adv-x="520" 
d="M231 -90q0 23 16 38.5t42 15.5t42.5 -16.5t17.5 -43.5q0 -26 -20 -61l-27 -48h-58l24 40l16 20v3q-24 1 -38.5 16t-14.5 36zM508 0h-425v600h82v-525h343v-75z" />
    <glyph glyph-name="lcommaaccent" unicode="&#x13c;" horiz-adv-x="198" 
d="M43 -90q0 23 16 38.5t42 15.5t42.5 -16.5t17.5 -43.5q0 -26 -20 -61l-27 -48h-58l24 40l16 20v3q-24 1 -38.5 16t-14.5 36zM58 0v668h82v-668h-82z" />
    <glyph glyph-name="Lcaron" unicode="&#x13d;" horiz-adv-x="521" 
d="M324 546q0 23 16 38.5t42 15.5t42.5 -16.5t17.5 -43.5q0 -26 -20 -61l-27 -48h-58l24 40l16 20v3q-24 1 -38.5 16t-14.5 36zM508 0h-425v600h82v-525h343v-75z" />
    <glyph glyph-name="lcaron" unicode="&#x13e;" horiz-adv-x="198" 
d="M183 616q0 23 16 38.5t42 15.5t42.5 -16.5t17.5 -43.5q0 -26 -20 -61l-27 -48h-58l24 40l16 20v3q-24 1 -38.5 16t-14.5 36zM58 0v668h82v-668h-82z" />
    <glyph glyph-name="Ldot" unicode="&#x13f;" horiz-adv-x="521" 
d="M508 0h-425v600h82v-525h343v-75zM333 344q0 25 16.5 42t41.5 17q24 0 40.5 -17t16.5 -42q0 -24 -16.5 -40.5t-40.5 -16.5q-25 0 -41.5 16.5t-16.5 40.5z" />
    <glyph glyph-name="ldot" unicode="&#x140;" horiz-adv-x="311" 
d="M58 0v668h82v-668h-82zM196 290q0 25 16.5 42t41.5 17q24 0 40.5 -17t16.5 -42q0 -24 -16.5 -40.5t-40.5 -16.5q-25 0 -41.5 16.5t-16.5 40.5z" />
    <glyph glyph-name="Lslash" unicode="&#x141;" horiz-adv-x="529" 
d="M32 224l-23 39l83 48v289h82v-242l112 65l23 -40l-135 -78v-230h343v-75h-425v258z" />
    <glyph glyph-name="lslash" unicode="&#x142;" horiz-adv-x="265" 
d="M35 223l-22 36l89 51v358h82v-311l75 43l21 -36l-96 -56v-308h-82v261z" />
    <glyph glyph-name="Nacute" unicode="&#x143;" horiz-adv-x="696" 
d="M455 781l-87 -143h-52v15l43 143h96v-15zM614 600v-600h-23l-426 431v-431h-82v600h23l425 -426v426h83z" />
    <glyph glyph-name="nacute" unicode="&#x144;" horiz-adv-x="457" 
d="M356 562l-87 -143h-52v15l43 143h96v-15zM139 199v-199h-82v346h54l10 -49h4q39 57 127 57q72 0 113 -42t41 -113v-199h-81v188q0 43 -24 70.5t-67 27.5q-46 0 -70.5 -27t-24.5 -60z" />
    <glyph glyph-name="Ncommaaccent" unicode="&#x145;" horiz-adv-x="696" 
d="M303 -90q0 23 16 38.5t42 15.5t42.5 -16.5t17.5 -43.5q0 -26 -20 -61l-27 -48h-58l24 40l16 20v3q-24 1 -38.5 16t-14.5 36zM614 600v-600h-23l-426 431v-431h-82v600h23l425 -426v426h83z" />
    <glyph glyph-name="ncommaaccent" unicode="&#x146;" horiz-adv-x="457" 
d="M173 -90q0 23 16 38.5t42 15.5t42.5 -16.5t17.5 -43.5q0 -26 -20 -61l-27 -48h-58l24 40l16 20v3q-24 1 -38.5 16t-14.5 36zM139 199v-199h-82v346h54l10 -49h4q39 57 127 57q72 0 113 -42t41 -113v-199h-81v188q0 43 -24 70.5t-67 27.5q-46 0 -70.5 -27t-24.5 -60z" />
    <glyph glyph-name="Ncaron" unicode="&#x147;" horiz-adv-x="696" 
d="M350 697l92 99h52v-15l-100 -143h-89l-100 143v15h52zM614 600v-600h-23l-426 431v-431h-82v600h23l425 -426v426h83z" />
    <glyph glyph-name="ncaron" unicode="&#x148;" horiz-adv-x="457" 
d="M231 478l92 99h52v-15l-100 -143h-89l-100 143v15h52zM139 199v-199h-82v346h54l10 -49h4q39 57 127 57q72 0 113 -42t41 -113v-199h-81v188q0 43 -24 70.5t-67 27.5q-46 0 -70.5 -27t-24.5 -60z" />
    <glyph glyph-name="napostrophe" unicode="&#x149;" horiz-adv-x="457" 
d="M33 576q0 23 16 38.5t42 15.5t42.5 -16.5t17.5 -43.5q0 -26 -20 -61l-27 -48h-58l24 40l16 20v3q-24 1 -38.5 16t-14.5 36zM139 199v-199h-82v346h54l10 -49h4q39 57 127 57q72 0 113 -42t41 -113v-199h-81v188q0 43 -24 70.5t-67 27.5q-46 0 -70.5 -27t-24.5 -60z" />
    <glyph glyph-name="Eng" unicode="&#x14a;" horiz-adv-x="696" 
d="M614 600v-682q0 -119 -109 -119q-20 0 -39 5.5t-28 10.5l-9 5l22 61q18 -10 37 -10q43 0 43 53v136l-366 371v-431h-82v600h23l425 -426v426h83z" />
    <glyph glyph-name="eng" unicode="&#x14b;" horiz-adv-x="457" 
d="M139 199v-199h-82v346h54l10 -49h4q39 57 127 57q72 0 113 -42t41 -113v-277q0 -118 -108 -118q-20 0 -39 5t-27 10l-9 5l22 62q18 -11 38 -11q42 0 42 56v257q0 43 -24 70.5t-67 27.5q-46 0 -70.5 -27t-24.5 -60z" />
    <glyph glyph-name="Omacron" unicode="&#x14c;" horiz-adv-x="706" 
d="M218 673v52h267v-52h-267zM352 -14q-140 0 -225.5 89.5t-85.5 223.5q0 135 85.5 224.5t225.5 89.5q141 0 227 -89.5t86 -224.5q0 -134 -86 -223.5t-227 -89.5zM352 65q103 0 166 67t63 167q0 101 -63 168.5t-166 67.5q-101 0 -164 -68t-63 -168t63 -167t164 -67z" />
    <glyph glyph-name="omacron" unicode="&#x14d;" horiz-adv-x="446" 
d="M89 443v52h267v-52h-267zM414 171q0 -81 -55 -130t-136 -49t-135.5 49t-54.5 130q0 82 54.5 132.5t135.5 50.5t136 -51t55 -132zM223 58q47 0 79 31t32 83t-32 84t-79 32t-78.5 -32t-31.5 -84t31.5 -83t78.5 -31z" />
    <glyph glyph-name="Obreve" unicode="&#x14e;" horiz-adv-x="706" 
d="M352 -14q-140 0 -225.5 89.5t-85.5 223.5q0 135 85.5 224.5t225.5 89.5q141 0 227 -89.5t86 -224.5q0 -134 -86 -223.5t-227 -89.5zM352 65q103 0 166 67t63 167q0 101 -63 168.5t-166 67.5q-101 0 -164 -68t-63 -168t63 -167t164 -67zM418 807h64q0 -54 -36.5 -91.5
t-93.5 -37.5t-93.5 37.5t-36.5 91.5h64q0 -30 18.5 -49t47.5 -19q28 0 47 19.5t19 48.5z" />
    <glyph glyph-name="obreve" unicode="&#x14f;" horiz-adv-x="446" 
d="M414 171q0 -81 -55 -130t-136 -49t-135.5 49t-54.5 130q0 82 54.5 132.5t135.5 50.5t136 -51t55 -132zM223 58q47 0 79 31t32 83t-32 84t-79 32t-78.5 -32t-31.5 -84t31.5 -83t78.5 -31zM289 581h64q0 -54 -36.5 -91.5t-93.5 -37.5t-93.5 37.5t-36.5 91.5h64
q0 -30 18.5 -49t47.5 -19q28 0 47 19.5t19 48.5z" />
    <glyph glyph-name="Ohungarumlaut" unicode="&#x150;" horiz-adv-x="706" 
d="M371 780l-77 -143h-52v15l43 143h86v-15zM535 780l-77 -143h-53v15l43 143h87v-15zM352 -14q-140 0 -225.5 89.5t-85.5 223.5q0 135 85.5 224.5t225.5 89.5q141 0 227 -89.5t86 -224.5q0 -134 -86 -223.5t-227 -89.5zM352 65q103 0 166 67t63 167q0 101 -63 168.5
t-166 67.5q-101 0 -164 -68t-63 -168t63 -167t164 -67z" />
    <glyph glyph-name="ohungarumlaut" unicode="&#x151;" horiz-adv-x="446" 
d="M245 562l-77 -143h-52v15l43 143h86v-15zM409 562l-77 -143h-53v15l43 143h87v-15zM414 171q0 -81 -55 -130t-136 -49t-135.5 49t-54.5 130q0 82 54.5 132.5t135.5 50.5t136 -51t55 -132zM223 58q47 0 79 31t32 83t-32 84t-79 32t-78.5 -32t-31.5 -84t31.5 -83t78.5 -31z
" />
    <glyph glyph-name="OE" unicode="&#x152;" horiz-adv-x="1066" 
d="M352 -14q-140 0 -225.5 89.5t-85.5 223.5q0 135 85.5 224.5t225.5 89.5q142 0 230 -93v80h446v-75h-364v-192h316v-73h-316v-185h364v-75h-446v79q-88 -93 -230 -93zM352 65q103 0 166 67t63 167q0 101 -63 168.5t-166 67.5q-101 0 -164 -68t-63 -168t63 -167t164 -67z
" />
    <glyph glyph-name="oe" unicode="&#x153;" horiz-adv-x="718" 
d="M635 85l28 -54q-5 -4 -14.5 -11t-43.5 -18t-73 -11q-103 0 -158 66q-54 -65 -151 -65q-81 0 -135.5 49t-54.5 130q0 82 54.5 132.5t135.5 50.5q95 0 150 -66q53 66 145 66q79 0 125.5 -48.5t46.5 -125.5l-1 -24h-274q5 -49 37.5 -74.5t81.5 -25.5q29 0 54 7t36 15z
M223 58q47 0 79 31t32 83t-32 84t-79 32t-78.5 -32t-31.5 -84t31.5 -83t78.5 -31zM517 290q-38 0 -64.5 -21t-35.5 -60h193q-5 36 -30 58.5t-63 22.5z" />
    <glyph glyph-name="Racute" unicode="&#x154;" horiz-adv-x="631" 
d="M407 781l-87 -143h-52v15l43 143h96v-15zM334 600q114 0 178 -52.5t64 -149.5q0 -70 -36 -117.5t-99 -69.5v-4l155 -191v-16h-91l-157 195h-183v-195h-82v600h251zM490 396q0 64 -42 96.5t-116 32.5h-167v-256h175q69 0 109.5 32t40.5 95z" />
    <glyph glyph-name="racute" unicode="&#x155;" horiz-adv-x="298" 
d="M271 562l-87 -143h-52v15l43 143h96v-15zM296 329l-29 -64q-16 11 -46 11q-32 0 -56.5 -21t-24.5 -55v-200h-82v346h54l10 -49h4q33 50 101 50q20 0 37.5 -4.5t24.5 -8.5z" />
    <glyph glyph-name="Rcommaaccent" unicode="&#x156;" horiz-adv-x="631" 
d="M263 -90q0 23 16 38.5t42 15.5t42.5 -16.5t17.5 -43.5q0 -26 -20 -61l-27 -48h-58l24 40l16 20v3q-24 1 -38.5 16t-14.5 36zM334 600q114 0 178 -52.5t64 -149.5q0 -70 -36 -117.5t-99 -69.5v-4l155 -191v-16h-91l-157 195h-183v-195h-82v600h251zM490 396q0 64 -42 96.5
t-116 32.5h-167v-256h175q69 0 109.5 32t40.5 95z" />
    <glyph glyph-name="rcommaaccent" unicode="&#x157;" horiz-adv-x="298" 
d="M43 -90q0 23 16 38.5t42 15.5t42.5 -16.5t17.5 -43.5q0 -26 -20 -61l-27 -48h-58l24 40l16 20v3q-24 1 -38.5 16t-14.5 36zM296 329l-29 -64q-16 11 -46 11q-32 0 -56.5 -21t-24.5 -55v-200h-82v346h54l10 -49h4q33 50 101 50q20 0 37.5 -4.5t24.5 -8.5z" />
    <glyph glyph-name="Rcaron" unicode="&#x158;" horiz-adv-x="631" 
d="M303 702l92 99h52v-15l-100 -143h-89l-100 143v15h52zM334 600q114 0 178 -52.5t64 -149.5q0 -70 -36 -117.5t-99 -69.5v-4l155 -191v-16h-91l-157 195h-183v-195h-82v600h251zM490 396q0 64 -42 96.5t-116 32.5h-167v-256h175q69 0 109.5 32t40.5 95z" />
    <glyph glyph-name="rcaron" unicode="&#x159;" horiz-adv-x="298" 
d="M174 478l92 99h52v-15l-100 -143h-89l-100 143v15h52zM296 329l-29 -64q-16 11 -46 11q-32 0 -56.5 -21t-24.5 -55v-200h-82v346h54l10 -49h4q33 50 101 50q20 0 37.5 -4.5t24.5 -8.5z" />
    <glyph glyph-name="Sacute" unicode="&#x15a;" horiz-adv-x="537" 
d="M383 781l-87 -143h-52v15l43 143h96v-15zM42 59l45 62q7 -6 21.5 -16t61 -26t97.5 -16q73 0 108.5 25.5t35.5 69.5q0 39 -33 62.5t-125 49.5q-112 32 -160.5 71t-48.5 107q0 77 59.5 121t165.5 44q67 0 121 -14.5t74 -28.5l21 -15l-45 -68q-7 5 -20 13.5t-57.5 22
t-93.5 13.5q-62 0 -100 -23t-38 -64q0 -34 33.5 -55t124.5 -46q116 -32 163 -75t47 -112q0 -79 -58 -127t-173 -48q-43 0 -82.5 7.5t-64.5 18t-44 21.5t-27 19z" />
    <glyph glyph-name="sacute" unicode="&#x15b;" horiz-adv-x="378" 
d="M298 562l-87 -143h-52v15l43 143h96v-15zM31 32l29 57q54 -34 124 -34q79 0 79 42q0 21 -35.5 34.5t-77.5 21t-77.5 32t-35.5 66.5q0 46 37 74.5t112 28.5q44 0 81.5 -7t52.5 -14l16 -7l-28 -64q-40 29 -113 29q-77 0 -77 -39q0 -21 35.5 -33.5t78.5 -19.5t78.5 -32.5
t35.5 -68.5q0 -47 -39.5 -76.5t-119.5 -29.5q-48 0 -87 10t-54 20z" />
    <glyph glyph-name="Scircumflex" unicode="&#x15c;" horiz-adv-x="537" 
d="M358 643l-92 99l-93 -99h-52v15l100 143h89l100 -143v-15h-52zM42 59l45 62q7 -6 21.5 -16t61 -26t97.5 -16q73 0 108.5 25.5t35.5 69.5q0 39 -33 62.5t-125 49.5q-112 32 -160.5 71t-48.5 107q0 77 59.5 121t165.5 44q67 0 121 -14.5t74 -28.5l21 -15l-45 -68
q-7 5 -20 13.5t-57.5 22t-93.5 13.5q-62 0 -100 -23t-38 -64q0 -34 33.5 -55t124.5 -46q116 -32 163 -75t47 -112q0 -79 -58 -127t-173 -48q-43 0 -82.5 7.5t-64.5 18t-44 21.5t-27 19z" />
    <glyph glyph-name="scircumflex" unicode="&#x15d;" horiz-adv-x="378" 
d="M281 419l-92 99l-93 -99h-52v15l100 143h89l100 -143v-15h-52zM31 32l29 57q54 -34 124 -34q79 0 79 42q0 21 -35.5 34.5t-77.5 21t-77.5 32t-35.5 66.5q0 46 37 74.5t112 28.5q44 0 81.5 -7t52.5 -14l16 -7l-28 -64q-40 29 -113 29q-77 0 -77 -39q0 -21 35.5 -33.5
t78.5 -19.5t78.5 -32.5t35.5 -68.5q0 -47 -39.5 -76.5t-119.5 -29.5q-48 0 -87 10t-54 20z" />
    <glyph glyph-name="Scedilla" unicode="&#x15e;" horiz-adv-x="537" 
d="M243 -66l-16 20l16 33q-61 3 -111.5 21t-69.5 34l-20 17l45 62q7 -6 21.5 -16t61 -26t97.5 -16q73 0 108.5 25.5t35.5 69.5q0 39 -33 62.5t-125 49.5q-112 32 -160.5 71t-48.5 107q0 77 59.5 121t165.5 44q67 0 121 -14.5t74 -28.5l21 -15l-45 -68q-7 5 -20 13.5
t-57.5 22t-93.5 13.5q-62 0 -100 -23t-38 -64q0 -34 33.5 -55t124.5 -46q116 -32 163 -75t47 -112q0 -75 -53 -122.5t-159 -51.5l-7 -17q30 0 48.5 -16.5t18.5 -46.5q0 -32 -21.5 -52t-60.5 -20q-24 0 -43 7.5t-26 15.5l-8 7l18 32q22 -21 57 -21q41 0 41 32q0 15 -11 23.5
t-28 8.5q-6 0 -11.5 -1.5t-7.5 -2.5z" />
    <glyph glyph-name="scedilla" unicode="&#x15f;" horiz-adv-x="378" 
d="M160 -66l-16 20l19 39q-40 2 -73 12t-46 19l-13 8l29 57q54 -34 124 -34q79 0 79 42q0 21 -35.5 34.5t-77.5 21t-77.5 32t-35.5 66.5q0 46 37 74.5t112 28.5q44 0 81.5 -7t52.5 -14l16 -7l-28 -64q-40 29 -113 29q-77 0 -77 -39q0 -21 35.5 -33.5t78.5 -19.5t78.5 -32.5
t35.5 -68.5q0 -44 -34.5 -72.5t-104.5 -32.5l-10 -23q30 0 48.5 -16.5t18.5 -46.5q0 -32 -21.5 -52t-60.5 -20q-24 0 -43 7.5t-27 15.5l-7 7l18 32q22 -21 57 -21q41 0 41 32q0 15 -10.5 23.5t-28.5 8.5q-6 0 -11.5 -1.5t-8.5 -2.5z" />
    <glyph glyph-name="Scaron" unicode="&#x160;" horiz-adv-x="537" 
d="M267 697l92 99h52v-15l-100 -143h-89l-100 143v15h52zM42 59l45 62q7 -6 21.5 -16t61 -26t97.5 -16q73 0 108.5 25.5t35.5 69.5q0 39 -33 62.5t-125 49.5q-112 32 -160.5 71t-48.5 107q0 77 59.5 121t165.5 44q67 0 121 -14.5t74 -28.5l21 -15l-45 -68q-7 5 -20 13.5
t-57.5 22t-93.5 13.5q-62 0 -100 -23t-38 -64q0 -34 33.5 -55t124.5 -46q116 -32 163 -75t47 -112q0 -79 -58 -127t-173 -48q-43 0 -82.5 7.5t-64.5 18t-44 21.5t-27 19z" />
    <glyph glyph-name="scaron" unicode="&#x161;" horiz-adv-x="378" 
d="M189 478l92 99h52v-15l-100 -143h-89l-100 143v15h52zM31 32l29 57q54 -34 124 -34q79 0 79 42q0 21 -35.5 34.5t-77.5 21t-77.5 32t-35.5 66.5q0 46 37 74.5t112 28.5q44 0 81.5 -7t52.5 -14l16 -7l-28 -64q-40 29 -113 29q-77 0 -77 -39q0 -21 35.5 -33.5t78.5 -19.5
t78.5 -32.5t35.5 -68.5q0 -47 -39.5 -76.5t-119.5 -29.5q-48 0 -87 10t-54 20z" />
    <glyph glyph-name="Tcommaaccent" unicode="&#x162;" horiz-adv-x="527" 
d="M203 -90q0 23 16 38.5t42 15.5t42.5 -16.5t17.5 -43.5q0 -26 -20 -61l-27 -48h-58l24 40l16 20v3q-24 1 -38.5 16t-14.5 36zM15 525v75h497v-75h-208v-525h-82v525h-207z" />
    <glyph glyph-name="tcommaaccent" unicode="&#x163;" horiz-adv-x="320" 
d="M112 -90q0 23 16 38.5t42 15.5t42.5 -16.5t17.5 -43.5q0 -26 -20 -61l-27 -48h-58l24 40l16 20v3q-24 1 -38.5 16t-14.5 36zM16 346h67v104h81v-104h129v-66h-129v-136q0 -83 70 -83q12 0 23.5 3.5t17.5 7.5l6 3l27 -56q-31 -27 -86 -27q-67 0 -103 38.5t-36 110.5v139
h-67v66z" />
    <glyph glyph-name="Tcaron" unicode="&#x164;" horiz-adv-x="527" 
d="M264 702l92 99h52v-15l-100 -143h-89l-100 143v15h52zM15 525v75h497v-75h-208v-525h-82v525h-207z" />
    <glyph glyph-name="tcaron" unicode="&#x165;" horiz-adv-x="320" 
d="M249 576q0 23 16 38.5t42 15.5t42.5 -16.5t17.5 -43.5q0 -26 -20 -61l-27 -48h-58l24 40l16 20v3q-24 1 -38.5 16t-14.5 36zM16 346h67v104h81v-104h129v-66h-129v-136q0 -83 70 -83q12 0 23.5 3.5t17.5 7.5l6 3l27 -56q-31 -27 -86 -27q-67 0 -103 38.5t-36 110.5v139
h-67v66z" />
    <glyph glyph-name="Tbar" unicode="&#x166;" horiz-adv-x="532" 
d="M18 525v75h497v-75h-208v-190h101v-57h-101v-278h-82v278h-100v57h100v190h-207z" />
    <glyph glyph-name="tbar" unicode="&#x167;" horiz-adv-x="324" 
d="M19 346h67v104h81v-104h129v-66h-129v-63h102v-56h-102v-17q0 -83 70 -83q12 0 23.5 3.5t17.5 7.5l6 3l27 -56q-31 -27 -86 -27q-67 0 -103 38.5t-36 110.5v20h-65v56h65v63h-67v66z" />
    <glyph glyph-name="Utilde" unicode="&#x168;" horiz-adv-x="659" 
d="M330 -14q-119 0 -187.5 73.5t-68.5 192.5v348h82v-348q0 -84 45 -135.5t129 -51.5t128.5 51.5t44.5 135.5v348h83v-348q0 -119 -68 -192.5t-188 -73.5zM399 690q-30 0 -71 22.5t-57 22.5t-24 -8.5t-13 -25.5l-4 -13l-58 6l5 26q16 78 85 78q30 0 70 -22.5t57 -22.5
q31 0 38 33l3 13l58 -5l-4 -26q-15 -78 -85 -78z" />
    <glyph glyph-name="utilde" unicode="&#x169;" horiz-adv-x="455" 
d="M399 346v-346h-54l-14 48h-4q-6 -11 -17.5 -22t-40.5 -22.5t-66 -11.5q-72 0 -112 42t-40 113v199h82v-188q0 -44 22.5 -71t65.5 -27q44 0 70 26t26 59v201h82zM301 439q-30 0 -71 22.5t-57 22.5t-24 -8.5t-13 -25.5l-4 -13l-58 6l5 26q16 78 85 78q30 0 70 -22.5
t57 -22.5q31 0 38 33l3 13l58 -5l-4 -26q-15 -78 -85 -78z" />
    <glyph glyph-name="Umacron" unicode="&#x16a;" horiz-adv-x="659" 
d="M330 -14q-119 0 -187.5 73.5t-68.5 192.5v348h82v-348q0 -84 45 -135.5t129 -51.5t128.5 51.5t44.5 135.5v348h83v-348q0 -119 -68 -192.5t-188 -73.5zM196 674v52h267v-52h-267z" />
    <glyph glyph-name="umacron" unicode="&#x16b;" horiz-adv-x="455" 
d="M399 346v-346h-54l-14 48h-4q-6 -11 -17.5 -22t-40.5 -22.5t-66 -11.5q-72 0 -112 42t-40 113v199h82v-188q0 -44 22.5 -71t65.5 -27q44 0 70 26t26 59v201h82zM94 443v52h267v-52h-267z" />
    <glyph glyph-name="Ubreve" unicode="&#x16c;" horiz-adv-x="659" 
d="M330 -14q-119 0 -187.5 73.5t-68.5 192.5v348h82v-348q0 -84 45 -135.5t129 -51.5t128.5 51.5t44.5 135.5v348h83v-348q0 -119 -68 -192.5t-188 -73.5zM396 807h64q0 -54 -36.5 -91.5t-93.5 -37.5t-93.5 37.5t-36.5 91.5h64q0 -30 18.5 -49t47.5 -19q28 0 47 19.5
t19 48.5z" />
    <glyph glyph-name="ubreve" unicode="&#x16d;" horiz-adv-x="455" 
d="M399 346v-346h-54l-14 48h-4q-6 -11 -17.5 -22t-40.5 -22.5t-66 -11.5q-72 0 -112 42t-40 113v199h82v-188q0 -44 22.5 -71t65.5 -27q44 0 70 26t26 59v201h82zM294 581h64q0 -54 -36.5 -91.5t-93.5 -37.5t-93.5 37.5t-36.5 91.5h64q0 -30 18.5 -49t47.5 -19
q28 0 47 19.5t19 48.5z" />
    <glyph glyph-name="Uring" unicode="&#x16e;" horiz-adv-x="659" 
d="M330 635q-42 0 -70 27t-28 67t28 67t70 27q41 0 68.5 -27t27.5 -67t-27.5 -67t-68.5 -27zM373 729q0 20 -11.5 32t-31.5 12t-32.5 -12t-12.5 -32q0 -19 12.5 -31t32.5 -12t31.5 11.5t11.5 31.5zM330 -14q-119 0 -187.5 73.5t-68.5 192.5v348h82v-348q0 -84 45 -135.5
t129 -51.5t128.5 51.5t44.5 135.5v348h83v-348q0 -119 -68 -192.5t-188 -73.5z" />
    <glyph glyph-name="uring" unicode="&#x16f;" horiz-adv-x="455" 
d="M226 427q-42 0 -70 27t-28 67t28 67t70 27q41 0 68.5 -27t27.5 -67t-27.5 -67t-68.5 -27zM269 521q0 20 -11.5 32t-31.5 12t-32.5 -12t-12.5 -32q0 -19 12.5 -31t32.5 -12t31.5 11.5t11.5 31.5zM399 346v-346h-54l-14 48h-4q-6 -11 -17.5 -22t-40.5 -22.5t-66 -11.5
q-72 0 -112 42t-40 113v199h82v-188q0 -44 22.5 -71t65.5 -27q44 0 70 26t26 59v201h82z" />
    <glyph glyph-name="Uhungarumlaut" unicode="&#x170;" horiz-adv-x="659" 
d="M330 -14q-119 0 -187.5 73.5t-68.5 192.5v348h82v-348q0 -84 45 -135.5t129 -51.5t128.5 51.5t44.5 135.5v348h83v-348q0 -119 -68 -192.5t-188 -73.5zM349 781l-77 -143h-52v15l43 143h86v-15zM513 781l-77 -143h-53v15l43 143h87v-15z" />
    <glyph glyph-name="uhungarumlaut" unicode="&#x171;" horiz-adv-x="455" 
d="M399 346v-346h-54l-14 48h-4q-6 -11 -17.5 -22t-40.5 -22.5t-66 -11.5q-72 0 -112 42t-40 113v199h82v-188q0 -44 22.5 -71t65.5 -27q44 0 70 26t26 59v201h82zM241 562l-77 -143h-52v15l43 143h86v-15zM405 562l-77 -143h-53v15l43 143h87v-15z" />
    <glyph glyph-name="Uogonek" unicode="&#x172;" horiz-adv-x="659" 
d="M378 -86l25 -33q-23 -27 -67 -27q-36 0 -56.5 19t-20.5 51q0 37 33 65q-102 11 -160 82.5t-58 180.5v348h82v-348q0 -84 45 -135.5t129 -51.5t128.5 51.5t44.5 135.5v348h83v-348q0 -114 -63 -186.5t-174 -78.5q-41 -21 -41 -53q0 -34 36 -34q9 0 17.5 3.5t12.5 6.5z" />
    <glyph glyph-name="uogonek" unicode="&#x173;" horiz-adv-x="455" 
d="M399 346v-346q-6 -2 -15 -6t-24 -19t-15 -33q0 -34 36 -34q9 0 17.5 3.5t12.5 6.5l4 4l25 -33q-23 -27 -67 -27q-36 0 -56.5 19t-20.5 51q0 47 47 74l-12 42h-4q-6 -11 -17.5 -22t-40.5 -22.5t-66 -11.5q-72 0 -112 42t-40 113v199h82v-188q0 -44 22.5 -71t65.5 -27
q44 0 70 26t26 59v201h82z" />
    <glyph glyph-name="Wcircumflex" unicode="&#x174;" horiz-adv-x="817" 
d="M500 643l-92 99l-93 -99h-52v15l100 143h89l100 -143v-15h-52zM266 203l118 397h49l117 -397l14 -52h6l15 55l135 394h87l-217 -600h-56l-117 394l-8 25h-5l-7 -25l-119 -394h-53l-217 600h86l137 -394l14 -55h6z" />
    <glyph glyph-name="wcircumflex" unicode="&#x175;" horiz-adv-x="588" 
d="M387 419l-92 99l-93 -99h-52v15l100 143h89l100 -143v-15h-52zM154 0l-142 346h87l78 -223q5 -13 6 -26h7q1 11 6 26l69 223h62l69 -223q3 -10 5 -26h7q1 10 7 26l78 223h83l-141 -346h-62l-69 211q-6 16 -7 33h-5q-2 -17 -7 -33l-70 -211h-61z" />
    <glyph glyph-name="Ycircumflex" unicode="&#x176;" 
d="M369 638l-92 99l-93 -99h-52v15l100 143h89l100 -143v-15h-52zM297 346l155 254h95l-231 -370v-230h-83v229l-230 371h96l157 -254l17 -37h6z" />
    <glyph glyph-name="ycircumflex" unicode="&#x177;" horiz-adv-x="409" 
d="M399 346l-252 -538h-86l106 215l-156 323h89l100 -223q5 -13 6 -26h5q1 13 6 26l98 223h84zM302 419l-92 99l-93 -99h-52v15l100 143h89l100 -143v-15h-52z" />
    <glyph glyph-name="Ydieresis" unicode="&#x178;" 
d="M138 705q0 19 14 33t33 14t33 -14t14 -33t-14 -33t-33 -14t-33 14t-14 33zM320 705q0 19 14 33t33 14t33 -14t14 -33t-14 -33t-33 -14t-33 14t-14 33zM297 346l155 254h95l-231 -370v-230h-83v229l-230 371h96l157 -254l17 -37h6z" />
    <glyph glyph-name="Zacute" unicode="&#x179;" horiz-adv-x="543" 
d="M369 781l-87 -143h-52v15l43 143h96v-15zM30 0v21l352 504h-340v75h473v-21l-345 -504h339v-75h-479z" />
    <glyph glyph-name="zacute" unicode="&#x17a;" horiz-adv-x="382" 
d="M294 562l-87 -143h-52v15l43 143h96v-15zM350 0h-317v37l202 242h-201v67h316v-34l-202 -245h202v-67z" />
    <glyph glyph-name="Zdotaccent" unicode="&#x17b;" horiz-adv-x="543" 
d="M30 0v21l352 504h-340v75h473v-21l-345 -504h339v-75h-479zM216 734q0 25 16.5 42t41.5 17q24 0 40.5 -17t16.5 -42q0 -24 -16.5 -40.5t-40.5 -16.5q-25 0 -41.5 16.5t-16.5 40.5z" />
    <glyph glyph-name="zdotaccent" unicode="&#x17c;" horiz-adv-x="382" 
d="M350 0h-317v37l202 242h-201v67h316v-34l-202 -245h202v-67zM132 510q0 25 16.5 42t41.5 17q24 0 40.5 -17t16.5 -42q0 -24 -16.5 -40.5t-40.5 -16.5q-25 0 -41.5 16.5t-16.5 40.5z" />
    <glyph glyph-name="Zcaron" unicode="&#x17d;" horiz-adv-x="543" 
d="M265 696l92 99h52v-15l-100 -143h-89l-100 143v15h52zM30 0v21l352 504h-340v75h473v-21l-345 -504h339v-75h-479z" />
    <glyph glyph-name="zcaron" unicode="&#x17e;" horiz-adv-x="382" 
d="M194 478l92 99h52v-15l-100 -143h-89l-100 143v15h52zM350 0h-317v37l202 242h-201v67h316v-34l-202 -245h202v-67z" />
    <glyph glyph-name="florin" unicode="&#x192;" horiz-adv-x="345" 
d="M108 -74v356h-79v64h79v147q0 86 39.5 129.5t111.5 43.5q13 0 25.5 -1.5t21.5 -4.5t15.5 -5.5t10.5 -4.5l5 -2l-22 -70q-24 12 -45 12q-80 0 -80 -97v-147h130v-64h-130v-364q0 -119 -108 -119q-20 0 -39 5.5t-28 10.5l-9 5l22 61q19 -10 38 -10q42 0 42 55z" />
    <glyph glyph-name="Aringacute" unicode="&#x1fa;" horiz-adv-x="612" 
d="M-1 0l280 564q-32 8 -51.5 32.5t-19.5 58.5q0 40 28 67t70 27q41 0 68.5 -27t27.5 -67q0 -33 -19.5 -58t-50.5 -33l281 -564h-94l-49 98h-329l-49 -98h-93zM428 181l-118 257h-10l-117 -257l-6 -10h257zM418 908l-87 -143h-52v15l43 143h96v-15zM349 655q0 20 -11.5 32
t-31.5 12t-32.5 -12t-12.5 -32q0 -19 12.5 -31t32.5 -12t31.5 11.5t11.5 31.5z" />
    <glyph glyph-name="aringacute" unicode="&#x1fb;" horiz-adv-x="424" 
d="M28 103q0 47 39.5 76.5t115.5 29.5q69 0 105 -27h6v17q0 88 -109 88q-27 0 -52 -6.5t-37 -13.5l-11 -7l-27 61q47 33 142 33q89 0 131 -43.5t42 -119.5v-191h-58l-8 40h-5q-34 -48 -128 -48q-70 0 -108 31.5t-38 79.5zM108 105q0 -25 21.5 -40.5t62.5 -15.5t70.5 19.5
t29.5 38.5q0 23 -28 38t-72 15q-40 0 -62 -14.5t-22 -40.5zM326 780l-87 -143h-52v15l43 143h96v-15zM211 417q-42 0 -70 27t-28 67t28 67t70 27q41 0 68.5 -27t27.5 -67t-27.5 -67t-68.5 -27zM254 511q0 20 -11.5 32t-31.5 12t-32.5 -12t-12.5 -32q0 -19 12.5 -31t32.5 -12
t31.5 11.5t11.5 31.5z" />
    <glyph glyph-name="AEacute" unicode="&#x1fc;" horiz-adv-x="912" 
d="M725 781l-87 -143h-52v15l43 143h96v-15zM-14 0l431 600h457v-75h-363v-193h315v-73h-315v-184h363v-75h-446v98h-273l-67 -98h-102zM419 472l-214 -301h223v301h-9z" />
    <glyph glyph-name="aeacute" unicode="&#x1fd;" horiz-adv-x="682" 
d="M460 562l-87 -143h-52v15l43 143h96v-15zM598 83l28 -54q-5 -4 -15.5 -10.5t-45.5 -17t-75 -10.5q-95 0 -149 60q-52 -59 -156 -59q-78 0 -117.5 31.5t-39.5 79.5q0 47 38.5 76.5t106.5 29.5q79 0 117 -30h2v16q0 93 -107 93q-27 0 -53 -6t-38 -12l-12 -7l-25 60
q57 31 143 31q98 0 142 -57q51 57 138 57q80 0 126 -48t46 -126l-1 -24h-274q5 -49 37.5 -74.5t81.5 -25.5q28 0 53.5 7t36.5 13zM105 105q0 -56 87 -56q42 0 71.5 17t29.5 40t-30 37.5t-71 14.5q-87 0 -87 -53zM479 291q-40 0 -66.5 -21.5t-33.5 -62.5h195q-5 37 -30 60.5
t-65 23.5z" />
    <glyph glyph-name="Oslashacute" unicode="&#x1fe;" horiz-adv-x="704" 
d="M352 -14q-122 0 -206 71l-62 -60l-41 42l62 61q-64 84 -64 199q0 135 85.5 224.5t225.5 89.5q122 0 206 -70l54 53l41 -42l-54 -53q66 -85 66 -202q0 -134 -86 -223.5t-227 -89.5zM352 65q103 0 166 67t63 167q0 82 -43 142l-333 -326q61 -50 147 -50zM125 299
q0 -81 41 -140l332 326q-61 50 -146 50q-101 0 -164 -68t-63 -168zM465 781l-87 -143h-52v15l43 143h96v-15z" />
    <glyph glyph-name="oslashacute" unicode="&#x1ff;" horiz-adv-x="446" 
d="M415 171q0 -81 -55 -130t-136 -49q-69 0 -119 35l-38 -38l-30 30l37 37q-40 46 -40 115q0 82 54.5 132.5t135.5 50.5q63 0 113 -33l42 42l30 -30l-40 -39q46 -51 46 -123zM224 58q47 0 79 31t32 83q0 37 -20 69l-160 -161q28 -22 69 -22zM114 172q0 -38 15 -63l159 159
q-28 20 -64 20q-47 0 -78.5 -32t-31.5 -84zM339 562l-87 -143h-52v15l43 143h96v-15z" />
    <glyph glyph-name="Scommaaccent" unicode="&#x218;" horiz-adv-x="537" 
d="M221 -90q0 23 16 38.5t42 15.5t42.5 -16.5t17.5 -43.5q0 -26 -20 -61l-27 -48h-58l24 40l16 20v3q-24 1 -38.5 16t-14.5 36zM42 59l45 62q7 -6 21.5 -16t61 -26t97.5 -16q73 0 108.5 25.5t35.5 69.5q0 39 -33 62.5t-125 49.5q-112 32 -160.5 71t-48.5 107q0 77 59.5 121
t165.5 44q67 0 121 -14.5t74 -28.5l21 -15l-45 -68q-7 5 -20 13.5t-57.5 22t-93.5 13.5q-62 0 -100 -23t-38 -64q0 -34 33.5 -55t124.5 -46q116 -32 163 -75t47 -112q0 -79 -58 -127t-173 -48q-43 0 -82.5 7.5t-64.5 18t-44 21.5t-27 19z" />
    <glyph glyph-name="scommaaccent" unicode="&#x219;" horiz-adv-x="378" 
d="M135 -90q0 23 16 38.5t42 15.5t42.5 -16.5t17.5 -43.5q0 -26 -20 -61l-27 -48h-58l24 40l16 20v3q-24 1 -38.5 16t-14.5 36zM31 32l29 57q54 -34 124 -34q79 0 79 42q0 21 -35.5 34.5t-77.5 21t-77.5 32t-35.5 66.5q0 46 37 74.5t112 28.5q44 0 81.5 -7t52.5 -14l16 -7
l-28 -64q-40 29 -113 29q-77 0 -77 -39q0 -21 35.5 -33.5t78.5 -19.5t78.5 -32.5t35.5 -68.5q0 -47 -39.5 -76.5t-119.5 -29.5q-48 0 -87 10t-54 20z" />
    <glyph glyph-name="uni021A" unicode="&#x21a;" horiz-adv-x="527" 
d="M203 -90q0 23 16 38.5t42 15.5t42.5 -16.5t17.5 -43.5q0 -26 -20 -61l-27 -48h-58l24 40l16 20v3q-24 1 -38.5 16t-14.5 36zM15 525v75h497v-75h-208v-525h-82v525h-207z" />
    <glyph glyph-name="uni021B" unicode="&#x21b;" horiz-adv-x="320" 
d="M112 -90q0 23 16 38.5t42 15.5t42.5 -16.5t17.5 -43.5q0 -26 -20 -61l-27 -48h-58l24 40l16 20v3q-24 1 -38.5 16t-14.5 36zM16 346h67v104h81v-104h129v-66h-129v-136q0 -83 70 -83q12 0 23.5 3.5t17.5 7.5l6 3l27 -56q-31 -27 -86 -27q-67 0 -103 38.5t-36 110.5v139
h-67v66z" />
    <glyph glyph-name="dotlessj" unicode="&#x237;" horiz-adv-x="195" 
d="M-46 -180l23 61q18 -10 38 -10q41 0 41 55v420h83v-428q0 -119 -109 -119q-20 0 -39 5.5t-28 10.5z" />
    <glyph glyph-name="schwa" unicode="&#x259;" horiz-adv-x="418" 
d="M81 261l-26 56q51 37 142 37q83 0 135.5 -51.5t52.5 -130.5q0 -82 -52 -131.5t-130 -49.5q-81 0 -128 46.5t-47 126.5l2 28h274q-6 47 -40 72.5t-80 25.5q-28 0 -54 -7t-38 -15zM203 48q38 0 66 23.5t35 69.5h-199q1 -40 26 -66.5t72 -26.5z" />
    <glyph glyph-name="circumflex" unicode="&#x2c6;" horiz-adv-x="329" 
d="M262 419l-92 99l-93 -99h-52v15l100 143h89l100 -143v-15h-52z" />
    <glyph glyph-name="caron" unicode="&#x2c7;" horiz-adv-x="341" 
d="M170 478l92 99h52v-15l-100 -143h-89l-100 143v15h52z" />
    <glyph glyph-name="breve" unicode="&#x2d8;" horiz-adv-x="348" 
d="M238 581h64q0 -54 -36.5 -91.5t-93.5 -37.5t-93.5 37.5t-36.5 91.5h64q0 -30 18.5 -49t47.5 -19q28 0 47 19.5t19 48.5z" />
    <glyph glyph-name="dotaccent" unicode="&#x2d9;" horiz-adv-x="274" 
d="M79 510q0 25 16.5 42t41.5 17q24 0 40.5 -17t16.5 -42q0 -24 -16.5 -40.5t-40.5 -16.5q-25 0 -41.5 16.5t-16.5 40.5z" />
    <glyph glyph-name="ring" unicode="&#x2da;" horiz-adv-x="265" 
d="M133 427q-42 0 -70 27t-28 67t28 67t70 27q41 0 68.5 -27t27.5 -67t-27.5 -67t-68.5 -27zM176 521q0 20 -11.5 32t-31.5 12t-32.5 -12t-12.5 -32q0 -19 12.5 -31t32.5 -12t31.5 11.5t11.5 31.5z" />
    <glyph glyph-name="ogonek" unicode="&#x2db;" horiz-adv-x="201" 
d="M152 -78l25 -33q-23 -27 -67 -27q-36 0 -56.5 19t-20.5 51t23.5 55.5t47.5 31.5l23 8l9 -27q-6 -2 -15 -6t-24 -19t-15 -33q0 -34 36 -34q9 0 17.5 3.5t12.5 6.5z" />
    <glyph glyph-name="tilde" unicode="&#x2dc;" horiz-adv-x="430" 
d="M280 439q-30 0 -71 22.5t-57 22.5t-24 -8.5t-13 -25.5l-4 -13l-58 6l5 26q16 78 85 78q30 0 70 -22.5t57 -22.5q31 0 38 33l3 13l58 -5l-4 -26q-15 -78 -85 -78z" />
    <glyph glyph-name="hungarumlaut" unicode="&#x2dd;" horiz-adv-x="415" 
d="M178 562l-77 -143h-52v15l43 143h86v-15zM342 562l-77 -143h-53v15l43 143h87v-15z" />
    <glyph glyph-name="pi" unicode="&#x3c0;" horiz-adv-x="497" 
d="M22 346h454v-66h-67v-280h-82v280h-158v-280h-82v280h-65v66z" />
    <glyph glyph-name="Wgrave" unicode="&#x1e80;" horiz-adv-x="817" 
d="M381 638l-87 143v15h97l42 -143v-15h-52zM266 203l118 397h49l117 -397l14 -52h6l15 55l135 394h87l-217 -600h-56l-117 394l-8 25h-5l-7 -25l-119 -394h-53l-217 600h86l137 -394l14 -55h6z" />
    <glyph glyph-name="wgrave" unicode="&#x1e81;" horiz-adv-x="588" 
d="M154 0l-142 346h87l78 -223q5 -13 6 -26h7q1 11 6 26l69 223h62l69 -223q3 -10 5 -26h7q1 10 7 26l78 223h83l-141 -346h-62l-69 211q-6 16 -7 33h-5q-2 -17 -7 -33l-70 -211h-61zM267 419l-87 143v15h97l42 -143v-15h-52z" />
    <glyph glyph-name="Wacute" unicode="&#x1e82;" horiz-adv-x="817" 
d="M521 781l-87 -143h-52v15l43 143h96v-15zM266 203l118 397h49l117 -397l14 -52h6l15 55l135 394h87l-217 -600h-56l-117 394l-8 25h-5l-7 -25l-119 -394h-53l-217 600h86l137 -394l14 -55h6z" />
    <glyph glyph-name="wacute" unicode="&#x1e83;" horiz-adv-x="588" 
d="M410 562l-87 -143h-52v15l43 143h96v-15zM154 0l-142 346h87l78 -223q5 -13 6 -26h7q1 11 6 26l69 223h62l69 -223q3 -10 5 -26h7q1 10 7 26l78 223h83l-141 -346h-62l-69 211q-6 16 -7 33h-5q-2 -17 -7 -33l-70 -211h-61z" />
    <glyph glyph-name="Wdieresis" unicode="&#x1e84;" horiz-adv-x="817" 
d="M269 710q0 19 14 33t33 14t33 -14t14 -33t-14 -33t-33 -14t-33 14t-14 33zM451 710q0 19 14 33t33 14t33 -14t14 -33t-14 -33t-33 -14t-33 14t-14 33zM266 203l118 397h49l117 -397l14 -52h6l15 55l135 394h87l-217 -600h-56l-117 394l-8 25h-5l-7 -25l-119 -394h-53
l-217 600h86l137 -394l14 -55h6z" />
    <glyph glyph-name="wdieresis" unicode="&#x1e85;" horiz-adv-x="588" 
d="M157 483q0 19 14 33t33 14t33 -14t14 -33t-14 -33t-33 -14t-33 14t-14 33zM339 483q0 19 14 33t33 14t33 -14t14 -33t-14 -33t-33 -14t-33 14t-14 33zM154 0l-142 346h87l78 -223q5 -13 6 -26h7q1 11 6 26l69 223h62l69 -223q3 -10 5 -26h7q1 10 7 26l78 223h83
l-141 -346h-62l-69 211q-6 16 -7 33h-5q-2 -17 -7 -33l-70 -211h-61z" />
    <glyph glyph-name="Ygrave" unicode="&#x1ef2;" 
d="M297 346l155 254h95l-231 -370v-230h-83v229l-230 371h96l157 -254l17 -37h6zM248 639l-87 143v15h97l42 -143v-15h-52z" />
    <glyph glyph-name="ygrave" unicode="&#x1ef3;" horiz-adv-x="409" 
d="M399 346l-252 -538h-86l106 215l-156 323h89l100 -223q5 -13 6 -26h5q1 13 6 26l98 223h84zM189 419l-87 143v15h97l42 -143v-15h-52z" />
    <glyph glyph-name="enspace" unicode="&#x2002;" horiz-adv-x="500" 
 />
    <glyph glyph-name="emspace" unicode="&#x2003;" horiz-adv-x="1000" 
 />
    <glyph glyph-name="threeperemspace" unicode="&#x2004;" horiz-adv-x="333" 
 />
    <glyph glyph-name="fourperemspace" unicode="&#x2005;" horiz-adv-x="250" 
 />
    <glyph glyph-name="figurespace" unicode="&#x2007;" horiz-adv-x="600" 
 />
    <glyph glyph-name="thinspace" unicode="&#x2009;" horiz-adv-x="133" 
 />
    <glyph glyph-name="hairspace" unicode="&#x200a;" horiz-adv-x="75" 
 />
    <glyph glyph-name="endash" unicode="&#x2013;" horiz-adv-x="458" 
d="M51 254v68h356v-68h-356z" />
    <glyph glyph-name="emdash" unicode="&#x2014;" horiz-adv-x="721" 
d="M51 254v68h619v-68h-619z" />
    <glyph glyph-name="quoteleft" unicode="&#x2018;" horiz-adv-x="190" 
d="M143 521q0 -23 -15 -38t-37 -15q-23 0 -38.5 15.5t-15.5 38.5q0 33 19 68l40 71h56l-36 -64l-16 -20v-4q19 -3 31 -17.5t12 -34.5z" />
    <glyph glyph-name="quoteright" unicode="&#x2019;" horiz-adv-x="190" 
d="M51 607q0 23 15 38t37 15q23 0 38.5 -15.5t15.5 -38.5q0 -33 -19 -68l-40 -71h-56l36 64l16 20v4q-19 3 -31 17.5t-12 34.5z" />
    <glyph glyph-name="quotesinglbase" unicode="&#x201a;" horiz-adv-x="156" 
d="M25 45q0 23 15 38t37 15q23 0 38.5 -15.5t15.5 -38.5q0 -33 -19 -68l-40 -71h-56l36 64l16 20v4q-19 3 -31 17.5t-12 34.5z" />
    <glyph glyph-name="quotedblleft" unicode="&#x201c;" horiz-adv-x="374" 
d="M143 521q0 -23 -15 -38t-37 -15q-23 0 -38.5 15.5t-15.5 38.5q0 33 19 68l40 71h56l-36 -64l-16 -20v-4q19 -3 31 -17.5t12 -34.5zM327 521q0 -23 -15 -38t-37 -15q-23 0 -38.5 15.5t-15.5 38.5q0 33 19 68l40 71h56l-36 -64l-16 -20v-4q19 -3 31 -17.5t12 -34.5z" />
    <glyph glyph-name="quotedblright" unicode="&#x201d;" horiz-adv-x="365" 
d="M47 607q0 23 15 38t37 15q23 0 38.5 -15.5t15.5 -38.5q0 -33 -19 -68l-40 -71h-56l36 64l16 20v4q-19 3 -31 17.5t-12 34.5zM222 607q0 23 15 38t37 15q23 0 38.5 -15.5t15.5 -38.5q0 -33 -19 -68l-40 -71h-56l36 64l16 20v4q-19 3 -31 17.5t-12 34.5z" />
    <glyph glyph-name="quotedblbase" unicode="&#x201e;" horiz-adv-x="383" 
d="M25 45q0 23 15 38t37 15q23 0 38.5 -15.5t15.5 -38.5q0 -33 -19 -68l-40 -71h-56l36 64l16 20v4q-19 3 -31 17.5t-12 34.5zM252 45q0 23 15 38t37 15q23 0 38.5 -15.5t15.5 -38.5q0 -33 -19 -68l-40 -71h-56l36 64l16 20v4q-19 3 -31 17.5t-12 34.5z" />
    <glyph glyph-name="dagger" unicode="&#x2020;" horiz-adv-x="437" 
d="M32 287v68h153v245h69v-245h151v-68h-151l-8 -479h-54l-7 479h-153z" />
    <glyph glyph-name="daggerdbl" unicode="&#x2021;" horiz-adv-x="472" 
d="M49 358v68h153v174h69v-174h152v-68h-152v-223h152v-68h-152l-7 -259h-54l-8 259h-153v68h153v223h-153z" />
    <glyph glyph-name="bullet" unicode="&#x2022;" horiz-adv-x="303" 
d="M74 173q0 32 22.5 55t55.5 23q31 0 54 -23t23 -55t-22.5 -54.5t-54.5 -22.5q-33 0 -55.5 22.5t-22.5 54.5z" />
    <glyph glyph-name="ellipsis" unicode="&#x2026;" horiz-adv-x="529" 
d="M25 48q0 23 16 39.5t40 16.5q23 0 39.5 -16.5t16.5 -39.5q0 -24 -16.5 -40.5t-39.5 -16.5q-24 0 -40 16.5t-16 40.5zM208 48q0 23 16.5 39.5t39.5 16.5q24 0 40 -16.5t16 -39.5q0 -24 -16 -40.5t-40 -16.5q-23 0 -39.5 16.5t-16.5 40.5zM392 48q0 23 16 39.5t39 16.5
q24 0 40.5 -16.5t16.5 -39.5q0 -24 -16.5 -40.5t-40.5 -16.5q-23 0 -39 16.5t-16 40.5z" />
    <glyph glyph-name="perthousand" unicode="&#x2030;" horiz-adv-x="988" 
d="M172 613q62 0 98.5 -43.5t36.5 -106.5q0 -62 -36.5 -106.5t-98.5 -44.5q-63 0 -99.5 44t-36.5 107t36.5 106.5t99.5 43.5zM172 373q31 0 48.5 25t17.5 65q0 41 -17 65.5t-49 24.5q-33 0 -50 -24.5t-17 -65.5t17 -65.5t50 -24.5zM544 606l51 -41l-469 -564l-50 41z
M500 293q63 0 99.5 -43.5t36.5 -107.5q0 -62 -37 -106t-99 -44t-99 44t-37 106q0 63 37 107t99 44zM500 233q-32 0 -49.5 -25t-17.5 -66q0 -39 18 -64t49 -25q32 0 49 24.5t17 64.5q0 42 -17 66.5t-49 24.5zM820 233q-32 0 -49.5 -25t-17.5 -66q0 -39 18 -64t49 -25
q32 0 49 24.5t17 64.5q0 42 -17 66.5t-49 24.5zM820 293q63 0 99.5 -43.5t36.5 -107.5q0 -62 -37 -106t-99 -44t-99 44t-37 106q0 63 37 107t99 44z" />
    <glyph glyph-name="guilsinglleft" unicode="&#x2039;" horiz-adv-x="249" 
d="M36 162v19l106 155h70v-8l-104 -153v-5l104 -155v-8h-70z" />
    <glyph glyph-name="guilsinglright" unicode="&#x203a;" horiz-adv-x="249" 
d="M213 181v-19l-106 -155h-70v8l103 155v5l-103 153v8h70z" />
    <glyph glyph-name="fraction" unicode="&#x2044;" horiz-adv-x="180" 
d="M-123 5l-42 33l469 564l43 -33z" />
    <glyph glyph-name="zerosuperior" unicode="&#x2070;" horiz-adv-x="375" 
d="M187 677q74 0 117 -50.5t43 -122.5q0 -70 -43 -120t-117 -50q-73 0 -116 50t-43 120q0 72 43 122.5t116 50.5zM187 623q-45 0 -69.5 -34t-24.5 -85q0 -49 24.5 -82t69.5 -33t70 33t25 82q0 51 -25 85t-70 34z" />
    <glyph glyph-name="foursuperior" unicode="&#x2074;" horiz-adv-x="321" 
d="M18 426v36l187 206l2 -2l1 2h40v-194h53v-48h-53v-84h-55v84h-175zM91 473v-2l43 3h59v113h-1l-70 -82z" />
    <glyph glyph-name="fivesuperior" unicode="&#x2075;" horiz-adv-x="313" 
d="M52 668h214v-50h-166l-3 -85q34 6 64 6q62 0 95 -25.5t33 -72.5t-35 -77t-100 -30q-34 0 -65.5 11.5t-44.5 20t-19 14.5l30 41q36 -34 95 -34q80 0 80 54q0 55 -86 55q-21 0 -42 -3.5t-31 -6.5l-10 -4l-16 10z" />
    <glyph glyph-name="sixsuperior" unicode="&#x2076;" horiz-adv-x="325" 
d="M166 573q63 0 101 -31t38 -85q0 -57 -38 -90t-101 -33t-101 33t-38 90q0 58 48 119l70 93h66l-53 -69q-5 -8 -11.5 -14.5t-10.5 -9.5l-3 -3v-3q15 3 33 3zM166 524q-36 0 -57.5 -18t-21.5 -50q0 -33 21.5 -52.5t57.5 -19.5t58 19.5t22 52.5q0 32 -22 50t-58 18z" />
    <glyph glyph-name="sevensuperior" unicode="&#x2077;" horiz-adv-x="280" 
d="M268 668v-15l-128 -311h-64l117 276h-173v50h248z" />
    <glyph glyph-name="eightsuperior" unicode="&#x2078;" horiz-adv-x="333" 
d="M28 436q0 56 57 78q-46 25 -46 73q0 39 35.5 64.5t92.5 25.5q56 0 91 -25.5t35 -64.5q0 -48 -45 -73q57 -22 57 -78q0 -42 -37 -72t-101 -30t-101.5 30t-37.5 72zM167 492q-38 0 -58.5 -14.5t-20.5 -38.5t21 -40t58 -16q36 0 57 16t21 40t-20.5 38.5t-57.5 14.5zM167 529
q33 0 51.5 14.5t18.5 35.5t-19.5 35t-50.5 14t-50.5 -14t-19.5 -35t18.5 -35.5t51.5 -14.5z" />
    <glyph glyph-name="ninesuperior" unicode="&#x2079;" horiz-adv-x="328" 
d="M162 438q-62 0 -100 31t-38 85q0 56 38 89.5t100 33.5q63 0 101 -33t38 -90q0 -58 -47 -119l-71 -93h-66l54 69l24 27v2q-22 -2 -33 -2zM162 487q37 0 58.5 17.5t21.5 50.5t-21.5 52.5t-58.5 19.5q-36 0 -57.5 -19.5t-21.5 -52.5q0 -32 21.5 -50t57.5 -18z" />
    <glyph glyph-name="zeroinferior" unicode="&#x2080;" horiz-adv-x="374" 
d="M187 210q74 0 117 -50.5t43 -122.5q0 -70 -43 -120t-117 -50q-73 0 -116 50t-43 120q0 72 43 122.5t116 50.5zM187 156q-45 0 -69.5 -34t-24.5 -85q0 -49 24.5 -82t69.5 -33t70 33t25 82q0 51 -25 85t-70 34z" />
    <glyph glyph-name="oneinferior" unicode="&#x2081;" horiz-adv-x="198" 
d="M17 151v50h129v-326h-57v276h-72z" />
    <glyph glyph-name="twoinferior" unicode="&#x2082;" horiz-adv-x="311" 
d="M25 -125v18l147 141q35 35 35 64q0 57 -68 57q-21 0 -42 -9t-29.5 -15t-12.5 -10l-30 44q5 5 14.5 12.5t41 20t63.5 12.5q64 0 94.5 -29t30.5 -75q0 -47 -47 -94l-91 -87h155v-50h-261z" />
    <glyph glyph-name="threeinferior" unicode="&#x2083;" horiz-adv-x="312" 
d="M36 151v50h236v-15l-73 -114q87 -12 87 -97q0 -46 -35 -77t-100 -31q-34 0 -65.5 11.5t-44.5 20t-19 14.5l32 43q40 -35 95 -35q39 0 58.5 15.5t19.5 40.5q0 50 -63 53h-45v16l69 105h-152z" />
    <glyph glyph-name="fourinferior" unicode="&#x2084;" horiz-adv-x="322" 
d="M19 -41v36l187 206h43v-194h52v-48h-52v-84h-55v84h-175zM120 36q-5 -6 -12 -13.5t-11.5 -12t-5.5 -6.5l44 3h59v113h-1z" />
    <glyph glyph-name="fiveinferior" unicode="&#x2085;" horiz-adv-x="313" 
d="M52 201h214v-50h-166l-3 -85q34 6 64 6q62 0 95 -25.5t33 -72.5t-35 -77t-100 -30q-34 0 -65.5 11.5t-44.5 20t-19 14.5l30 41q36 -34 95 -34q80 0 80 54q0 55 -86 55q-21 0 -42 -3.5t-31 -7.5l-10 -3l-16 10z" />
    <glyph glyph-name="sixinferior" unicode="&#x2086;" horiz-adv-x="325" 
d="M166 106q63 0 101 -31t38 -85q0 -57 -38 -90t-101 -33t-101 33t-38 90q0 58 48 119l70 93h66l-53 -69q-5 -8 -11.5 -14.5t-10.5 -9.5l-3 -3v-3q15 3 33 3zM166 57q-36 0 -57.5 -18t-21.5 -50q0 -33 21.5 -52.5t57.5 -19.5t58 19.5t22 52.5q0 32 -22 50t-58 18z" />
    <glyph glyph-name="seveninferior" unicode="&#x2087;" horiz-adv-x="280" 
d="M268 201v-15l-128 -311h-64l117 276h-173v50h248z" />
    <glyph glyph-name="eightinferior" unicode="&#x2088;" horiz-adv-x="333" 
d="M28 -31q0 56 57 78q-46 25 -46 73q0 39 35.5 64.5t92.5 25.5q56 0 91 -25.5t35 -64.5q0 -48 -45 -73q57 -22 57 -78q0 -42 -37 -72t-101 -30t-101.5 30t-37.5 72zM167 25q-38 0 -58.5 -14.5t-20.5 -38.5t21 -40t58 -16q36 0 57 16t21 40t-20.5 38.5t-57.5 14.5zM167 62
q33 0 51.5 14.5t18.5 35.5t-19.5 35t-50.5 14t-50.5 -14t-19.5 -35t18.5 -35.5t51.5 -14.5z" />
    <glyph glyph-name="nineinferior" unicode="&#x2089;" horiz-adv-x="325" 
d="M160 -29q-62 0 -100.5 31t-38.5 85q0 56 38.5 89.5t100.5 33.5q63 0 101 -33t38 -90q-1 -59 -48 -119l-70 -93h-66l53 69q5 8 11.5 14.5t10.5 9.5l3 3v3q-17 -3 -33 -3zM160 20q36 0 58 17.5t22 50.5t-21.5 52.5t-58.5 19.5q-36 0 -57.5 -19.5t-21.5 -52.5
q0 -32 21.5 -50t57.5 -18z" />
    <glyph glyph-name="colonmonetary" unicode="&#x20a1;" horiz-adv-x="603" 
d="M515 126l47 -64l-8 -8t-23.5 -17.5t-39.5 -22.5t-56 -18.5t-73 -9.5l-15 -88h-58l16 92q-32 4 -65 14l-18 -106h-58l23 131q-70 41 -109 112t-39 158q0 117 68 202t181 106l16 89h58l-15 -83h6q29 0 59 -5l16 88h58l-18 -102q28 -10 51.5 -24.5t32.5 -23.5l10 -9l-47 -64
q-24 22 -61 40l-78 -448q39 4 73.5 19t50.5 28zM123 299q0 -113 79 -181l71 403q-68 -24 -109 -84.5t-41 -137.5zM254 85q33 -15 64 -19l81 464q-25 5 -45 5q-4 0 -11 -0.5t-10 -0.5z" />
    <glyph glyph-name="naira" unicode="&#x20a6;" horiz-adv-x="749" 
d="M641 600v-111h51v-57h-51v-259h51v-56h-51v-117h-23l-116 117h-310v-117h-82v117h-63v56h63v259h-63v57h63v111h23l110 -111h315v111h83zM300 432l258 -258v258h-258zM192 431v-258h255z" />
    <glyph glyph-name="rupee" unicode="&#x20a8;" horiz-adv-x="1000" 
d="M645 32l29 57q54 -34 124 -34q79 0 79 42q0 21 -35.5 34.5t-77.5 21t-77.5 32t-35.5 66.5q0 46 37 74.5t112 28.5q44 0 81.5 -7t52.5 -14l16 -7l-28 -64q-40 29 -113 29q-77 0 -77 -39q0 -21 35.5 -33.5t78.5 -19.5t78.5 -32.5t35.5 -68.5q0 -47 -39.5 -76.5
t-119.5 -29.5q-48 0 -87 10t-54 20zM344 600q114 0 178 -52.5t64 -149.5q0 -70 -36 -117.5t-99 -69.5v-4l155 -191v-16h-91l-157 195h-183v-195h-82v600h251zM500 396q0 64 -42 96.5t-116 32.5h-167v-256h175q69 0 109.5 32t40.5 95z" />
    <glyph glyph-name="won" unicode="&#x20a9;" horiz-adv-x="940" 
d="M887 188v-56h-187l-47 -132h-56l-40 132h-176l-40 -132h-53l-48 132h-188v56h168l-85 233h-83v57h63l-44 122h86l42 -122h212l36 122h49l36 -122h209l42 122h87l-44 -122h61v-57h-82l-84 -233h166zM329 203l65 218h-175l75 -215l4 -18h26zM643 188l5 18l73 215h-172
l64 -218l4 -15h26zM460 394l-62 -206h143l-61 206l-8 25h-5z" />
    <glyph glyph-name="sheqel" unicode="&#x20aa;" horiz-adv-x="523" 
d="M443 346v-346h-124q-57 0 -85 27.5t-39 82.5l-15 93h46l15 -69q9 -34 22.5 -49.5t45.5 -15.5h78v277h56zM80 0v346h148q112 0 112 -114v-89h-43l-5 69q-3 65 -65 65h-91v-277h-56z" />
    <glyph glyph-name="Euro" unicode="&#x20ac;" horiz-adv-x="596" 
d="M417 259v-63h-210q42 -125 173 -125q36 0 67.5 13.5t44.5 27.5l14 13l48 -62q-2 -3 -6.5 -7.5t-20.5 -17t-34.5 -22t-49 -17t-64.5 -7.5q-105 0 -171 56t-90 148h-78v63h67q-3 19 -3 41q0 12 2 38h-66v63h77q23 93 90 150.5t172 57.5q34 0 64.5 -7.5t50 -17.5t34 -20.5
t20.5 -17.5l7 -8l-49 -63q-5 6 -14.5 15t-42.5 24t-69 15q-67 0 -110.5 -34t-63.5 -94h211v-63h-224q-2 -18 -2 -38q0 -23 2 -41h224z" />
    <glyph glyph-name="afii61289" unicode="&#x2113;" horiz-adv-x="436" 
d="M60 154l-23 35l82 64v261q0 65 42 109.5t110 44.5q69 0 111 -44.5t42 -109.5q0 -61 -23.5 -103t-76.5 -83l-129 -101v-75q0 -44 22 -67.5t63 -23.5q20 0 39 6.5t28 13.5l9 7l25 -55q-5 -5 -14 -11.5t-38 -18t-59 -11.5q-72 0 -111.5 38.5t-39.5 108.5v38zM195 514v-201
l78 61q73 56 73 136q0 39 -21 63.5t-55 24.5t-54.5 -24t-20.5 -60z" />
    <glyph glyph-name="uni2117" unicode="&#x2117;" horiz-adv-x="568" 
d="M522 380q0 -99 -65.5 -166.5t-173.5 -67.5t-172 67.5t-64 166.5t64 166.5t172 67.5t173.5 -67.5t65.5 -166.5zM470 380q0 80 -52 132.5t-135 52.5t-134 -51t-51 -134q0 -80 51.5 -132.5t133.5 -52.5q83 0 135 52.5t52 132.5zM204 478h94q40 0 65 -20.5t25 -54.5
q0 -38 -26 -58t-67 -20h-50v-49h-41v202zM297 440h-52v-78h50q50 0 50 40q0 38 -48 38z" />
    <glyph glyph-name="servicemark" unicode="&#x2120;" horiz-adv-x="751" 
d="M420 281h-56v319h16l143 -134l143 134h16v-319h-56v213l-97 -92h-13l-96 92v-213zM60 314l29 39q37 -30 92 -30q65 0 65 42q0 19 -18.5 30t-60.5 24q-54 17 -80 38.5t-26 58.5q0 41 32.5 65.5t88.5 24.5q36 0 64.5 -8t39.5 -16l10 -8l-29 -43q-31 27 -86 27
q-63 0 -63 -39q0 -17 17 -27.5t52 -21.5q62 -17 90.5 -39t28.5 -62q0 -42 -31.5 -68t-92.5 -26q-36 0 -66.5 9.5t-43.5 19.5z" />
    <glyph glyph-name="trademark" unicode="&#x2122;" horiz-adv-x="739" 
d="M407 281h-56v319h16l142 -134l144 134h16v-319h-56v213l-97 -92h-13l-96 92v-213zM290 600v-49h-99v-270h-56v270h-100v49h255z" />
    <glyph glyph-name="Omega" unicode="&#x2126;" horiz-adv-x="741" 
d="M53 0v72h138q-64 36 -100 101t-36 137q0 127 85 215t231 88q147 0 232 -88t85 -215q0 -72 -36 -137t-101 -101h138v-72h-282v74q84 6 141 73.5t57 155.5q0 97 -64 164t-170 67t-169.5 -67t-63.5 -164q0 -88 56.5 -155.5t140.5 -73.5v-74h-282z" />
    <glyph glyph-name="estimated" unicode="&#x212e;" horiz-adv-x="713" 
d="M156 270v-85q28 -55 83 -87t130 -32q41 0 78 10t53 20l17 9l42 -69q-7 -5 -21 -13.5t-64 -22t-107 -13.5q-148 0 -235 88.5t-87 223.5q0 134 88 224t229 90q142 0 230 -90t88 -224l-1 -29h-523zM362 534q-70 0 -124 -33t-82 -90v-74h413v74q-28 57 -82.5 90t-124.5 33z
" />
    <glyph glyph-name="onethird" unicode="&#x2153;" horiz-adv-x="725" 
d="M437 275v50h236v-15l-73 -113q88 -13 88 -97q0 -46 -35 -77.5t-101 -31.5q-70 0 -128 46l31 43q40 -35 96 -35q38 0 58 16t20 41q0 24 -18 38t-51 14h-39v16l67 105h-151zM92 4l-42 34l469 564l43 -34zM38 550v50h130v-326h-58v276h-72z" />
    <glyph glyph-name="twothirds" unicode="&#x2154;" horiz-adv-x="844" 
d="M555 276v50h236v-15l-73 -114q88 -12 88 -97q0 -46 -35.5 -77t-100.5 -31q-34 0 -65.5 11.5t-44.5 20t-19 14.5l32 43q40 -35 95 -35q39 0 58.5 15.5t19.5 40.5q0 53 -69 53h-38v16l67 105h-151zM213 4l-42 33l469 564l43 -33zM45 277v17l147 142q35 33 35 65
q0 25 -17 40t-51 15q-10 0 -19.5 -1.5t-17.5 -4.5t-15.5 -6.5t-13 -6.5t-10 -6l-7.5 -5l-2 -2l-30 44q5 5 15 12.5t41 19.5t64 12q63 0 93.5 -29t30.5 -75q0 -49 -47 -94l-89 -87h154v-50h-261z" />
    <glyph glyph-name="oneeighth" unicode="&#x215b;" horiz-adv-x="725" 
d="M415 94q0 56 57 78q-45 24 -45 73q0 39 35 64.5t91 25.5q57 0 92.5 -25.5t35.5 -64.5q0 -48 -46 -73q57 -22 57 -78q0 -42 -37 -72t-102 -30q-64 0 -101 30t-37 72zM94 4l-43 34l469 564l43 -34zM39 550v50h129v-326h-57v276h-72zM553 150q-37 0 -57.5 -14.5t-20.5 -38.5
t21 -40t57 -16t58 16.5t22 39.5q0 24 -21.5 38.5t-58.5 14.5zM553 187q34 0 52 14.5t18 35.5t-19 35t-51 14q-31 0 -49.5 -14t-18.5 -35t18 -35.5t50 -14.5z" />
    <glyph glyph-name="threeeighths" unicode="&#x215c;" horiz-adv-x="808" 
d="M495 94q0 -42 37 -72t101 -30t101.5 30t37.5 72q0 56 -58 78q46 24 46 73q0 39 -35 64.5t-92 25.5q-56 0 -91.5 -25.5t-35.5 -64.5q0 -48 46 -73q-57 -22 -57 -78zM52 550v50h236v-15l-73 -114q87 -12 87 -97q0 -46 -35 -77t-100 -31q-34 0 -65.5 11.5t-44.5 20t-19 14.5
l32 43q40 -35 95 -35q39 0 58.5 15.5t19.5 40.5q0 50 -63 53h-45v16l69 105h-152zM189 4l-41 34l469 564l42 -34zM633 150q37 0 58.5 -14.5t21.5 -38.5q0 -23 -22 -39.5t-58 -16.5t-57 16t-21 40t20.5 38.5t57.5 14.5zM633 187q-32 0 -50.5 14.5t-18.5 35.5t19 35t50 14
q32 0 51 -14t19 -35t-18 -35.5t-52 -14.5z" />
    <glyph glyph-name="fiveeighths" unicode="&#x215d;" horiz-adv-x="801" 
d="M488 94q0 -42 37.5 -72t101.5 -30t101 30t37 72q0 56 -57 78q45 25 45 73q0 39 -35 64.5t-91 25.5q-58 0 -93 -25.5t-35 -64.5q0 -48 46 -73q-57 -22 -57 -78zM62 600h215v-50h-166l-4 -85q34 6 65 6q62 0 95 -25.5t33 -72.5t-35 -77t-101 -30q-34 0 -65.5 11.5t-44 20
t-18.5 14.5l30 41q35 -33 94 -33q81 0 81 53q0 54 -87 54q-25 0 -45.5 -3.5t-28.5 -6.5l-8 -3l-16 10zM189 4l-41 34l469 564l42 -34zM627 150q37 0 57.5 -14.5t20.5 -38.5t-21 -40t-57 -16q-37 0 -58.5 16t-21.5 40t21 38.5t59 14.5zM627 187q-33 0 -51.5 14.5t-18.5 35.5
t19.5 35t50.5 14t50 -14t19 -35t-18.5 -35.5t-50.5 -14.5z" />
    <glyph glyph-name="seveneighths" unicode="&#x215e;" horiz-adv-x="763" 
d="M450 94q0 -42 37.5 -72t101.5 -30t101 30t37 72q0 56 -57 78q45 25 45 73q0 39 -35 64.5t-91 25.5q-57 0 -92.5 -25.5t-35.5 -64.5q0 -48 46 -73q-57 -22 -57 -78zM131 4l-42 34l469 564l43 -34zM281 600v-15l-129 -311h-64l118 276h-174v50h249zM589 150
q37 0 57.5 -14.5t20.5 -38.5t-21 -40t-57 -16q-37 0 -58.5 16t-21.5 40t21 38.5t59 14.5zM589 187q-33 0 -51.5 14.5t-18.5 35.5t19.5 35t50.5 14t50 -14t19 -35t-18.5 -35.5t-50.5 -14.5z" />
    <glyph glyph-name="partialdiff" unicode="&#x2202;" horiz-adv-x="475" 
d="M264 385l-125 203v12h77l171 -271q29 -48 41 -81.5t12 -77.5q0 -82 -56.5 -131.5t-147.5 -49.5q-89 0 -146.5 49.5t-57.5 131.5q0 79 57 130.5t148 51.5q21 0 55 -6v3q-15 15 -28 36zM236 57q53 0 87.5 32.5t34.5 82.5q0 48 -33.5 79.5t-87.5 31.5q-52 0 -87 -32t-35 -79
q0 -50 35 -82.5t86 -32.5z" />
    <glyph glyph-name="Delta" unicode="&#x2206;" horiz-adv-x="648" 
d="M25 0v17l291 583h16l291 -583v-17h-598zM504 72l-178 381h-6l-177 -381h361z" />
    <glyph glyph-name="product" unicode="&#x220f;" horiz-adv-x="692" 
d="M601 600v-600h-83v528h-344v-528h-83v600h510z" />
    <glyph glyph-name="summation" unicode="&#x2211;" horiz-adv-x="462" 
d="M45 600h370v-72h-266l171 -209v-40l-169 -207h264v-72h-370v72l186 220v13l-186 223v72z" />
    <glyph glyph-name="minus" unicode="&#x2212;" horiz-adv-x="505" 
d="M54 264v68h393v-68h-393z" />
    <glyph glyph-name="uni2219" unicode="&#x2219;" horiz-adv-x="161" 
d="M25 359q0 23 16 39.5t38 16.5q24 0 40 -16.5t16 -39.5t-16 -39t-40 -16q-23 0 -38.5 16t-15.5 39z" />
    <glyph glyph-name="radical" unicode="&#x221a;" horiz-adv-x="633" 
d="M638 600l-405 -792h-19l-208 399h93l97 -202q1 -2 11.5 -29t10.5 -28h12q0 1 10.5 28t11.5 29l293 595h93z" />
    <glyph glyph-name="infinity" unicode="&#x221e;" horiz-adv-x="802" 
d="M226 116q-76 0 -123 49.5t-47 120.5q0 69 47.5 119.5t122.5 50.5q56 0 97 -32.5t79 -88.5q37 56 77.5 88.5t96.5 32.5q71 0 121 -47.5t50 -122.5q0 -70 -47 -120t-124 -50q-57 0 -97.5 31.5t-78.5 87.5q-37 -55 -77.5 -87t-96.5 -32zM571 390q-42 0 -72.5 -27t-59.5 -76
q32 -51 62 -78.5t70 -27.5q49 0 78 30.5t29 74.5q0 45 -31 74.5t-76 29.5zM231 181q70 0 132 104q-32 51 -61.5 78t-70.5 27q-49 0 -77.5 -31t-28.5 -73q0 -44 28.5 -74.5t77.5 -30.5z" />
    <glyph glyph-name="integral" unicode="&#x222b;" horiz-adv-x="318" 
d="M118 13v517q0 119 108 119q20 0 39 -5.5t28 -10.5l9 -5l-22 -61q-19 10 -38 10q-42 0 -42 -55v-517q0 -119 -108 -119q-20 0 -39 5t-28 11l-9 5l22 61q19 -10 38 -10q42 0 42 55z" />
    <glyph glyph-name="approxequal" unicode="&#x2248;" horiz-adv-x="493" 
d="M324 170q-35 0 -80 22.5t-62 22.5q-19 0 -27.5 -8.5t-14.5 -24.5l-3 -14l-71 6l6 33q18 77 98 77q34 0 79 -22.5t63 -22.5q30 0 41 34l4 13l70 -6l-6 -33q-16 -77 -97 -77zM324 362q-35 0 -80 22.5t-62 22.5q-31 0 -42 -34l-3 -13l-71 6l6 33q18 77 98 77q34 0 79 -22.5
t63 -22.5q29 0 41 33l4 14l70 -6l-6 -33q-16 -77 -97 -77z" />
    <glyph glyph-name="notequal" unicode="&#x2260;" horiz-adv-x="482" 
d="M57 359v67h201l44 115l58 -20l-37 -95h102v-67h-127l-57 -148h184v-68h-210l-42 -112l-58 20l35 92h-93v68h119l56 148h-175z" />
    <glyph glyph-name="lessequal" unicode="&#x2264;" horiz-adv-x="404" 
d="M314 253l-48 -50l-196 180v17l196 185l48 -50l-153 -144zM352 143v-68h-294v68h294z" />
    <glyph glyph-name="greaterequal" unicode="&#x2265;" horiz-adv-x="404" 
d="M139 203l-49 50l154 138l-154 144l48 50l196 -185v-17zM53 75v68h294v-68h-294z" />
    <glyph glyph-name="lozenge" unicode="&#x25ca;" horiz-adv-x="471" 
d="M263 600l172 -300l-172 -300h-55l-172 300l172 300h55zM128 299l101 -185h13l100 185l-100 187h-13z" />
    <glyph glyph-name="commaaccent" unicode="&#xf6c3;" horiz-adv-x="214" 
d="M51 -90q0 23 16 38.5t42 15.5t42.5 -16.5t17.5 -43.5q0 -26 -20 -61l-27 -48h-58l24 40l16 20v3q-24 1 -38.5 16t-14.5 36z" />
    <glyph glyph-name="f_f" unicode="&#xfb00;" horiz-adv-x="664" 
d="M299 282h-122v-282h-81v282h-80v64h80v147q0 87 39 130t111 43q42 0 78 -18l-21 -70q-24 12 -46 12q-80 0 -80 -97v-147h122v-64zM646 282h-122v-282h-81v282h-80v64h80v147q0 87 39 130t111 43q42 0 78 -18l-21 -70q-24 12 -46 12q-80 0 -80 -97v-147h122v-64z" />
    <glyph glyph-name="fi" unicode="&#xfb01;" horiz-adv-x="547" 
d="M449 478q-21 0 -35.5 14.5t-14.5 35.5t14.5 36t35.5 15t36 -15t15 -36t-15 -35.5t-36 -14.5zM408 0v346h82v-346h-82zM300 282h-122v-282h-81v282h-80v64h80v147q0 87 39 130t111 43q42 0 78 -18l-21 -70q-24 12 -46 12q-80 0 -80 -97v-147h122v-64z" />
    <glyph glyph-name="fl" unicode="&#xfb02;" horiz-adv-x="540" 
d="M399 0v668h82v-668h-82zM300 282h-122v-282h-81v282h-80v64h80v147q0 87 39 130t111 43q42 0 78 -18l-21 -70q-24 12 -46 12q-80 0 -80 -97v-147h122v-64z" />
    <glyph glyph-name="f_f_i" unicode="&#xfb03;" horiz-adv-x="885" 
d="M786 478q-21 0 -35.5 14.5t-14.5 35.5t14.5 36t35.5 15t36 -15t15 -36t-15 -35.5t-36 -14.5zM745 0v346h82v-346h-82zM300 282h-122v-282h-81v282h-80v64h80v147q0 87 39 130t111 43q42 0 78 -18l-21 -70q-24 12 -46 12q-80 0 -80 -97v-147h122v-64zM646 282h-122v-282
h-81v282h-80v64h80v147q0 87 39 130t111 43q42 0 78 -18l-21 -70q-24 12 -46 12q-80 0 -80 -97v-147h122v-64z" />
    <glyph glyph-name="f_f_l" unicode="&#xfb04;" horiz-adv-x="878" 
d="M737 0v668h82v-668h-82zM300 282h-122v-282h-81v282h-80v64h80v147q0 87 39 130t111 43q42 0 78 -18l-21 -70q-24 12 -46 12q-80 0 -80 -97v-147h122v-64zM646 282h-122v-282h-81v282h-80v64h80v147q0 87 39 130t111 43q42 0 78 -18l-21 -70q-24 12 -46 12q-80 0 -80 -97
v-147h122v-64z" />
    <glyph glyph-name="three.alt" horiz-adv-x="518" 
d="M176 338h79q48 0 76 23.5t28 64.5q0 49 -34.5 79.5t-94.5 30.5q-23 0 -46.5 -7t-40.5 -17t-31 -20.5t-22 -17.5l-7 -7l-41 60q3 3 8.5 9t24.5 21t40 26t55.5 20.5t70.5 9.5q96 0 153 -48.5t57 -124.5q0 -91 -75 -134q96 -34 96 -137q0 -82 -60 -132t-165 -50
q-58 0 -109 19.5t-74 39.5l-22 19l42 63q7 -7 20.5 -17.5t55.5 -28.5t84 -18q64 0 101 29t37 77q0 46 -32 70.5t-90 24.5h-84v73z" />
    <glyph glyph-name="published" horiz-adv-x="719" 
d="M359 606q144 0 229.5 -88t85.5 -219q0 -130 -85.5 -218t-229.5 -88q-143 0 -229 88t-86 218q0 131 86 219t229 88zM359 559q-120 0 -192 -74.5t-72 -185.5q0 -109 72 -183.5t192 -74.5t192.5 74.5t72.5 183.5q0 111 -72.5 185.5t-192.5 74.5zM387 449q57 0 90 -30.5
t33 -81.5t-33.5 -80.5t-92.5 -29.5h-80v-76h-58v298h141zM449 337q0 30 -19 46t-53 16h-73v-123h74q71 0 71 61z" />
    <glyph glyph-name="registered.alt" horiz-adv-x="719" 
d="M359 606q144 0 229.5 -88t85.5 -219q0 -130 -85.5 -218t-229.5 -88q-143 0 -229 88t-86 218q0 131 86 219t229 88zM359 559q-120 0 -192 -74.5t-72 -185.5q0 -109 72 -183.5t192 -74.5t192.5 74.5t72.5 183.5q0 111 -72.5 185.5t-192.5 74.5zM237 151v298h141
q57 0 90 -30t33 -79q0 -68 -61 -95v-5l60 -80v-9h-61l-59 83h-85v-83h-58zM440 340q0 29 -19 44t-53 15h-73v-116h73q72 0 72 57z" />
    <glyph glyph-name="baht" horiz-adv-x="638" 
d="M596 168q0 -83 -60 -125.5t-164 -42.5h-78l-18 -102h-57l18 102h-147v600h251l17 96h58l-18 -98q86 -7 132 -47.5t46 -112.5q0 -91 -85 -125v-10q48 -16 76.5 -50.5t28.5 -84.5zM383 272h-42l-35 -200h69q60 0 96.5 26t36.5 75q0 46 -34.5 71.5t-90.5 27.5zM173 528v-196
h122l34 196h-156zM488 427q0 44 -27.5 69t-74.5 30l-34 -194h7q129 0 129 95zM173 272v-200h76l35 200h-111z" />
    <glyph glyph-name="peso" horiz-adv-x="692" 
d="M108 0v370h-65v56h65v174h252q105 0 167.5 -45t71.5 -129h62v-56h-62q-9 -87 -74 -134t-170 -47h-165v-189h-82zM357 263q141 0 157 107h-324v-107h167zM190 525v-99h323q-10 49 -51 74t-105 25h-167z" />
    <glyph glyph-name="R_p" horiz-adv-x="1058" 
d="M733 40h-3v-232h-82v538h55l11 -49h6q4 6 12 15.5t42 25.5t77 16q75 0 124.5 -49.5t49.5 -131.5q0 -80 -49 -130.5t-122 -50.5q-42 0 -72 12t-40 24zM725 173q0 -51 31 -82t79 -31q47 0 77 31.5t30 81.5q0 49 -30 81t-77 32q-48 0 -79 -31t-31 -82zM334 600
q114 0 178 -52.5t64 -149.5q0 -70 -36 -117.5t-99 -69.5v-4l155 -191v-16h-91l-157 195h-183v-195h-82v600h251zM490 396q0 64 -42 96.5t-116 32.5h-167v-256h175q69 0 109.5 32t40.5 95z" />
    <glyph glyph-name="onehalf.alt" horiz-adv-x="776" 
d="M147 4l-42 34l469 564l43 -34zM482 18v-18h261v50h-156l91 87q47 45 47 94q0 46 -30 75t-94 29q-33 0 -63 -11.5t-44 -22.5l-13 -11l30 -44q4 4 12.5 10t30 15t42.5 9q34 0 51 -15.5t17 -41.5q0 -30 -36 -64zM48 550v50h129v-276h66v-50h-195v50h72v226h-72z" />
    <glyph glyph-name="onethird.alt" horiz-adv-x="787" 
d="M498 275v50h236v-15l-72 -113q87 -13 87 -97q0 -46 -35 -77.5t-100 -31.5q-34 0 -66 11.5t-44.5 20t-18.5 14.5l31 43q40 -35 96 -35q38 0 58 16t20 41q0 23 -16.5 37t-46.5 15h-45v16l67 105h-151zM147 4l-42 34l469 564l43 -34zM48 550v50h129v-276h66v-50h-195v50h72
v226h-72z" />
    <glyph glyph-name="onequarter.alt" horiz-adv-x="697" 
d="M381 84v36l187 206h43v-194h53v-48h-53v-84h-55v84h-175zM150 4l-43 34l469 564l43 -34zM47 550v50h130v-276h66v-50h-196v50h73v226h-73zM483 161q-7 -8 -18 -19t-12 -13l45 3h58v113h-1z" />
    <glyph glyph-name="onefifth" horiz-adv-x="740" 
d="M465 326h214v-50h-166l-3 -84q28 5 64 5q62 0 94.5 -25.5t32.5 -72.5t-34.5 -77t-99.5 -30q-34 0 -65.5 11t-45.5 20.5t-18 14.5l29 41q36 -33 96 -33q79 0 79 53q0 54 -85 54q-26 0 -46.5 -3.5t-28.5 -6.5l-8 -3l-16 10zM93 4l-42 34l469 564l43 -34zM39 600h129v-326
h-58v276h-71v50z" />
    <glyph glyph-name="onefifth.alt" horiz-adv-x="814" 
d="M539 326h215v-50h-166l-4 -84q28 5 65 5q62 0 94.5 -25.5t32.5 -72.5t-34.5 -77t-100.5 -30q-34 0 -65.5 11t-45 20.5t-17.5 14.5l29 41q35 -33 95 -33q80 0 80 53q0 54 -86 54q-25 0 -46 -3.5t-29 -6.5l-8 -3l-16 10zM179 4l-42 34l469 564l42 -34zM47 550v50h130v-276
h65v-50h-195v50h72v226h-72z" />
    <glyph glyph-name="twofifths" horiz-adv-x="872" 
d="M597 326h214v-50h-166l-3 -85q34 6 64 6q62 0 95 -25.5t33 -72.5t-35 -77t-100 -30q-34 0 -65.5 11.5t-44.5 20t-19 14.5l30 41q35 -33 95 -33q80 0 80 53q0 54 -86 54q-26 0 -46.5 -3.5t-28.5 -6.5l-8 -3l-16 10zM233 4l-42 33l469 564l43 -33zM45 277v17l148 142
q34 34 34 65q0 25 -17 40t-51 15q-10 0 -19.5 -1.5t-17.5 -4.5t-15 -6.5l-13 -6.5t-10 -6t-6 -5l-3 -2l-30 44q5 5 14.5 12.5t41 19.5t63.5 12q64 0 94 -29t30 -75q0 -51 -46 -94l-90 -87h154v-50h-261z" />
    <glyph glyph-name="threefifths" horiz-adv-x="801" 
d="M524 326h214v-50h-166l-3 -85q34 6 64 6q62 0 95.5 -25.5t33.5 -72.5t-35.5 -77t-100.5 -30q-34 0 -65.5 11.5t-44.5 20t-19 14.5l31 41q35 -33 94 -33q81 0 81 53q0 54 -86 54q-26 0 -47 -3.5t-28 -6.5l-8 -3l-16 10zM52 550v50h236v-15l-73 -114q87 -12 87 -97
q0 -46 -35 -77t-100 -31q-34 0 -65.5 11.5t-44.5 20t-19 14.5l32 43q40 -35 95 -35q39 0 58.5 15.5t19.5 40.5q0 53 -69 53h-39v16l69 105h-152zM186 4l-41 34l469 564l42 -34z" />
    <glyph glyph-name="fourfifths" horiz-adv-x="849" 
d="M31 358v36l187 206h43v-194h53v-48h-53v-84h-55v84h-175zM572 326h215v-50h-166l-4 -85q34 6 65 6q62 0 95 -25.5t33 -72.5t-35 -77t-101 -30q-34 0 -65.5 11.5t-44 20t-18.5 14.5l30 41q35 -33 95 -33q80 0 80 53q0 54 -87 54q-25 0 -45.5 -3.5t-28.5 -6.5l-8 -3l-16 10
zM217 4l-42 33l469 564l42 -33zM133 435q-7 -8 -18 -19t-12 -13l45 3h58v113h-1z" />
    <glyph glyph-name="onesixth" horiz-adv-x="731" 
d="M561 231q63 0 100.5 -31t37.5 -85q0 -57 -37.5 -90t-100.5 -33t-101 33t-38 90q0 58 48 119l70 93h66l-53 -69l-25 -26v-4q15 3 33 3zM120 4l-42 34l469 564l43 -34zM39 550v50h129v-326h-58v276h-71zM561 182q-37 0 -58.5 -17.5t-21.5 -50.5t21.5 -52.5t58.5 -19.5
q36 0 57.5 19.5t21.5 52.5q0 32 -21.5 50t-57.5 18z" />
    <glyph glyph-name="onesixth.alt" horiz-adv-x="800" 
d="M630 231q63 0 101 -31t38 -85q0 -57 -38 -90t-101 -33t-100.5 33t-37.5 90q0 56 47 119l70 93h66l-53 -69q-5 -7 -11.5 -13.5t-10.5 -9.5l-3 -3v-4q15 3 33 3zM193 4l-43 34l469 564l43 -34zM48 550v50h130v-276h65v-50h-195v50h72v226h-72zM630 182q-36 0 -57.5 -17.5
t-21.5 -50.5t21.5 -52.5t57.5 -19.5t58 19.5t22 52.5q0 32 -22 50t-58 18z" />
    <glyph glyph-name="fivesixths" horiz-adv-x="811" 
d="M640 231q63 0 101 -31t38 -85q0 -57 -38 -90t-101 -33t-100.5 33t-37.5 90q0 58 47 119l71 93h65l-53 -69l-24 -26v-4q15 3 32 3zM64 600h215v-50h-166l-4 -85q34 6 65 6q62 0 95 -25.5t33 -72.5t-35 -77t-101 -30q-34 0 -65.5 11.5t-44 20t-18.5 14.5l30 41
q35 -33 94 -33q81 0 81 53q0 54 -87 54q-25 0 -45.5 -3.5t-28.5 -6.5l-8 -3l-16 10zM213 4l-42 34l469 564l43 -34zM640 182q-36 0 -57.5 -17.5t-21.5 -50.5t21.5 -52.5t57.5 -19.5q37 0 58.5 19.5t21.5 52.5q0 32 -21.5 50t-58.5 18z" />
    <glyph glyph-name="oneeighth.alt" horiz-adv-x="812" 
d="M502 94q0 -42 37 -72t101 -30t101.5 30t37.5 72q0 56 -58 78q46 25 46 73q0 39 -35 64.5t-92 25.5t-92 -25.5t-35 -64.5q0 -49 45 -73q-56 -22 -56 -78zM183 4l-41 34l469 564l42 -34zM175 600v-276h66v-50h-195v50h71v226h-71v50h129zM640 150q37 0 58 -14.5t21 -38.5
q0 -23 -21.5 -39.5t-57.5 -16.5t-57.5 16.5t-21.5 39.5q0 24 21 38.5t58 14.5zM640 187q-32 0 -50.5 14.5t-18.5 35.5t19 35t50 14t50.5 -14t19.5 -35t-18.5 -35.5t-51.5 -14.5z" />
    <glyph glyph-name="three.tab_alt" 
d="M192 338h78q48 0 76 23.5t28 64.5q0 49 -34 79.5t-94 30.5q-36 0 -73 -17t-56 -35l-19 -17l-40 60q3 3 8.5 9t24 21t40 26t55.5 20.5t70 9.5q97 0 153.5 -48.5t56.5 -124.5q0 -88 -75 -133q96 -34 96 -138q0 -82 -60 -132t-164 -50q-37 0 -71.5 8t-57.5 19.5t-41 23
t-27 19.5l-8 8l41 63q7 -7 20.5 -17.5t55.5 -28.5t84 -18q64 0 101 29t37 77q0 46 -32 70.5t-90 24.5h-83v73z" />
    <glyph glyph-name="period.tab" horiz-adv-x="275" 
d="M84 45q0 23 15.5 38.5t37.5 15.5t37.5 -15.5t15.5 -38.5t-15 -38t-38 -15t-38 15t-15 38z" />
    <glyph glyph-name="comma.tab" horiz-adv-x="275" 
d="M89 45q0 23 15 38t37 15q23 0 38.5 -15.5t15.5 -38.5q0 -33 -19 -68l-40 -71h-56l36 64l16 20v4q-19 3 -31 17.5t-12 34.5z" />
    <glyph glyph-name="colon.tab" horiz-adv-x="275" 
d="M84 48q0 22 15 37.5t38 15.5t38.5 -15.5t15.5 -37.5t-15.5 -38t-38.5 -16q-22 0 -37.5 15.5t-15.5 38.5zM84 504q0 23 15.5 39t37.5 16t38 -16t16 -39q0 -22 -15.5 -37.5t-38.5 -15.5t-38 15.5t-15 37.5z" />
    <glyph glyph-name="semicolon.tab" horiz-adv-x="275" 
d="M87 47q0 23 15.5 38.5t37.5 15.5q23 0 39 -16t16 -39q0 -33 -20 -68l-40 -71h-56l36 64q3 6 7 11t6 7l3 2v4q-19 3 -31.5 17.5t-12.5 34.5zM89 504q0 23 15 39t37 16q23 0 39 -16.5t16 -38.5t-16 -37.5t-39 -15.5q-22 0 -37 15.5t-15 37.5z" />
    <glyph glyph-name="twodotleader.tab" 
d="M70 45q0 23 15.5 38.5t37.5 15.5t37.5 -15.5t15.5 -38.5t-15 -38t-38 -15t-38 15t-15 38zM372 45q0 23 15.5 38.5t37.5 15.5t37.5 -15.5t15.5 -38.5t-15 -38t-38 -15t-38 15t-15 38z" />
    <glyph glyph-name="periodcentered.tab" horiz-adv-x="275" 
d="M82 332q0 23 16 39.5t38 16.5q24 0 40 -16.5t16 -39.5t-16 -39t-40 -16q-23 0 -38.5 16t-15.5 39z" />
    <glyph glyph-name="slash.tab" 
d="M426 703l-221 -879h-82l221 879h82z" />
    <glyph glyph-name="bar.tab" 
d="M312 673v-825h-75v825h75z" />
    <glyph glyph-name="underscore.tab" 
d="M72 -88v68h403v-68h-403z" />
    <glyph glyph-name="dollar.tab" 
d="M55 59l46 63q8 -7 22 -16.5t59 -26t91 -16.5q130 0 130 95q0 43 -32.5 66.5t-106.5 44.5q-104 31 -155.5 68t-51.5 107q0 72 51 117t143 51v82h58v-82q55 -4 100 -18t62 -26l17 -13l-44 -68q-7 6 -20 14.5t-56 22.5t-90 14q-58 0 -92.5 -23.5t-34.5 -65.5q0 -28 21 -48
t46.5 -29.5t77.5 -24.5q101 -29 152 -69t51 -113t-47.5 -121t-142.5 -55v-83h-58v82q-58 3 -107 21t-69 34z" />
    <glyph glyph-name="sterling.tab" 
d="M476 76v-73h-394v73q2 1 6.5 3t15 10t18.5 18.5t14.5 30t6.5 43.5q0 23 -16 64h-65v62h42q-17 48 -17 95q0 82 60.5 144t171.5 62q34 0 64 -6.5t48.5 -16t32.5 -19.5t20 -16l5 -7l-46 -60q-4 5 -12.5 12.5t-40 20.5t-67.5 13q-71 0 -108 -40t-37 -94q0 -39 17 -88h226
v-62h-202q12 -34 12 -62q0 -63 -42 -107h287z" />
    <glyph glyph-name="Euro.tab" 
d="M382 259v-58h-197q17 -60 56.5 -95t98.5 -35q35 0 65.5 13.5t42.5 27.5l13 13l48 -62q-2 -3 -6 -7.5t-19.5 -17t-33 -22t-47 -17t-62.5 -7.5q-101 0 -162 57t-82 152h-58v58h50q-2 26 -2 41q0 25 1 38h-49v58h57q20 96 81.5 154.5t163.5 58.5q52 0 94 -18t59 -36l16 -18
l-49 -62q-5 6 -14 15t-40.5 24t-66.5 15q-60 0 -99.5 -35.5t-56.5 -97.5h198v-58h-208q-1 -13 -1 -38q0 -28 2 -41h207z" />
    <glyph glyph-name="yen.tab" 
d="M294 363l106 237h98l-151 -305h119v-58h-147v-74h147v-58h-147v-105h-83v105h-153v58h153v74h-153v58h124l-155 305h98l113 -237l15 -49z" />
    <glyph glyph-name="cent.tab" 
d="M271 36v88q-71 11 -114 59.5t-43 118.5t43 119t114 60v91h71v-91q24 -3 46.5 -10.5t32.5 -13.5l10 -6l-29 -64q-40 29 -88 29q-50 0 -83.5 -31.5t-33.5 -82.5t33.5 -81.5t83.5 -30.5q21 0 43 7t33 13l12 7l29 -63q-35 -22 -89 -30v-88h-71z" />
    <glyph glyph-name="numbersign.tab" 
d="M457 583l-36 -159h88l-11 -51h-88l-37 -164h89l-12 -52h-89l-35 -157h-55l35 157h-122l-35 -157h-55l35 157h-88l10 52h90l37 164h-90l11 51h90l36 159h55l-36 -159h122l36 159h55zM233 373l-37 -164h122l37 164h-122z" />
    <glyph glyph-name="paragraph.tab" 
d="M350 -163v271h-58q-110 0 -173.5 52t-63.5 150q0 94 61.5 144t171.5 50h145v-667h-83z" />
    <glyph glyph-name="section.tab" 
d="M50 -49l43 64q8 -7 22 -17t60 -26.5t95 -16.5q68 0 99.5 23.5t31.5 59.5q0 38 -25.5 59.5t-101.5 48.5q-97 34 -138 65.5t-41 88.5q0 54 38 84q-75 46 -75 124q0 70 55.5 112.5t163.5 42.5q65 0 117.5 -15.5t72.5 -31.5l20 -15l-46 -68q-7 6 -19.5 15t-55 24.5
t-89.5 15.5q-62 0 -92 -22.5t-30 -59.5q0 -65 117 -103q93 -32 140.5 -65.5t47.5 -90.5q0 -56 -33 -91q38 -24 54.5 -51.5t16.5 -67.5q0 -68 -54 -113t-170 -45q-67 0 -123 18t-79 36zM243 338q-28 8 -41 13q-25 -11 -25 -46q0 -27 27 -47t86 -41q51 -19 65 -25q22 18 22 49
q0 30 -32.5 51.5t-101.5 45.5z" />
    <glyph glyph-name="degree.tab" horiz-adv-x="275" 
d="M137 672q52 0 84.5 -31t32.5 -77t-32.5 -76.5t-84.5 -30.5t-84.5 30.5t-32.5 76.5t32.5 77t84.5 31zM137 628q-30 0 -49 -18.5t-19 -45.5q0 -26 19 -44t49 -18q31 0 49.5 18t18.5 44q0 27 -18.5 45.5t-49.5 18.5z" />
    <glyph glyph-name="percent.tab" 
d="M167 613q62 0 97.5 -38t35.5 -93t-35.5 -94.5t-97.5 -39.5t-97.5 39.5t-35.5 94.5t35.5 93t97.5 38zM167 554q-31 0 -47.5 -21t-16.5 -51q0 -32 16.5 -53.5t47.5 -21.5t47.5 21.5t16.5 53.5q0 31 -16.5 51.5t-47.5 20.5zM69 6l-49 43l455 547l50 -44zM380 258
q62 0 97.5 -38t35.5 -94t-35.5 -95t-97.5 -39q-61 0 -96.5 39t-35.5 95q0 55 35.5 93.5t96.5 38.5zM380 198q-30 0 -46.5 -20.5t-16.5 -51.5t16.5 -53t46.5 -22q31 0 47.5 21.5t16.5 53.5q0 31 -16.5 51.5t-47.5 20.5z" />
    <glyph glyph-name="quotedbl.tab" 
d="M261 657l-41 -194h-52v15l18 194h75v-15zM393 657l-40 -194h-52v15l19 194h73v-15z" />
    <glyph glyph-name="quotesingle.tab" horiz-adv-x="275" 
d="M190 657l-41 -194h-52v15l19 194h74v-15z" />
    <glyph glyph-name="plus.tab" 
d="M310 504v-161h162v-67h-162v-156h-69v156h-163v67h163v161h69z" />
    <glyph glyph-name="minus.tab" 
d="M76 264v68h393v-68h-393z" />
    <glyph glyph-name="divide.tab" 
d="M219 142q0 23 16.5 39.5t39.5 16.5t39.5 -16.5t16.5 -39.5t-16.5 -39t-39.5 -16t-39.5 16t-16.5 39zM219 456q0 23 16.5 39.5t39.5 16.5t39.5 -16.5t16.5 -39.5t-16.5 -39t-39.5 -16t-39.5 16t-16.5 39zM78 263v68h394v-68h-394z" />
    <glyph glyph-name="equal.tab" 
d="M91 354v68h368v-68h-368zM91 164v67h368v-67h-368z" />
    <glyph glyph-name="multiply.tab" 
d="M121 102l-48 47l154 154l-154 154l48 47l153 -154l154 154l48 -47l-154 -154l154 -154l-48 -47l-154 153z" />
    <glyph glyph-name="less.tab" 
d="M363 44l-241 232v23l241 232l48 -50l-202 -194l202 -193z" />
    <glyph glyph-name="greater.tab" 
d="M428 276l-241 -232l-48 50l202 193l-202 194l48 50l241 -232v-23z" />
    <glyph glyph-name="plusminus.tab" 
d="M311 173h-69v167h-177v67h177v172h69v-172h173v-67h-173v-167zM484 104v-68h-419v68h419z" />
    <glyph glyph-name="space.tab" 
 />
    <glyph glyph-name="latinotype" horiz-adv-x="196" 
 />
    <glyph glyph-name="i.dot" horiz-adv-x="198" 
d="M99 478q-21 0 -35.5 14.5t-14.5 35.5t14.5 36t35.5 15t36 -15t15 -36t-15 -35.5t-36 -14.5zM58 0v346h82v-346h-82z" />
    <glyph glyph-name="zero.numr" horiz-adv-x="375" 
d="M187 609q74 0 117 -50.5t43 -122.5q0 -70 -43 -120t-117 -50q-73 0 -116 50t-43 120q0 72 43 122.5t116 50.5zM187 555q-45 0 -69.5 -34t-24.5 -85q0 -49 24.5 -82t69.5 -33t70 33t25 82q0 51 -25 85t-70 34z" />
    <glyph glyph-name="one.numr" horiz-adv-x="199" 
d="M18 550v50h129v-326h-57v276h-72z" />
    <glyph glyph-name="two.numr" horiz-adv-x="312" 
d="M26 274v18l147 141q34 32 34 64q0 57 -67 57q-10 0 -19.5 -1.5t-17.5 -4.5t-15 -6.5t-13 -7.5t-10 -6.5t-7 -5.5l-3 -2l-30 44q5 5 15 12.5t41.5 20t63.5 12.5q63 0 93.5 -29t30.5 -75q0 -48 -46 -94l-91 -87h155v-50h-261z" />
    <glyph glyph-name="three.numr" horiz-adv-x="313" 
d="M36 550v50h236v-15l-73 -114q87 -12 87 -97q0 -46 -35 -77t-100 -31q-34 0 -65.5 11.5t-44.5 20t-19 14.5l32 43q40 -35 95 -35q39 0 58.5 15.5t19.5 40.5q0 50 -63 53h-45v16l69 105h-152z" />
    <glyph glyph-name="four.numr" horiz-adv-x="321" 
d="M18 358v36l187 206h43v-194h53v-48h-53v-84h-55v84h-175zM88 405v-2l42 3h63v66q0 31 1 51h-2l-73 -86z" />
    <glyph glyph-name="five.numr" horiz-adv-x="313" 
d="M52 600h214v-50h-166l-3 -85q34 6 64 6q62 0 95 -25.5t33 -72.5t-35 -77t-100 -30q-34 0 -65.5 11.5t-44.5 20t-19 14.5l30 41q36 -34 95 -34q80 0 80 54q0 55 -86 55q-21 0 -42 -3.5t-31 -6.5l-10 -4l-16 10z" />
    <glyph glyph-name="six.numr" horiz-adv-x="325" 
d="M166 504q63 0 101 -31t38 -85q0 -57 -38 -90t-101 -33t-101 33t-38 90q0 58 48 119l70 93h66l-53 -69q-5 -7 -11.5 -13.5t-10.5 -9.5l-3 -3v-4q15 3 33 3zM166 455q-36 0 -57.5 -17.5t-21.5 -50.5t21.5 -52.5t57.5 -19.5t58 19.5t22 52.5q0 32 -22 50t-58 18z" />
    <glyph glyph-name="seven.numr" horiz-adv-x="280" 
d="M268 600v-15l-128 -311h-64l117 276h-173v50h248z" />
    <glyph glyph-name="eight.numr" horiz-adv-x="333" 
d="M28 368q0 56 57 78q-46 25 -46 73q0 39 35.5 64.5t92.5 25.5q56 0 91 -25.5t35 -64.5q0 -48 -45 -73q57 -22 57 -78q0 -42 -37 -72t-101 -30t-101.5 30t-37.5 72zM167 424q-38 0 -58.5 -14.5t-20.5 -38.5t21 -40t58 -16q36 0 57 16t21 40t-20.5 38.5t-57.5 14.5zM167 461
q33 0 51.5 14.5t18.5 35.5t-19.5 35t-50.5 14t-50.5 -14t-19.5 -35t18.5 -35.5t51.5 -14.5z" />
    <glyph glyph-name="nine.numr" horiz-adv-x="327" 
d="M162 370q-62 0 -100.5 31t-38.5 85q0 56 38.5 89.5t100.5 33.5q63 0 100.5 -33t37.5 -90q0 -58 -47 -119l-71 -93h-66l54 69l24 27v2q-20 -2 -32 -2zM162 419q36 0 57.5 17.5t21.5 50.5t-21.5 52.5t-57.5 19.5q-37 0 -58.5 -19.5t-21.5 -52.5q0 -32 21.5 -50t58.5 -18z
" />
    <glyph glyph-name="caron.alt" horiz-adv-x="169" 
d="M121 562l-31 -143h-46v158h77v-15z" />
    <glyph glyph-name="acute.cap" horiz-adv-x="247" 
d="M188 771l-87 -143h-52v15l43 143h96v-15z" />
    <glyph glyph-name="hungarumlaut.cap" horiz-adv-x="415" 
d="M183 771l-77 -143h-52v15l43 143h86v-15zM347 771l-77 -143h-53v15l43 143h87v-15z" />
    <glyph glyph-name="grave.cap" horiz-adv-x="254" 
d="M140 621l-87 143v15h97l42 -143v-15h-52z" />
    <glyph glyph-name="circumflex.cap" horiz-adv-x="329" 
d="M262 628l-92 99l-93 -99h-52v15l100 143h89l100 -143v-15h-52z" />
    <glyph glyph-name="caron.cap" horiz-adv-x="341" 
d="M170 687l92 99h52v-15l-100 -143h-89l-100 143v15h52z" />
    <glyph glyph-name="breve.cap" horiz-adv-x="348" 
d="M240 795h64q0 -54 -36.5 -91.5t-93.5 -37.5t-93.5 37.5t-36.5 91.5h64q0 -30 18.5 -49t47.5 -19q28 0 47 19.5t19 48.5z" />
    <glyph glyph-name="tilde.cap" horiz-adv-x="430" 
d="M280 622q-30 0 -71 22.5t-57 22.5t-24 -8.5t-13 -25.5l-4 -13l-58 6l5 26q16 78 85 78q30 0 70 -22.5t57 -22.5q31 0 38 33l3 13l58 -5l-4 -26q-15 -78 -85 -78z" />
    <glyph glyph-name="macron.cap" horiz-adv-x="415" 
d="M78 633v52h267v-52h-267z" />
    <glyph glyph-name="dieresis.cap" horiz-adv-x="403" 
d="M63 694q0 19 14 33t33 14t33 -14t14 -33t-14 -33t-33 -14t-33 14t-14 33zM245 694q0 19 14 33t33 14t33 -14t14 -33t-14 -33t-33 -14t-33 14t-14 33z" />
    <glyph glyph-name="dotaccent.cap" horiz-adv-x="274" 
d="M79 684q0 25 16.5 42t41.5 17q24 0 40.5 -17t16.5 -42q0 -24 -16.5 -40.5t-40.5 -16.5q-25 0 -41.5 16.5t-16.5 40.5z" />
    <glyph glyph-name="ring.cap" horiz-adv-x="265" 
d="M133 629q-42 0 -70 27t-28 67t28 67t70 27q41 0 68.5 -27t27.5 -67t-27.5 -67t-68.5 -27zM176 723q0 20 -11.5 32t-31.5 12t-32.5 -12t-12.5 -32q0 -19 12.5 -31t32.5 -12t31.5 11.5t11.5 31.5z" />
    <glyph glyph-name="zero.tab" 
d="M275 -14q-117 0 -182 86.5t-65 226.5q0 141 65 227.5t182 86.5q118 0 182.5 -86t64.5 -228q0 -140 -64.5 -226.5t-182.5 -86.5zM275 66q80 0 121 62.5t41 170.5q0 109 -41 172t-121 63q-79 0 -120.5 -63t-41.5 -172q0 -108 41.5 -170.5t120.5 -62.5z" />
    <glyph glyph-name="one.tab" 
d="M79 525v75h269v-525h157v-75h-441v75h201v450h-186z" />
    <glyph glyph-name="two.tab" 
d="M60 0v16l260 291q34 37 48 61.5t14 53.5q0 49 -36.5 80t-92.5 31q-40 0 -79 -17.5t-55 -31t-22 -20.5l-45 66q9 9 25 23t69.5 37t111.5 23q102 0 156.5 -50t54.5 -129q0 -44 -14.5 -78.5t-50.5 -74.5l-186 -209h274v-72h-432z" />
    <glyph glyph-name="three.tab" 
d="M275 289h-90v25l153 210h-263v76h400v-16l-171 -234q87 -2 136.5 -48.5t49.5 -128.5q0 -81 -59.5 -134t-165.5 -53q-21 0 -41.5 3t-38 7.5t-34 10.5t-29.5 13t-24.5 13.5t-20.5 13t-14.5 11t-9.5 8.5l-4 3q12 18 42 65q8 -8 23 -19.5t60 -30.5t89 -19q67 0 104 31.5
t37 81.5t-35 80.5t-94 30.5z" />
    <glyph glyph-name="four.tab" 
d="M25 139v74l341 387h61v-385h86v-76h-86v-139h-83v139h-319zM122 219v-4h222v252l-202 -231z" />
    <glyph glyph-name="five.tab" 
d="M458 524h-278l-5 -169q54 10 97 10q107 0 164.5 -50.5t57.5 -135.5q0 -89 -58.5 -140.5t-166.5 -51.5q-58 0 -112 20.5t-79 40.5l-25 21l42 65q8 -8 23 -19.5t60 -30.5t89 -19q66 0 103.5 31.5t37.5 87.5q0 51 -38.5 80.5t-110.5 29.5q-20 0 -38.5 -1.5t-32.5 -3.5
t-26.5 -4.5t-21 -5.5t-15 -5t-9.5 -4l-3 -1l-18 14l10 317h353v-76z" />
    <glyph glyph-name="six.tab" 
d="M286 -14q-99 0 -162.5 56t-63.5 147q0 85 54 170l151 241h101l-136 -215l-21 -28v-7q38 22 84 22q98 0 156 -51t58 -135q0 -90 -63 -145t-158 -55zM283 299q-55 0 -94.5 -31.5t-39.5 -84.5q0 -55 37.5 -87.5t96.5 -32.5q60 0 98 33t38 86q0 51 -37.5 84t-98.5 33z" />
    <glyph glyph-name="seven.tab" 
d="M66 524v76h437v-20l-274 -580h-97l253 524h-319z" />
    <glyph glyph-name="eight.tab" 
d="M275 -13q-103 0 -165.5 51t-62.5 126q0 54 27.5 93.5t78.5 59.5q-82 40 -82 133q0 70 56.5 116.5t147.5 46.5t147.5 -46.5t56.5 -116.5q0 -93 -82 -133q51 -20 78.5 -60t27.5 -93q0 -75 -62.5 -126t-165.5 -51zM275 63q62 0 102 31t40 78q0 48 -40.5 78.5t-101.5 30.5
q-62 0 -102 -31t-40 -78t40 -78t102 -31zM394 441q0 42 -33 68.5t-86 26.5t-86 -26.5t-33 -68.5q0 -41 32.5 -68t86.5 -27t86.5 27t32.5 68z" />
    <glyph glyph-name="nine.tab" 
d="M490 411q-1 -85 -55 -170l-151 -241h-100l135 215l21 28v6q-40 -21 -84 -21q-98 0 -156 51t-58 135q0 90 63 145t158 55q100 0 163.5 -56t63.5 -147zM267 301q55 0 94.5 31.5t39.5 84.5q0 55 -38 87.5t-97 32.5q-60 0 -97.5 -33t-37.5 -86q0 -51 37.5 -84t98.5 -33z" />
    <glyph glyph-name="onesuperior_alt" horiz-adv-x="243" 
d="M29 618v50h130v-276h66v-50h-196v50h73v226h-73z" />
    <glyph glyph-name="one.numr_alt" horiz-adv-x="243" 
d="M29 550v50h130v-276h66v-50h-196v50h73v226h-73z" />
    <glyph glyph-name="oneinferior_alt" horiz-adv-x="242" 
d="M29 151v50h129v-276h66v-50h-195v50h72v226h-72z" />
    <glyph glyph-name="zero.dnom" horiz-adv-x="375" 
d="M187 335q74 0 117 -50.5t43 -122.5q0 -70 -43 -120t-117 -50q-73 0 -116 50t-43 120q0 72 43 122.5t116 50.5zM187 281q-45 0 -69.5 -34t-24.5 -85q0 -49 24.5 -82t69.5 -33t70 33t25 82q0 51 -25 85t-70 34z" />
    <glyph glyph-name="one.dnom" horiz-adv-x="199" 
d="M18 276v50h130v-326h-57v276h-73z" />
    <glyph glyph-name="one.dnom_alt" horiz-adv-x="243" 
d="M29 276v50h130v-276h66v-50h-196v50h73v226h-73z" />
    <glyph glyph-name="two.dnom" horiz-adv-x="312" 
d="M26 0v18l147 141q34 32 34 64q0 57 -67 57q-10 0 -19.5 -1.5t-17.5 -4.5t-15 -6.5t-13 -7.5t-10 -6.5t-7 -5.5l-3 -2l-30 44q5 5 15 12.5t41.5 20t63.5 12.5q63 0 93.5 -29t30.5 -75q0 -48 -46 -94l-91 -87h155v-50h-261z" />
    <glyph glyph-name="three.dnom" horiz-adv-x="312" 
d="M36 276v50h236v-15l-73 -114q87 -9 87 -97q0 -46 -35 -77t-100 -31q-34 0 -65.5 11.5t-44.5 20t-19 14.5l32 43q40 -35 95 -35q39 0 58.5 15.5t19.5 40.5q0 24 -17 38.5t-50 14.5h-41v16l69 105h-152z" />
    <glyph glyph-name="four.dnom" horiz-adv-x="321" 
d="M18 84v36l187 206h43v-194h52v-48h-52v-84h-55v84h-175zM119 161q-5 -6 -12 -13.5t-11.5 -12t-5.5 -6.5l44 3h59v113h-1z" />
    <glyph glyph-name="five.dnom" horiz-adv-x="313" 
d="M52 326h214v-50h-166l-3 -85q34 6 64 6q62 0 95 -25.5t33 -72.5t-35 -77t-100 -30q-34 0 -65.5 11.5t-44.5 20t-19 14.5l30 41q36 -34 95 -34q80 0 80 54q0 55 -86 55q-21 0 -42 -3.5t-31 -6.5l-10 -4l-16 10z" />
    <glyph glyph-name="six.dnom" horiz-adv-x="325" 
d="M166 231q63 0 101 -31t38 -85q0 -57 -38 -90t-101 -33t-101 33t-38 90q0 58 48 119l70 93h66l-53 -69q-5 -8 -11.5 -14.5t-10.5 -9.5l-3 -3v-3q15 3 33 3zM166 182q-36 0 -57.5 -18t-21.5 -50q0 -33 21.5 -52.5t57.5 -19.5t58 19.5t22 52.5q0 32 -22 50t-58 18z" />
    <glyph glyph-name="seven.dnom" horiz-adv-x="280" 
d="M268 326v-15l-128 -311h-64l117 276h-173v50h248z" />
    <glyph glyph-name="eight.dnom" horiz-adv-x="333" 
d="M28 94q0 56 57 78q-46 25 -46 73q0 39 35.5 64.5t92.5 25.5q56 0 91 -25.5t35 -64.5q0 -48 -45 -73q57 -22 57 -78q0 -42 -37 -72t-101 -30t-101.5 30t-37.5 72zM167 150q-38 0 -58.5 -14.5t-20.5 -38.5t21 -40t58 -16q36 0 57 16t21 40t-20.5 38.5t-57.5 14.5zM167 187
q33 0 51.5 14.5t18.5 35.5t-19.5 35t-50.5 14t-50.5 -14t-19.5 -35t18.5 -35.5t51.5 -14.5z" />
    <glyph glyph-name="nine.dnom" horiz-adv-x="326" 
d="M160 96q-62 0 -100 31t-38 85q0 56 38 89.5t100 33.5q63 0 101 -33t38 -90q0 -58 -48 -119l-70 -93h-66l53 69l25 27v3zM160 145q36 0 58 17.5t22 50.5t-21.5 52.5t-58.5 19.5q-36 0 -57.5 -19.5t-21.5 -52.5q0 -32 21.5 -50t57.5 -18z" />
    <glyph glyph-name="zero.osf" horiz-adv-x="434" 
d="M217 354q81 0 131 -51t50 -130q0 -80 -50 -130.5t-131 -50.5t-131 50.5t-50 130.5q0 79 50 130t131 51zM217 289q-47 0 -77 -33t-30 -83q0 -51 30 -83t77 -32q48 0 77.5 32t29.5 83t-29.5 83.5t-77.5 32.5z" />
    <glyph glyph-name="one.osf" horiz-adv-x="267" 
d="M24 280v66h174v-346h-83v280h-91z" />
    <glyph glyph-name="two.osf" horiz-adv-x="391" 
d="M39 0v30l162 130q23 19 33 34.5t10 36.5q0 55 -75 55q-26 0 -53.5 -9t-41.5 -17l-14 -9l-25 57q6 5 18 12.5t52.5 20.5t86.5 13q71 0 107 -31t36 -80q0 -66 -63 -112l-96 -68l52 5h129v-68h-318z" />
    <glyph glyph-name="three.osf" horiz-adv-x="398" 
d="M35 280v66h307v-26l-126 -198q74 -4 114.5 -43.5t40.5 -110.5q0 -76 -51.5 -122.5t-142.5 -46.5q-48 0 -87 12.5t-54 25.5l-14 13l30 57q47 -41 115 -41q57 0 88.5 28t31.5 73q0 46 -30.5 73t-82.5 27h-59v26l115 187h-195z" />
    <glyph glyph-name="four.osf" horiz-adv-x="455" 
d="M18 7v54l243 285h74v-273h94v-66h-94v-200h-82v200h-235zM106 73v-5l59 5h88v165h-3l-104 -124q-9 -12 -19 -22t-15 -14z" />
    <glyph glyph-name="five.osf" horiz-adv-x="393" 
d="M65 346h266v-66h-200l-5 -150q30 4 54 4q92 0 140.5 -43.5t48.5 -120.5q0 -75 -51 -123t-146 -48q-43 0 -79.5 12t-51.5 24l-15 12l31 57q42 -36 106 -36q59 0 90.5 28t31.5 73q0 47 -31.5 74t-90.5 27q-30 0 -53.5 -4t-31.5 -8l-9 -4l-14 12z" />
    <glyph glyph-name="six.osf" horiz-adv-x="450" 
d="M234 353q84 0 138 -51t54 -130q0 -82 -53.5 -131.5t-138.5 -49.5q-86 0 -139 49.5t-53 131.5q0 40 11 73.5t39 83.5l136 232h85l-96 -167l-30 -42v-4q23 5 47 5zM234 285q-49 0 -79 -32t-30 -81t30 -81t79 -32q48 0 79 32t31 81t-31 81t-79 32z" />
    <glyph glyph-name="seven.osf" horiz-adv-x="363" 
d="M359 346v-20l-216 -509h-87l205 463h-241v66h339z" />
    <glyph glyph-name="eight.osf" horiz-adv-x="461" 
d="M65 429q0 66 46 109t120 43t120 -43t46 -109q0 -86 -74 -126q44 -19 69 -55.5t25 -84.5q0 -78 -52 -124.5t-134 -46.5t-134.5 46.5t-52.5 124.5q0 99 93 140q-72 40 -72 126zM231 266q-49 0 -77 -29t-28 -74q0 -46 28.5 -74t76.5 -28t76.5 28t28.5 74q0 45 -28.5 74
t-76.5 29zM231 336q38 0 62.5 26t24.5 65q0 38 -24.5 62t-62.5 24t-62.5 -24t-24.5 -62q0 -39 24.5 -65t62.5 -26z" />
    <glyph glyph-name="nine.osf" horiz-adv-x="441" 
d="M221 -7q-84 0 -138 51t-54 130q0 82 53.5 131.5t138.5 49.5q86 0 139 -49.5t53 -131.5q0 -40 -11 -73.5t-39 -83.5l-132 -225h-85l92 160l30 42v4q-25 -5 -47 -5zM221 61q49 0 79 31.5t30 81.5q0 49 -30 81t-79 32q-48 0 -78.5 -32t-30.5 -81t30.5 -81t78.5 -32z" />
    <glyph glyph-name="three.osf_alt" horiz-adv-x="399" 
d="M95 111h47q50 0 81.5 22.5t31.5 64.5q0 38 -26.5 62.5t-72.5 24.5q-25 0 -50 -9.5t-38 -19.5l-13 -10l-28 58q6 6 17.5 14t49.5 22t78 14q81 0 124.5 -38.5t43.5 -104.5q0 -82 -77 -125q48 -14 75 -47.5t27 -82.5q0 -68 -53 -112.5t-142 -44.5q-45 0 -83.5 12.5
t-54.5 25.5l-15 13l30 57q51 -41 118 -41q52 0 82 25.5t30 66.5q0 43 -32.5 67t-84.5 24h-65v62z" />
    <glyph glyph-name="ampersand.small" horiz-adv-x="635" 
d="M611 280h-89v-14q0 -51 -12.5 -96.5t-41 -88t-84 -68t-131.5 -25.5q-98 0 -157 52.5t-59 134.5q0 80 50 128.5t126 48.5q69 0 111.5 -39.5t42.5 -98.5v-10l-249 -71q15 -36 50.5 -57.5t86.5 -21.5q56 0 96 18.5t60.5 51t29.5 68t9 78.5v76h161v-66zM210 292
q-43 0 -71.5 -29t-29.5 -79l180 50q-6 24 -27 41t-52 17z" />
    <glyph glyph-name="dagger.small" horiz-adv-x="416" 
d="M21 142v68h153v169h69v-169h151v-68h-151l-8 -392h-54l-7 392h-153z" />
    <glyph glyph-name="daggerdbl.small" horiz-adv-x="458" 
d="M42 180v68h153v130h69v-130h152v-68h-152v-126h152v-68h-152l-7 -236h-54l-8 236h-153v68h153v126h-153z" />
    <glyph glyph-name="ampersand.alt" horiz-adv-x="608" 
d="M589 0h-94l-43 56q-71 -69 -186 -69q-102 0 -161 52.5t-59 133.5q0 75 46 125t126 62l-128 167v72h375v-71h-272l254 -333q10 38 12 94v68h79v-68q-2 -96 -37 -165l88 -116v-8zM271 58q88 0 135 57l-140 183h-2q-58 0 -94 -33.5t-36 -86.5t37.5 -86.5t99.5 -33.5z" />
    <glyph glyph-name="asterisk.small" horiz-adv-x="375" 
d="M89 341l69 70l-97 17l-27 9l19 60l27 -9l90 -43l-13 97v29h63v-29l-14 -97l89 43l27 9l18 -61l-27 -8l-95 -17l68 -70l17 -24l-51 -36l-17 23l-48 87l-47 -87l-16 -23l-51 36z" />
    <glyph glyph-name="copyright.small" horiz-adv-x="477" 
d="M238 372q93 0 149 -57.5t56 -142.5q0 -84 -56 -141.5t-149 -57.5q-92 0 -148 57.5t-56 141.5q0 85 56 142.5t148 57.5zM238 348q-82 0 -131 -51t-49 -125t49 -124.5t131 -50.5t131.5 50.5t49.5 124.5q0 75 -49.5 125.5t-131.5 50.5zM301 113l24 -31q-26 -29 -81 -29
t-88.5 34.5t-33.5 84.5t33.5 84t88.5 34q25 0 45 -7t28 -13l8 -7l-24 -33q-17 17 -54 17q-34 0 -55.5 -21.5t-21.5 -53.5q0 -34 21.5 -54.5t55.5 -20.5q14 0 27.5 4t19.5 8z" />
    <glyph glyph-name="published.small" horiz-adv-x="477" 
d="M238 372q93 0 149 -57.5t56 -142.5q0 -84 -56 -141.5t-149 -57.5q-92 0 -148 57.5t-56 141.5q0 85 56 142.5t148 57.5zM238 348q-82 0 -131 -51t-49 -125t49 -124.5t131 -50.5t131.5 50.5t49.5 124.5q0 75 -49.5 125.5t-131.5 50.5zM152 56v231h100q46 0 74 -24t28 -65
q0 -40 -27.5 -63t-75.5 -23h-52v-56h-47zM304 198q0 48 -59 48h-46v-94h46q59 0 59 46z" />
    <glyph glyph-name="registered.small" horiz-adv-x="477" 
d="M238 372q93 0 149 -57.5t56 -142.5q0 -84 -56 -141.5t-149 -57.5q-92 0 -148 57.5t-56 141.5q0 85 56 142.5t148 57.5zM238 348q-82 0 -131 -51t-49 -125t49 -124.5t131 -50.5t131.5 50.5t49.5 124.5q0 75 -49.5 125.5t-131.5 50.5zM144 287h105q42 0 67 -23.5t25 -63.5
q0 -54 -46 -73v-2l45 -59v-10h-48l-47 62h-53v-62h-48v231zM240 246h-48v-88h48q52 0 52 42q0 46 -52 46z" />
    <glyph glyph-name="registered.osf.alt" horiz-adv-x="442" 
d="M44 194q0 86 49.5 132t126.5 46q76 0 127 -49t51 -129q0 -79 -51 -128t-127 -49q-75 0 -125.5 49t-50.5 128zM68 194q0 -69 43.5 -111t108.5 -42q66 0 110 42.5t44 110.5q0 69 -44 111.5t-110 42.5t-109 -40t-43 -114zM140 283h84q36 0 58 -17.5t22 -47.5q0 -38 -34 -57
l32 -47v-10h-38l-32 47h-53v-47h-39v179zM223 249h-44v-64h43q43 0 43 32q0 14 -11.5 23t-30.5 9z" />
    <glyph glyph-name="trademark.small" horiz-adv-x="706" 
d="M398 173h-56v269h27l118 -120q9 9 59 58.5t61 61.5h27v-269h-56v168l-84 -84h-14l-82 83v-167zM295 442v-49h-100v-220h-56v220h-99v49h255z" />
    <glyph glyph-name="servicemark.small" horiz-adv-x="694" 
d="M394 173h-56v269h26l119 -120q9 9 59 58.5t61 61.5h26v-269h-56v167l-83 -83h-14l-82 83v-167zM54 201l27 37q35 -27 84 -27q58 0 58 29q0 14 -15.5 23.5t-52.5 21.5q-50 15 -73.5 34t-23.5 51q0 35 29 56t79 21q32 0 59 -6.5t38 -13.5l11 -7l-25 -41q-29 22 -81 22
q-53 0 -53 -30q0 -14 15.5 -23t49.5 -19q52 -16 76.5 -33.5t24.5 -50.5q0 -34 -28 -56t-84 -22q-33 0 -62 8.5t-41 16.5z" />
    <glyph glyph-name="ordfeminine.small" horiz-adv-x="341" 
d="M35 250q0 39 30 61t82 22q62 0 86 -26v16q0 76 -85 76q-12 0 -24.5 -2t-22 -4.5t-16.5 -5t-11 -4.5l-5 -2l-18 45q47 22 102 22q137 0 137 -128v-147h-42l-7 35h-3q-22 -42 -100 -42q-45 0 -74 23.5t-29 60.5zM91 254q0 -21 16.5 -33t45.5 -12q36 0 57.5 12.5t21.5 30.5
t-20.5 31.5t-53.5 13.5q-32 0 -49.5 -12t-17.5 -31z" />
    <glyph glyph-name="ordmasculine.small" horiz-adv-x="354" 
d="M36 307q0 64 38 102.5t102 38.5q62 0 100 -38.5t38 -102.5q0 -62 -38 -101t-100 -39q-63 0 -101.5 38.5t-38.5 101.5zM258 307q0 41 -22 66t-60 25q-39 0 -61 -25t-22 -66q0 -40 22.5 -65t60.5 -25t60 25t22 65z" />
    <glyph glyph-name="asciicircum.small" horiz-adv-x="480" 
d="M327 375l-87 118l-85 -118h-60v15l121 164h48l121 -164v-15h-58z" />
    <glyph glyph-name="asciitilde.small" horiz-adv-x="468" 
d="M306 462q22 0 41 5t27 11l7 5l26 -51q-31 -34 -99 -34q-26 0 -72.5 12.5t-74.5 12.5q-22 0 -40.5 -5.5t-26.5 -10.5l-8 -5l-25 51q31 34 98 34q27 0 73 -12.5t74 -12.5z" />
    <glyph glyph-name="numbersign.small" horiz-adv-x="505" 
d="M397 346l-18 -82h95l-11 -51h-95l-18 -82h93l-12 -52h-93l-17 -79h-56l17 79h-104l-17 -79h-56l17 79h-91l12 52h91l18 82h-89l11 51h90l18 82h56l-18 -82h104l18 82h55zM208 213l-18 -82h104l18 82h-104z" />
    <glyph glyph-name="percent.small" horiz-adv-x="545" 
d="M155 0h-52v10l274 332h54v-10zM518 92q0 -42 -27 -71t-76 -29t-76.5 29.5t-27.5 70.5q0 42 27.5 71.5t76.5 29.5q48 0 75.5 -29.5t27.5 -71.5zM355 92q0 -26 16 -44t44 -18t43 18t15 44t-15 44.5t-43 18.5t-44 -18.5t-16 -44.5zM235 253q0 -42 -27 -71t-76 -29
t-76.5 29.5t-27.5 70.5q0 42 27.5 71.5t76.5 29.5q48 0 75.5 -29.5t27.5 -71.5zM73 253q0 -26 15.5 -44t43.5 -18t43.5 18t15.5 44t-15.5 44.5t-43.5 18.5t-43.5 -18.5t-15.5 -44.5z" />
    <glyph glyph-name="perthousand.small" horiz-adv-x="783" 
d="M155 0h-52v10l274 332h54v-10zM518 92q0 -42 -27 -71t-76 -29t-76.5 29.5t-27.5 70.5q0 42 27.5 71.5t76.5 29.5q48 0 75.5 -29.5t27.5 -71.5zM355 92q0 -26 16 -44t44 -18t43 18t15 44t-15 44.5t-43 18.5t-44 -18.5t-16 -44.5zM235 253q0 -42 -27 -71t-76 -29
t-76.5 29.5t-27.5 70.5q0 42 27.5 71.5t76.5 29.5q48 0 75.5 -29.5t27.5 -71.5zM73 253q0 -26 15.5 -44t43.5 -18t43.5 18t15.5 44t-15.5 44.5t-43.5 18.5t-43.5 -18.5t-15.5 -44.5zM755 92q0 -41 -27.5 -70.5t-76.5 -29.5t-76.5 29.5t-27.5 70.5q0 42 27.5 71.5t76.5 29.5
t76.5 -29.5t27.5 -71.5zM592 92q0 -26 15.5 -44t43.5 -18t43.5 18t15.5 44t-15.5 44.5t-43.5 18.5t-43.5 -18.5t-15.5 -44.5z" />
    <glyph glyph-name="plus.small" horiz-adv-x="381" 
d="M228 326v-122h117v-68h-117v-116h-69v116h-123v68h123v122h69z" />
    <glyph glyph-name="minus.small" horiz-adv-x="388" 
d="M39 136v68h311v-68h-311z" />
    <glyph glyph-name="plusminus.small" horiz-adv-x="362" 
d="M212 346v-80h97v-58h-97v-88h-59v88h-101v58h101v80h59zM52 20v58h257v-58h-257z" />
    <glyph glyph-name="multiply.small" horiz-adv-x="361" 
d="M89 306l90 -90l94 93l47 -48l-93 -93l88 -87l-47 -48l-88 88l-85 -85l-48 48l85 84l-90 90z" />
    <glyph glyph-name="divide.small" horiz-adv-x="395" 
d="M152 48q0 19 13 32t32 13t32 -13t13 -32t-13 -32t-32 -13t-32 12.5t-13 32.5zM152 291q0 19 13 32.5t32 13.5t32 -13.5t13 -32.5t-13 -32t-32 -13t-32 13t-13 32zM42 144v48h310v-48h-310z" />
    <glyph glyph-name="equal.small" horiz-adv-x="460" 
d="M51 228v63h358v-63h-358zM51 53v63h358v-63h-358z" />
    <glyph glyph-name="less.small" horiz-adv-x="283" 
d="M197 0l-167 162v23l167 162l49 -50l-130 -124l130 -123z" />
    <glyph glyph-name="greater.small" horiz-adv-x="283" 
d="M253 162l-167 -162l-49 50l129 123l-129 124l49 50l167 -162v-23z" />
    <glyph glyph-name="quotedbl.small" horiz-adv-x="328" 
d="M148 460l-41 -194h-52v15l19 194h74v-15zM280 460l-40 -194h-51v15l18 194h73v-15z" />
    <glyph glyph-name="quotesingle.small" horiz-adv-x="195" 
d="M148 460l-41 -194h-52v15l19 194h74v-15z" />
    <glyph glyph-name="degree.small" horiz-adv-x="316" 
d="M158 481q52 0 84.5 -31t32.5 -77t-32.5 -76.5t-84.5 -30.5t-84.5 30.5t-32.5 76.5t32.5 77t84.5 31zM158 437q-31 0 -49 -18t-18 -46q0 -26 18 -44t49 -18q30 0 49 18t19 44q0 27 -19 45.5t-49 18.5z" />
    <glyph glyph-name="paragraph.small" horiz-adv-x="475" 
d="M328 -250v200h-58q-110 0 -173.5 51.5t-63.5 149.5q0 94 61.5 144.5t171.5 50.5h145v-596h-83z" />
    <glyph glyph-name="section.small" horiz-adv-x="372" 
d="M183 355q45 0 81 -6.5t50 -12.5l13 -7l-24 -60q-36 21 -110 21q-73 0 -73 -40q0 -15 13.5 -27t27.5 -18t41 -15q73 -26 95 -45q26 -23 26 -57q0 -45 -40 -72q53 -28 53 -74t-35.5 -73.5t-109.5 -27.5q-44 0 -82.5 7.5t-54.5 14.5l-17 7l23 59q47 -23 120 -23q71 0 71 38
q0 7 -3 13t-10 11t-13.5 8.5t-18 7.5t-19.5 6.5t-22.5 6.5t-21.5 6q-46 14 -73 34.5t-27 57.5q0 46 46 75q-53 31 -53 80t38 77t109 28zM174 57q8 -3 53 -18q21 13 21 36q0 18 -16 30t-60 30l-28 10q-25 -8 -25 -37q0 -18 13 -29.5t42 -21.5z" />
    <glyph glyph-name="dollar.small" horiz-adv-x="374" 
d="M262 98q0 21 -35.5 34.5t-78 20.5t-78 31.5t-35.5 66.5t30 69t90 33v96h64v-96q34 -2 63.5 -9t41.5 -12l12 -6l-24 -62q-44 25 -117 25q-75 0 -75 -38q0 -17 23.5 -28t57 -18t67 -17t57 -33t23.5 -58q0 -42 -32.5 -70t-96.5 -33v-92h-64v91q-36 3 -66.5 10.5t-42.5 14.5
l-12 6l22 61q63 -28 128 -28q78 0 78 41z" />
    <glyph glyph-name="sterling.small" horiz-adv-x="407" 
d="M365 71v-68h-327v60q16 0 35.5 16.5t19.5 47.5q0 9 -1 13h-47v50h33q-5 18 -5 40q0 53 38 88.5t111 35.5q43 0 79.5 -12.5t51.5 -25.5l15 -12l-31 -51q-44 38 -101 38q-37 0 -57.5 -19.5t-20.5 -47.5q0 -12 4 -34h123v-50h-112q1 -3 1 -9q0 -39 -24 -66z" />
    <glyph glyph-name="Euro.small" horiz-adv-x="397" 
d="M242 -8q-63 0 -108 30.5t-63 83.5h-46v46h37q-1 9 -1 20l1 21h-37v46h46q18 53 63 84t108 31q33 0 63 -7.5t43 -14.5l14 -8l-24 -52q-35 23 -85 23q-66 0 -96 -56h128v-46h-141q-1 -8 -1 -21l1 -20h141v-46h-128q27 -56 96 -56q22 0 43.5 6t31.5 12l10 5l23 -51
q-45 -30 -119 -30z" />
    <glyph glyph-name="yen.small" horiz-adv-x="443" 
d="M239 242l78 104h92l-116 -151h89v-46h-121v-40h121v-46h-121v-63h-82v63h-117v46h117v40h-117v46h85l-116 151h92l77 -104l17 -36h6z" />
    <glyph glyph-name="florin.small" horiz-adv-x="342" 
d="M207 230v-23h91v-51h-91v-66q0 -59 -28 -92t-86 -33q-20 0 -39.5 4.5t-29.5 9.5l-9 5l22 51q23 -8 41 -8q47 0 47 61v68h-49v51h49v21q0 124 113 124q20 0 39.5 -4.5t28.5 -9.5l10 -4l-22 -51q-23 7 -41 7q-46 0 -46 -60z" />
    <glyph glyph-name="cent.small" horiz-adv-x="382" 
d="M183 -89v86q-66 14 -105.5 61t-39.5 114t39.5 115t105.5 62v90h65v-86q28 -2 52 -9t34 -14l10 -6l-24 -61q-32 23 -83 23q-50 0 -83.5 -31.5t-33.5 -82.5t33.5 -81.5t83.5 -30.5q23 0 43.5 6t29.5 12l10 5l22 -61q-32 -25 -94 -29v-82h-65z" />
    <glyph glyph-name="at.small" horiz-adv-x="775" 
d="M184 173q0 83 48.5 132t121.5 49q94 0 130 -66l13 58h50v-268q0 -34 15.5 -51t41.5 -17q49 0 81.5 51.5t32.5 137.5q0 127 -90.5 218.5t-237.5 91.5t-239 -94t-92 -237q0 -144 92.5 -237.5t245.5 -93.5q40 0 77.5 8.5t54.5 17.5l17 9l12 -21q-66 -38 -161 -38
q-163 0 -262.5 99t-99.5 256q0 153 99.5 254t255.5 101q158 0 254.5 -98t96.5 -236q0 -98 -38 -155t-105 -57q-50 0 -76 27t-26 55h-6q-3 -8 -10 -18t-22 -25t-42 -24.5t-62 -9.5q-72 0 -121 50t-49 131zM259 173q0 -50 31 -82.5t78 -32.5q48 0 79.5 31.5t31.5 83.5
q0 53 -31 84t-80 31q-47 0 -78 -32t-31 -83z" />
    <glyph glyph-name="hyphen.small" horiz-adv-x="373" 
d="M43 139v68h287v-68h-287z" />
    <glyph glyph-name="endash.small" horiz-adv-x="440" 
d="M42 137v68h356v-68h-356z" />
    <glyph glyph-name="emdash.small" horiz-adv-x="705" 
d="M43 137v67h619v-67h-619z" />
    <glyph glyph-name="slash.small" horiz-adv-x="360" 
d="M86 -91l-69 38l252 481l70 -37z" />
    <glyph glyph-name="colon.case" horiz-adv-x="239" 
d="M66 48q0 22 15 37.5t38 15.5t38.5 -15.5t15.5 -37.5t-15.5 -38t-38.5 -16q-22 0 -37.5 15.5t-15.5 38.5zM66 504q0 23 15.5 39t37.5 16t38 -16t16 -39q0 -22 -15.5 -37.5t-38.5 -15.5t-38 15.5t-15 37.5z" />
    <glyph glyph-name="semicolon.case" horiz-adv-x="253" 
d="M76 47q0 23 15.5 38.5t37.5 15.5q23 0 39 -16t16 -39q0 -33 -20 -68l-40 -71h-56l36 64q3 6 7 11t7 7l2 2v4q-19 3 -31.5 17.5t-12.5 34.5zM78 504q0 23 15 39t37 16t38.5 -16.5t16.5 -38.5t-16 -37.5t-39 -15.5q-22 0 -37 15.5t-15 37.5z" />
    <glyph glyph-name="slash.case" horiz-adv-x="361" 
d="M332 745l-221 -879h-82l221 879h82z" />
    <glyph glyph-name="bar.case" horiz-adv-x="248" 
d="M162 715v-825h-75v825h75z" />
    <glyph glyph-name="parenleft.case" horiz-adv-x="346" 
d="M323 663q-21 -13 -41 -28.5t-51 -48.5t-53 -70.5t-38.5 -94.5t-16.5 -121t16.5 -121.5t38.5 -95t53 -70.5t51 -48.5t41 -28.5l-41 -58q-24 13 -50 32t-62.5 57t-64 82.5t-47.5 111t-20 139.5t20 139.5t47.5 111t64 82t62.5 56.5t50 32z" />
    <glyph glyph-name="parenright.case" horiz-adv-x="346" 
d="M22 663l42 58q24 -13 49.5 -32t62.5 -56.5t64.5 -82t47.5 -111t20 -139.5t-20 -139.5t-47.5 -111t-64 -82.5t-62.5 -57t-50 -32l-42 58q21 13 41.5 28.5t51.5 48.5t53 70.5t38.5 95t16.5 121.5t-16.5 121t-38.5 94.5t-53 70.5t-51.5 48.5t-41.5 28.5z" />
    <glyph glyph-name="at.case" horiz-adv-x="914" 
d="M456 -202q-131 0 -228 59.5t-143.5 154t-46.5 210.5q0 87 28 164t80.5 136t133 93t179.5 34t179 -33t129 -86.5t75 -118t26 -131.5q0 -115 -47 -183t-132 -68q-28 0 -51 7.5t-35 18.5t-20.5 22t-10.5 19l-3 7h-6q-6 -13 -16.5 -25.5t-43 -28t-76.5 -15.5q-76 0 -125.5 50
t-49.5 131q0 83 49.5 132t125.5 49q93 0 130 -63l13 55h55v-218q0 -73 68 -73q50 0 78.5 47t28.5 126q0 133 -91.5 223.5t-249.5 90.5t-255.5 -101.5t-97.5 -259.5q0 -157 96 -258.5t254 -101.5q53 0 98 9.5t64 19.5l19 9l27 -58q-7 -5 -21.5 -12.5t-68.5 -20t-118 -12.5z
M551 216q0 53 -30.5 83t-79.5 30q-47 0 -78 -31.5t-31 -81.5q0 -51 31 -83t78 -32q48 0 79 31.5t31 83.5z" />
    <glyph glyph-name="bracketleft.case" horiz-adv-x="348" 
d="M87 -116v832h227v-68h-149v-696h149v-68h-227z" />
    <glyph glyph-name="backslash.case" horiz-adv-x="361" 
d="M250 -134l-221 879h82l221 -879h-82z" />
    <glyph glyph-name="bracketright.case" horiz-adv-x="348" 
d="M34 -116v68h149v696h-149v68h227v-832h-227z" />
    <glyph glyph-name="braceleft.case" horiz-adv-x="291" 
d="M30 332h16q27 0 43 19.5t16 57.5v215q0 113 126 122l12 -69q-29 -4 -40.5 -16t-11.5 -44v-217q0 -80 -56 -98v-8q56 -17 56 -95v-219q0 -31 11.5 -43t40.5 -16l-12 -69q-126 7 -126 121v216q0 37 -16 57t-43 20h-16v66z" />
    <glyph glyph-name="braceright.case" horiz-adv-x="291" 
d="M262 266h-16q-27 0 -43 -20t-16 -57v-216q0 -114 -127 -121l-11 69q29 4 40 16t11 43v219q0 78 58 95v8q-58 18 -58 98v217q0 32 -11 44t-40 16l11 69q127 -9 127 -122v-215q0 -38 16 -57.5t43 -19.5h16v-66z" />
    <glyph glyph-name="guilsinglleft.case" horiz-adv-x="301" 
d="M55 289v19l106 155h70v-8l-104 -153v-5l104 -155v-8h-70z" />
    <glyph glyph-name="guilsinglright.case" horiz-adv-x="301" 
d="M247 308v-19l-106 -155h-70v8l103 155v5l-103 153v8h70z" />
    <glyph glyph-name="guillemotleft.case" horiz-adv-x="477" 
d="M55 289v19l106 155h70v-8l-104 -153v-5l104 -155v-8h-70zM232 289v19l106 155h69v-8l-104 -153v-5l104 -155v-8h-69z" />
    <glyph glyph-name="guillemotright.case" horiz-adv-x="477" 
d="M247 308v-19l-106 -155h-70v8l103 155v5l-103 153v8h70zM422 308v-19l-106 -155h-69v8l103 155v5l-103 153v8h69z" />
    <glyph glyph-name="bullet.case" horiz-adv-x="307" 
d="M75 300q0 32 22.5 55t55.5 23q31 0 54 -23t23 -55t-22.5 -54.5t-54.5 -22.5q-33 0 -55.5 22.5t-22.5 54.5z" />
    <glyph glyph-name="section.case" horiz-adv-x="535" 
d="M37 -82l46 63q8 -7 23 -17.5t63 -28.5t96 -18q67 0 100.5 26.5t33.5 66.5q0 41 -31.5 66t-110.5 54q-86 31 -126 62t-40 87q0 55 39 84q-76 47 -76 123t56 122.5t164 46.5q65 0 117.5 -15.5t72.5 -31.5l20 -15l-46 -68q-7 6 -19.5 15t-55 24.5t-89.5 15.5
q-63 0 -94.5 -24.5t-31.5 -64.5q0 -37 30 -63.5t90 -46.5q92 -31 140 -65t48 -91q0 -55 -35 -92q73 -49 73 -123q0 -72 -56.5 -120.5t-170.5 -48.5q-69 0 -126.5 19.5t-80.5 38.5zM239 316q-14 4 -40 14q-26 -11 -26 -46q0 -27 27 -47t86 -41q32 -11 65 -26q21 21 21 49
q0 31 -32.5 52.5t-100.5 44.5z" />
    <glyph glyph-name="brokenbar.case" horiz-adv-x="249" 
d="M163 -110h-76v825h76v-825z" />
    </font>
</defs>
</svg>
