<?xml version="1.0" standalone="no"?>
<!DOCTYPE svg PUBLIC "-//W3C//DTD SVG 1.1//EN" "http://www.w3.org/Graphics/SVG/1.1/DTD/svg11.dtd" >
<svg xmlns="http://www.w3.org/2000/svg" xmlns:xlink="http://www.w3.org/1999/xlink" version="1.1">
<metadata>
Created by FontForge 20161013 at Tue Jun 20 12:36:16 2006
 By ,,,
Copyright (c) Neil Summerour - Positype, 2004. All rights reserved.
</metadata>
<defs>
<font id="AauxProOT-Bold" horiz-adv-x="504" >
  <font-face 
    font-family="AauxPro OT Bold"
    font-weight="400"
    font-stretch="normal"
    units-per-em="1000"
    panose-1="2 0 8 6 3 0 0 2 0 4"
    ascent="775"
    descent="-225"
    x-height="494"
    cap-height="698"
    bbox="-100 -233 982 988"
    underline-thickness="60"
    underline-position="-255"
    unicode-range="U+0020-FB02"
  />
<missing-glyph horiz-adv-x="1000" 
 />
    <glyph glyph-name=".notdef" horiz-adv-x="1000" 
 />
    <glyph glyph-name=".null" horiz-adv-x="0" 
 />
    <glyph glyph-name="nonmarkingreturn" horiz-adv-x="333" 
 />
    <glyph glyph-name="space" unicode=" " horiz-adv-x="300" 
 />
    <glyph glyph-name="exclam" unicode="!" horiz-adv-x="310" 
d="M217 698v-332l-5 -190h-94l-5 190v332h104zM230 57q0 -27 -19 -46t-46 -19t-46 19t-19 46t19 46t46 19t46 -19t19 -46z" />
    <glyph glyph-name="quotedbl" unicode="&#x22;" horiz-adv-x="395" 
d="M330 550h-101v148q0 21 14.5 36t36.5 15q21 0 35.5 -15t14.5 -36v-148zM166 550h-101v148q0 21 15 36t36 15t35.5 -15t14.5 -36v-148z" />
    <glyph glyph-name="numbersign" unicode="#" horiz-adv-x="730" 
d="M675 502l-22 -98h-119l-24 -109h119l-21 -98h-119l-43 -197h-102l43 197h-111l-43 -197h-102l43 197h-119l21 98h120l24 109h-120l22 98h119l43 196h102l-43 -196h111l43 196h101l-43 -196h120zM432 404h-111l-24 -109h111z" />
    <glyph glyph-name="dollar" unicode="$" horiz-adv-x="528" 
d="M490 231q0 -74 -49.5 -121t-121.5 -58v-52h-95v53q-129 20 -171 132l92 35q22 -56 79 -71v179q-34 8 -58 17.5t-50 26.5t-39.5 45.5t-13.5 66.5q0 68 47 107.5t114 48.5v58h95v-59q94 -16 145 -106l-84 -46q-26 44 -61 54v-140q37 -9 63 -19.5t53 -29.5t41 -49.5
t14 -71.5zM224 424v120q-29 -5 -47 -20.5t-18 -39.5q0 -41 65 -60zM394 231q0 30 -19 46.5t-56 27.5v-156q75 19 75 82z" />
    <glyph glyph-name="percent" unicode="%" horiz-adv-x="818" 
d="M763 186q0 -81 -29 -127q-44 -69 -125 -69q-83 0 -125 69q-29 46 -29 127q0 82 29 128q42 69 125 69q81 0 125 -69q29 -46 29 -128zM617 698l-320 -698h-96l320 698h96zM363 511q0 -82 -29 -127q-42 -70 -125 -70t-125 70q-29 45 -29 127t29 127q44 70 125 70
q83 0 125 -70q29 -45 29 -127zM676 186q0 58 -16 84q-18 28 -51 28t-51 -28q-17 -28 -17 -84q0 -55 17 -83q18 -29 51 -29t51 29q16 26 16 83zM277 511q0 55 -17 84q-18 28 -51 28t-51 -28q-16 -28 -16 -84t16 -84q18 -28 51 -28t51 28q17 29 17 84z" />
    <glyph glyph-name="ampersand" unicode="&#x26;" horiz-adv-x="707" 
d="M595 84l-57 -84q-57 43 -69 53q-78 -63 -200 -63q-98 0 -168 54t-70 150q0 125 126 206q-52 82 -52 148q0 69 45 113t114 44q68 0 110.5 -42.5t42.5 -109.5q0 -101 -117 -178q77 -99 157 -178q30 56 30 147h98q2 -125 -53 -212q13 -11 33 -25.5t30 -22.5zM314 553
q0 52 -50 52q-56 0 -56 -57q0 -42 35 -96q71 47 71 101zM391 123q-91 87 -176 197q-41 -27 -61.5 -55t-20.5 -71q0 -50 42 -78t94 -28q69 0 122 35z" />
    <glyph glyph-name="quotesingle" unicode="'" horiz-adv-x="231" 
d="M166 550h-101v148q0 21 15 36t36 15t35.5 -15t14.5 -36v-148z" />
    <glyph glyph-name="parenleft" unicode="(" horiz-adv-x="343" 
d="M319 0h-131q-70 68 -108.5 160.5t-38.5 188.5q0 95 39 188.5t108 160.5h131q-87 -71 -131 -163t-44 -186q0 -199 175 -349z" />
    <glyph glyph-name="parenright" unicode=")" horiz-adv-x="343" 
d="M319 349q0 -96 -39 -188.5t-109 -160.5h-130q175 150 175 349q0 94 -44 186t-131 163h130q70 -67 109 -160.5t39 -188.5z" />
    <glyph glyph-name="asterisk" unicode="*" horiz-adv-x="467" 
d="M422 547l-124 -36l79 -103l-70 -51l-73 107l-74 -107l-70 51l80 103l-125 36l27 83l122 -44l-4 130h87l-4 -130l123 44z" />
    <glyph glyph-name="plus" unicode="+" horiz-adv-x="526" 
d="M481 231h-175v-175h-86v175h-175v85h175v176h86v-176h175v-85z" />
    <glyph glyph-name="comma" unicode="," horiz-adv-x="250" 
d="M185 0l-85 -131h-35v201q0 24 18 41t42 17t42 -17t18 -41v-70z" />
    <glyph glyph-name="hyphen" unicode="-" horiz-adv-x="417" 
d="M352 233h-287v81h287v-81z" />
    <glyph glyph-name="period" unicode="." horiz-adv-x="267" 
d="M202 60q0 -28 -20 -48t-49 -20q-28 0 -48 20t-20 48t20 48t48 20q29 0 49 -20t20 -48z" />
    <glyph glyph-name="slash" unicode="/" horiz-adv-x="438" 
d="M433 774l-326 -850h-102l326 850h102z" />
    <glyph glyph-name="zero" unicode="0" horiz-adv-x="593" 
d="M543 349q0 -64 -11 -121.5t-36.5 -113t-76.5 -88.5t-122 -33t-122 33t-77 88.5t-37 113t-11 121.5t11 121.5t37 112.5t77 87.5t122 32.5q57 0 101.5 -22.5t71 -57.5t44 -83.5t23.5 -94.5t6 -96zM442 349q0 45 -5.5 85t-20 81.5t-45 66t-74.5 24.5t-75 -24.5t-45 -66
t-19.5 -81t-5.5 -85.5q0 -35 3 -67t12.5 -68.5t24.5 -62.5t42 -43.5t63 -17.5q44 0 74.5 25t45 67t20 82t5.5 85z" />
    <glyph glyph-name="one" unicode="1" horiz-adv-x="413" 
d="M283 0h-105v559l-97 -64l-51 81l191 122h62v-698z" />
    <glyph glyph-name="two" unicode="2" horiz-adv-x="565" 
d="M515 0h-465v81q65 162 187 253q13 10 48.5 32t54.5 36.5t37 41.5t18 58q0 49 -36.5 77.5t-87.5 28.5q-89 0 -130 -96l-90 41q31 72 87.5 112.5t132.5 40.5q95 0 160.5 -55.5t65.5 -149.5q0 -42 -10 -73.5t-32 -55t-42 -38.5t-56 -38.5t-57 -39.5q-86 -65 -131 -157h346
v-99z" />
    <glyph glyph-name="three" unicode="3" horiz-adv-x="550" 
d="M500 205q0 -96 -65.5 -154t-164.5 -58q-173 0 -230 171l99 31q35 -102 132 -102q54 0 89 31.5t35 80.5q0 118 -164 117v82q80 0 114.5 25.5t34.5 77.5q0 41 -34 70.5t-80 29.5q-86 0 -119 -95l-96 38q34 82 86.5 119t128.5 37q92 0 155 -55t63 -144q0 -42 -17 -80
t-50 -60q41 -26 62 -69t21 -93z" />
    <glyph glyph-name="four" unicode="4" horiz-adv-x="563" 
d="M528 169h-65v-169h-102v169h-331v77l296 452h114l-283 -433h204v219l102 -15v-204h65v-96z" />
    <glyph glyph-name="five" unicode="5" horiz-adv-x="547" 
d="M507 240q0 -110 -65 -178.5t-175 -68.5q-169 0 -222 162l95 36q32 -100 128 -100q66 0 101.5 40.5t35.5 108.5q0 67 -34.5 107t-100.5 40q-63 0 -116 -50h-82v361h392v-98h-294v-144q53 28 99 28q111 0 174.5 -67t63.5 -177z" />
    <glyph glyph-name="six" unicode="6" horiz-adv-x="555" 
d="M515 218q0 -98 -65.5 -161t-163.5 -63q-105 0 -170.5 68t-65.5 173q0 144 65 262t186 201h136q-92 -65 -154 -129t-100 -149q47 33 114 33q100 0 159 -67t59 -168zM414 218q0 58 -35 97.5t-92 39.5q-64 0 -99.5 -34.5t-35.5 -98.5q0 -53 40.5 -92t94.5 -39t90.5 36.5
t36.5 90.5z" />
    <glyph glyph-name="seven" unicode="7" horiz-adv-x="507" 
d="M477 616q-49 -52 -85.5 -107t-68.5 -129.5t-47.5 -170.5t-12.5 -209h-105q-1 205 48.5 345t134.5 255h-213v-47h-98v145h447v-82z" />
    <glyph glyph-name="eight" unicode="8" horiz-adv-x="546" 
d="M506 207q0 -97 -67.5 -155.5t-165.5 -58.5t-165.5 58.5t-67.5 155.5q0 49 23 92.5t64 67.5q-32 23 -50.5 60.5t-18.5 78.5q0 87 63.5 142.5t151.5 55.5t151.5 -55.5t63.5 -142.5q0 -94 -64 -139q82 -48 82 -160zM385 506q0 44 -33.5 72.5t-78.5 28.5t-79 -28.5t-34 -72.5
q0 -49 32 -74t81 -25q50 0 81 25t31 74zM403 207q0 56 -36.5 88t-93.5 32q-58 0 -94.5 -31.5t-36.5 -88.5q0 -53 38.5 -84.5t92.5 -31.5t92 31.5t38 84.5z" />
    <glyph glyph-name="nine" unicode="9" horiz-adv-x="542" 
d="M497 450q0 -274 -245 -450h-140q98 71 158.5 134.5t97.5 149.5q-53 -29 -102 -29q-95 0 -160.5 65t-65.5 160q0 94 65 159.5t159 65.5q108 0 170.5 -73t62.5 -182zM393 480q0 54 -38 91t-92 37q-52 0 -87.5 -38t-35.5 -90t35.5 -89.5t87.5 -37.5q54 0 92 36.5t38 90.5z
" />
    <glyph glyph-name="colon" unicode=":" horiz-adv-x="267" 
d="M202 348q0 -28 -20 -48t-49 -20q-28 0 -48 20t-20 48t20 48.5t48 20.5q29 0 49 -20.5t20 -48.5zM202 60q0 -28 -20 -48t-49 -20q-28 0 -48 20t-20 48t20 48t48 20q29 0 49 -20t20 -48z" />
    <glyph glyph-name="semicolon" unicode=";" horiz-adv-x="267" 
d="M202 348q0 -28 -20 -48t-49 -20q-28 0 -48 20t-20 48t20 48.5t48 20.5q29 0 49 -20.5t20 -48.5zM193 0l-85 -131h-35v201q0 24 18 41t42 17t42 -17t18 -41v-70z" />
    <glyph glyph-name="less" unicode="&#x3c;" horiz-adv-x="510" 
d="M460 0h-133l-277 349l277 349h133l-277 -349z" />
    <glyph glyph-name="equal" unicode="=" horiz-adv-x="536" 
d="M481 307h-426v84h426v-84zM481 109h-426v84h426v-84z" />
    <glyph glyph-name="greater" unicode="&#x3e;" horiz-adv-x="510" 
d="M460 349l-277 -349h-133l277 349l-277 349h133z" />
    <glyph glyph-name="question" unicode="?" horiz-adv-x="503" 
d="M455 515q0 -91 -91 -144q-38 -23 -53 -41.5t-17 -55.5l-4 -100h-79q-10 75 -10 101q0 46 15 80t32 49t44 32q1 1 11.5 7t12.5 7.5t10.5 7.5t10.5 8.5t7 9t7 11.5t3.5 12.5t1.5 15.5q0 43 -29.5 68t-76.5 25q-48 0 -80 -29t-32 -87h-96q0 102 61 158t147 56
q84 0 144.5 -52.5t60.5 -138.5zM315 56q0 -27 -19 -46t-45 -19q-27 0 -46 19t-19 46t19 46t46 19q26 0 45 -19t19 -46z" />
    <glyph glyph-name="at" unicode="@" horiz-adv-x="729" 
d="M644 274l-17 -278l-98 6l3 51q-96 -92 -196 -57q-80 28 -104 122t16 191q24 60 64.5 107t90.5 68q86 38 157 -9q-21 98 -91 123q-68 25 -151 -34.5t-127 -175.5q-35 -90 -28 -175t54 -138l-51 -74q-80 73 -97 189t30 232q56 146 174 226t230 40q86 -32 129 -122
q60 -127 12 -292zM526 368q-11 26 -33 34q-21 7 -50 -4q-53 -24 -86.5 -87.5t-33.5 -125.5q0 -40 13 -66.5t34 -33.5q33 -11 79 24t73 103q36 92 4 156z" />
    <glyph glyph-name="A" unicode="A" horiz-adv-x="674" 
d="M664 0h-114l-78 196h-270l-78 -196h-114l277 698h100zM432 297l-95 240l-95 -240h190z" />
    <glyph glyph-name="B" unicode="B" horiz-adv-x="639" 
d="M584 204q0 -106 -66.5 -155t-176.5 -49h-266v698h250q105 0 169.5 -47.5t64.5 -149.5q0 -83 -50 -136q75 -56 75 -161zM453 501q0 57 -33 75.5t-96 18.5h-143v-187h144q62 0 95 18t33 75zM478 204q0 61 -35.5 80.5t-101.5 19.5h-160v-201h160q66 0 101.5 20t35.5 81z" />
    <glyph glyph-name="C" unicode="C" horiz-adv-x="616" 
d="M571 574l-82 -67q-29 34 -46 51t-46.5 31t-65.5 14q-180 0 -180 -254t180 -254q36 0 65.5 14t46.5 31t46 51l82 -67q-59 -68 -111 -100.5t-129 -32.5q-76 0 -133 29.5t-89.5 81t-48 113.5t-15.5 134t15.5 134t48 113.5t89.5 81t133 29.5q77 0 129.5 -32t110.5 -101z" />
    <glyph glyph-name="D" unicode="D" horiz-adv-x="649" 
d="M594 349q0 -96 -8 -152q-9 -61 -34 -101t-65.5 -60.5t-85 -28t-105.5 -7.5h-221v698h221q62 0 106 -7.5t84.5 -27.5t65.5 -60.5t34 -101.5q8 -56 8 -152zM488 349q0 124 -9 158q-15 58 -74 76q-40 12 -109 12h-115v-491h115q48 0 81 4.5t54.5 19.5t33 27.5t16.5 45.5
t6 55.5t1 75.5v17z" />
    <glyph glyph-name="E" unicode="E" horiz-adv-x="589" 
d="M539 0h-464v698h464v-103h-359v-188h314v-96h-314v-208h359v-103z" />
    <glyph glyph-name="F" unicode="F" horiz-adv-x="569" 
d="M529 595h-349v-188h313v-96h-313v-311h-105v698h454v-103z" />
    <glyph glyph-name="G" unicode="G" horiz-adv-x="644" 
d="M579 0h-97v64q-56 -73 -155 -73q-75 0 -131.5 30t-88.5 82t-47 113.5t-15 132.5q0 72 15.5 134t48 113.5t89.5 81t134 29.5t128.5 -32t111.5 -101l-82 -67q-37 46 -73 71t-85 25q-181 0 -181 -254t176 -254q74 0 112.5 56.5t38.5 135.5h-174v104h275v-391z" />
    <glyph glyph-name="H" unicode="H" horiz-adv-x="674" 
d="M599 0h-106v311h-312v-311h-106v698h106v-287h312v287h106v-698z" />
    <glyph glyph-name="I" unicode="I" horiz-adv-x="269" 
d="M189 0h-109v698h109v-698z" />
    <glyph glyph-name="J" unicode="J" horiz-adv-x="538" 
d="M473 221q0 -111 -59.5 -169.5t-171.5 -58.5q-94 0 -148 45t-79 136l102 27q16 -61 39.5 -82.5t85.5 -21.5q69 0 97.5 28t28.5 96v477h105v-477z" />
    <glyph glyph-name="K" unicode="K" horiz-adv-x="618" 
d="M603 0h-135l-287 349v-349h-106v698h106v-341l247 341h122l-251 -345z" />
    <glyph glyph-name="L" unicode="L" horiz-adv-x="513" 
d="M498 0h-423v698h105v-595h318v-103z" />
    <glyph glyph-name="M" unicode="M" horiz-adv-x="748" 
d="M673 0h-107v394l-148 -394h-89l-147 394v-394h-107v698h98l200 -533l201 533h99v-698z" />
    <glyph glyph-name="N" unicode="N" horiz-adv-x="650" 
d="M575 0h-97l-297 483v-483h-106v698h97l298 -483v483h105v-698z" />
    <glyph glyph-name="O" unicode="O" horiz-adv-x="666" 
d="M621 349q0 -73 -15.5 -134.5t-48.5 -113t-90 -81t-134 -29.5t-134 29.5t-90 81t-48.5 113t-15.5 134.5t15.5 134.5t48.5 113t90 81t134 29.5t134 -29.5t90 -81t48.5 -113t15.5 -134.5zM515 349q0 254 -182 254t-182 -254t182 -254t182 254z" />
    <glyph glyph-name="P" unicode="P" horiz-adv-x="619" 
d="M584 494q0 -105 -65 -156.5t-173 -51.5h-165v-286h-106v698h266q110 0 176.5 -49t66.5 -155zM478 494q0 61 -35.5 81t-101.5 20h-160v-211h160q137 0 137 110z" />
    <glyph glyph-name="Q" unicode="Q" horiz-adv-x="716" 
d="M661 -1h-138l-28 34q-69 -42 -152 -42q-76 0 -133.5 29.5t-90 80.5t-48.5 113.5t-16 134.5t16 134.5t48.5 113.5t90 80.5t133.5 29.5q77 0 134.5 -29.5t90 -80.5t48.5 -113.5t16 -134.5q0 -158 -61 -243zM525 349q0 254 -182 254t-182 -254t182 -254q49 0 86 18
q-40 33 -91 40v93q96 -8 158 -59q29 55 29 162z" />
    <glyph glyph-name="R" unicode="R" horiz-adv-x="626" 
d="M594 0h-123l-138 247q-14 25 -29 36.5t-40 11.5h-83v-295h-106v698h250q105 0 172 -50.5t67 -152.5q0 -71 -39 -121.5t-109 -66.5zM453 495q0 57 -33.5 78.5t-94.5 21.5h-144v-203h144q128 0 128 103z" />
    <glyph glyph-name="S" unicode="S" horiz-adv-x="630" 
d="M585 205q0 -100 -76.5 -158t-179.5 -58q-117 0 -190 57.5t-94 171.5l105 18q15 -77 57.5 -110t121.5 -33q59 0 104.5 28.5t45.5 83.5q0 39 -30 64.5t-75 35.5t-97.5 24.5t-97.5 31.5t-75 56.5t-30 98.5q0 92 69.5 139.5t165.5 47.5q100 0 160 -38.5t103 -129.5l-96 -44
q-32 64 -65 86t-102 22q-32 0 -58.5 -6t-48.5 -25.5t-22 -51.5t30 -52.5t75 -30t97.5 -25t97.5 -35t75 -63t30 -105.5z" />
    <glyph glyph-name="T" unicode="T" horiz-adv-x="564" 
d="M544 595h-209v-595h-106v595h-209v103h524v-103z" />
    <glyph glyph-name="U" unicode="U" horiz-adv-x="664" 
d="M594 296q0 -305 -262 -305t-262 305v402h106v-402q0 -97 32 -149t124 -52q48 0 80 15t48 44t22 62.5t6 80.5v401h106v-402z" />
    <glyph glyph-name="V" unicode="V" horiz-adv-x="604" 
d="M579 698l-231 -698h-92l-231 698h112l165 -520l166 520h111z" />
    <glyph glyph-name="W" unicode="W" horiz-adv-x="800" 
d="M785 698l-171 -698h-95l-119 465l-118 -465h-93l-174 698h110l113 -462l118 462h88l119 -462l112 462h110z" />
    <glyph glyph-name="X" unicode="X" horiz-adv-x="646" 
d="M621 0h-126l-172 268l-172 -268h-126l235 359l-222 339h126l159 -250l159 250h126l-222 -339z" />
    <glyph glyph-name="Y" unicode="Y" horiz-adv-x="621" 
d="M596 698l-232 -465v-233h-107v235l-232 463h118l166 -335l169 335h118z" />
    <glyph glyph-name="Z" unicode="Z" horiz-adv-x="601" 
d="M546 0h-501v80l359 515h-325v103h467v-83l-357 -511h357v-104z" />
    <glyph glyph-name="bracketleft" unicode="[" horiz-adv-x="309" 
d="M259 -76h-189v850h189v-66h-92v-717h92v-67z" />
    <glyph glyph-name="backslash" unicode="\" horiz-adv-x="438" 
d="M433 -76h-102l-326 850h102z" />
    <glyph glyph-name="bracketright" unicode="]" horiz-adv-x="309" 
d="M239 -76h-189v67h92v717h-92v66h189v-850z" />
    <glyph glyph-name="asciicircum" unicode="^" horiz-adv-x="573" 
d="M518 414l-85 -44l-147 220l-146 -220l-85 44l190 284h83z" />
    <glyph glyph-name="underscore" unicode="_" horiz-adv-x="529" 
d="M514 -89h-499v89h499v-89z" />
    <glyph glyph-name="grave" unicode="`" horiz-adv-x="348" 
d="M273 545h-82l-116 146h113z" />
    <glyph glyph-name="a" unicode="a" horiz-adv-x="495" 
d="M450 19l-98 -28l-8 26q-56 -27 -123 -27q-71 0 -123.5 44.5t-52.5 109.5t52.5 111.5t123.5 46.5h81q15 0 29 8v43q0 18 -20.5 33t-53.5 15q-77 0 -102 -63l-98 29q48 133 200 133q71 0 123.5 -42t52.5 -105v-280zM331 121v90q-14 -3 -29 -3h-81q-32 0 -53 -21t-21 -43
q0 -21 21 -40t53 -19q71 0 110 36z" />
    <glyph glyph-name="b" unicode="b" horiz-adv-x="513" 
d="M468 246q2 -103 -33 -162q-25 -45 -70.5 -69t-101.5 -24q-61 -2 -96 27v-18h-102v698h102v-224q46 27 96 27q120 0 172 -93q33 -56 33 -162zM366 246q0 79 -20 112q-24 42 -83 42t-83 -42q-10 -16 -13 -45v-135q3 -29 13 -44q23 -42 83 -42q59 0 83 42q20 34 20 112z" />
    <glyph glyph-name="c" unicode="c" 
d="M459 87q-53 -55 -93.5 -75t-94.5 -20q-105 0 -165.5 70.5t-60.5 183.5t60.5 184t165.5 71q54 0 95 -20t93 -76l-75 -66q-39 41 -61 53.5t-52 12.5q-62 0 -95 -45q-26 -35 -26 -114q0 -78 26 -113q32 -45 95 -45q30 0 52 12t61 53z" />
    <glyph glyph-name="d" unicode="d" horiz-adv-x="513" 
d="M468 15l-98 -29l-10 33q-49 -29 -109 -29q-119 2 -173 93q-33 58 -33 163q0 106 33 162q26 45 71.5 69t101.5 24q53 0 96 -21v218h103v-623zM347 314q-3 28 -12 44q-25 42 -84 42t-84 -42q-19 -33 -19 -112q-2 -76 19 -112q25 -42 84 -42q60 0 84 42q9 16 12 44v136z" />
    <glyph glyph-name="e" unicode="e" 
d="M459 205h-310q3 -46 20 -71q31 -45 101 -45q61 0 104 47l82 -61q-76 -84 -185 -84q-60 -1 -110 22.5t-78 66.5q-38 56 -38 163q0 106 38 163q59 87 179 87q109 0 167 -88q17 -25 24 -62t6.5 -70t-0.5 -68zM355 304q-3 34 -12 48q-29 42 -82 42q-91 0 -109 -90h203z" />
    <glyph glyph-name="f" unicode="f" horiz-adv-x="326" 
d="M301 698v-101q-62 0 -83 -22t-22 -81h91v-91h-91v-403h-99v403h-42v90h42q2 104 49.5 154.5t154.5 50.5z" />
    <glyph glyph-name="g" unicode="g" horiz-adv-x="513" 
d="M474 -34q-2 -8 -6.5 -19.5t-21.5 -37.5t-40 -45.5t-65.5 -35.5t-94.5 -16q-38 0 -75 10.5t-69.5 31.5t-47.5 60.5t-5 90.5l98 -30q-3 -10 -1 -21.5t5 -15.5q24 -33 95 -33q53 0 89 28.5t40 59.5q2 19 -10 30t-39 8q-12 -2 -44 -8q-119 -26 -163 2q-42 31 -40 77.5
t35 83.5q-51 47 -51 137q0 100 65 147q43 31 120 31q75 0 117 -29q4 8 4 42h103q0 -91 -48 -122q10 -30 10 -69q0 -46 -17 -85.5t-49 -62.5q-43 -31 -120 -31q-7 0 -24 2.5t-22 2.5q-30 -22 -24 -41q2 -6 11.5 -10t20.5 -2q39 5 52 9q39 12 52 15q74 12 126.5 -32.5
t33.5 -121.5zM331 323q0 48 -23 65q-25 17 -60 17t-60 -17q-22 -16 -22 -65q0 -24 6.5 -44.5t15.5 -26.5q29 -20 60 -20t60 20q9 6 16 26.5t7 44.5z" />
    <glyph glyph-name="h" unicode="h" horiz-adv-x="523" 
d="M468 0h-102v275q0 65 -18 90q-23 35 -85 35q-59 0 -83 -41q-8 -12 -13 -32v-327h-102v698h102v-218q46 22 96 22q116 0 171 -81q34 -52 34 -146v-275z" />
    <glyph glyph-name="i" unicode="i" horiz-adv-x="260" 
d="M192 662q0 -26 -18 -43.5t-43 -17.5t-43 17.5t-18 43.5t18 43.5t43 17.5t43 -17.5t18 -43.5zM182 0h-103v494h103v-494z" />
    <glyph glyph-name="j" unicode="j" horiz-adv-x="264" 
d="M199 662q0 -26 -17.5 -43.5t-43.5 -17.5t-43.5 17.5t-17.5 43.5t17.5 43.5t43.5 17.5t43.5 -17.5t17.5 -43.5zM187 -9q0 -86 -30 -135q-48 -76 -177 -76v98q66 0 86.5 25t20.5 88v503h100v-503z" />
    <glyph glyph-name="k" unicode="k" horiz-adv-x="479" 
d="M474 0h-123l-184 266v-266h-102v698h102v-424l126 220h110l-129 -226z" />
    <glyph glyph-name="l" unicode="l" horiz-adv-x="241" 
d="M196 0q-87 0 -115 51q-16 29 -16 80v567h94v-567q0 -21 5.5 -25.5t31.5 -4.5v-101z" />
    <glyph glyph-name="m" unicode="m" horiz-adv-x="790" 
d="M738 0h-105v280q0 62 -17 88q-21 33 -75 33q-51 0 -73 -39q-10 -17 -15 -51q0 -5 0.5 -15.5t0.5 -15.5v-280h-105v280q0 62 -17 88q-21 33 -78 33q-48 0 -72 -30q-12 -14 -12 -38v-333h-105v486h105v-18q31 25 84 25q102 0 148 -49q48 49 139 49q117 0 165 -73
q32 -50 32 -140v-280z" />
    <glyph glyph-name="n" unicode="n" horiz-adv-x="523" 
d="M468 0h-102v280q0 62 -18 87q-23 34 -85 34q-58 0 -84 -41q-7 -12 -12 -30v-330h-102v486h102v-15q46 22 96 22q121 0 171 -72q34 -49 34 -141v-280z" />
    <glyph glyph-name="o" unicode="o" horiz-adv-x="519" 
d="M474 243q0 -107 -35 -164q-56 -88 -179 -88q-57 -1 -105 22.5t-75 65.5q-35 57 -35 163q0 107 35 163q27 43 74.5 66t105.5 23q122 0 179 -89q35 -56 35 -162zM371 242q0 81 -20 112q-25 41 -92 41q-66 0 -91 -41q-20 -32 -20 -112q0 -79 20 -111q27 -42 91 -42
q67 0 92 42q20 32 20 111z" />
    <glyph glyph-name="p" unicode="p" horiz-adv-x="513" 
d="M468 240q0 -102 -33 -158q-25 -45 -70.5 -69t-101.5 -24q-53 0 -96 22v-231h-102v706h102v-15q43 22 96 22q56 0 101.5 -24t70.5 -69q35 -60 33 -160zM366 241q0 75 -20 109q-23 41 -83 41q-59 1 -83 -41q-10 -17 -13 -45v-128q3 -28 13 -45q24 -42 83 -42t83 42
q20 33 20 109z" />
    <glyph glyph-name="q" unicode="q" horiz-adv-x="533" 
d="M468 469l-18 -60v-629h-103v229q-43 -22 -96 -22q-56 0 -101.5 24t-71.5 69q-33 56 -33 160q0 103 33 161q26 45 71.5 69t101.5 24q60 0 109 -29l10 34zM347 176v131q-3 26 -12 44q-25 42 -84 42q-60 -1 -84 -42q-21 -36 -19 -110q0 -78 19 -111q25 -42 84 -42t84 42
q9 15 12 46z" />
    <glyph glyph-name="r" unicode="r" horiz-adv-x="399" 
d="M369 468l-45 -92q-35 20 -66 20q-35 0 -64 -19t-29 -52v-325h-100v489h100v-15q43 20 93 20q52 0 111 -26z" />
    <glyph glyph-name="s" unicode="s" horiz-adv-x="479" 
d="M439 146q0 -73 -57.5 -114t-132.5 -41q-160 0 -204 138l101 19q14 -36 37 -47.5t66 -11.5q32 0 60 13.5t28 43.5q0 27 -28.5 42t-69.5 23.5t-82 20.5t-69.5 42.5t-28.5 80.5q0 69 52 104t124 35q130 0 182 -95l-92 -45q-15 25 -36 33t-54 8q-74 0 -74 -40q0 -16 20.5 -26
t51.5 -15.5t67 -16.5t67 -26.5t51.5 -47.5t20.5 -77z" />
    <glyph glyph-name="t" unicode="t" horiz-adv-x="301" 
d="M256 402h-68v-272q0 -18 1 -22q3 -7 12 -7h44v-101h-44q-63 0 -93 50q-18 29 -18 80v272h-60v92h60v132h98v-132h68v-92z" />
    <glyph glyph-name="u" unicode="u" horiz-adv-x="528" 
d="M463 0h-102v16q-51 -24 -96 -24q-103 0 -154 54.5t-51 157.5v290h102v-290q0 -60 21.5 -85.5t81.5 -25.5q33 0 64.5 19.5t31.5 51.5v330h102v-494z" />
    <glyph glyph-name="v" unicode="v" horiz-adv-x="505" 
d="M485 494l-189 -494h-88l-188 494h110l122 -325l123 325h110z" />
    <glyph glyph-name="w" unicode="w" horiz-adv-x="783" 
d="M763 494l-164 -494h-91l-118 312l-117 -312h-91l-162 494h110l101 -312l115 312h89l115 -313l103 313h110z" />
    <glyph glyph-name="x" unicode="x" horiz-adv-x="519" 
d="M499 0h-125l-114 165l-115 -165h-125l177 253l-168 241h125l106 -156l105 156h125l-168 -241z" />
    <glyph glyph-name="y" unicode="y" 
d="M484 494l-224 -606q-19 -47 -45 -70q-43 -38 -103 -38h-47l1 102h20.5h17.5h11q20 1 30 10.5t19 31.5l29 76l-173 494h110l118 -347l126 347h110z" />
    <glyph glyph-name="z" unicode="z" horiz-adv-x="476" 
d="M431 0h-391v84l247 312h-225v98h369v-81l-249 -314h249v-99z" />
    <glyph glyph-name="braceleft" unicode="{" horiz-adv-x="410" 
d="M350 -96q-102 0 -158.5 50.5t-56.5 151.5q0 19 9.5 61t9.5 60q0 48 -22 64.5t-72 16.5v82q49 0 71.5 17t22.5 64q0 18 -9.5 58t-9.5 57q0 209 215 209v-93q-63 0 -87 -29.5t-24 -93.5q0 -17 10 -53t10 -53q0 -79 -51 -124q51 -44 51 -123q0 -17 -10 -54.5t-10 -54.5
q0 -60 26 -90t85 -29v-94z" />
    <glyph glyph-name="bar" unicode="|" horiz-adv-x="291" 
d="M196 -76h-101v850h101v-850z" />
    <glyph glyph-name="braceright" unicode="}" horiz-adv-x="410" 
d="M350 308q-50 0 -72 -16.5t-22 -64.5q0 -18 9.5 -60t9.5 -61q0 -101 -56.5 -151.5t-158.5 -50.5v94q59 -1 85 29t26 90q0 17 -10.5 54.5t-10.5 54.5q0 78 52 123q-51 45 -51 124q0 17 9.5 53t9.5 53q0 64 -23.5 93.5t-86.5 29.5v93q214 0 214 -209q0 -17 -9 -57t-9 -58
q0 -47 22 -64t72 -17v-82z" />
    <glyph glyph-name="asciitilde" unicode="~" horiz-adv-x="509" 
d="M472 295q-63 -81 -137 -81q-40 0 -90.5 32t-73.5 32q-12 0 -25.5 -10.5t-19 -18t-16.5 -23.5l-72 66q31 40 61.5 61.5t73.5 21.5q39 0 90.5 -32t73.5 -32q6 0 13 3t12 6t12 10.5t10 10.5t10 12t8 10z" />
    <glyph glyph-name="uni00A0" unicode="&#xa0;" horiz-adv-x="150" 
 />
    <glyph glyph-name="exclamdown" unicode="&#xa1;" horiz-adv-x="310" 
d="M230 416q0 -26 -19 -45.5t-46 -19.5t-46 19.5t-19 45.5q0 27 19 46t46 19t46 -19t19 -46zM217 -225h-104v333l5 189h94l5 -189v-333z" />
    <glyph glyph-name="cent" unicode="&#xa2;" horiz-adv-x="502" 
d="M457 399l-69 -63q-46 50 -71 60l-70 -319q16 -2 24 -2q32 0 56 13t61 54l69 -62q-51 -55 -91 -74.5t-95 -19.5q-22 0 -43 3l-14 -64l-83 17l17 77q-103 65 -103 220q0 109 54.5 177.5t151.5 75.5l16 77l84 -17l-15 -67q53 -14 121 -86zM230 397q-36 -10 -61 -43
q-27 -40 -27 -115q0 -77 28 -116z" />
    <glyph glyph-name="sterling" unicode="&#xa3;" horiz-adv-x="544" 
d="M499 593l-74 -64q-38 43 -63.5 58.5t-70.5 15.5q-50 0 -73.5 -32t-23.5 -83q0 -33 11 -90h130l-21 -97h-89q7 -45 7 -80q0 -57 -20 -123h268v-98h-385v70q32 72 37 127.5t-8 103.5h-79l21 97h39q-4 22 -5 33q-20 132 45 207q55 63 146 63q72 0 116 -26.5t92 -81.5z" />
    <glyph glyph-name="currency" unicode="&#xa4;" horiz-adv-x="706" 
d="M619 69q-89 -78 -214 -78q-109 0 -187 62.5t-102 168.5h-83l23 94h48l-1 35h-70l23 94h53q17 120 96.5 191t199.5 71q119 0 209 -77l-60 -87q-39 36 -70 50t-79 14q-76 0 -124.5 -43t-63.5 -119h259l-23 -94h-243l1 -35h265l-23 -94h-228q20 -62 67.5 -96.5t112.5 -34.5
q48 0 79.5 14.5t69.5 49.5z" />
    <glyph glyph-name="yen" unicode="&#xa5;" horiz-adv-x="641" 
d="M606 698l-159 -318h87l-23 -101h-114l-22 -42h156l-20 -103h-137v-134h-107v134l-159 -1l22 103h137l-22 43h-138l23 101h65l-160 318h118l168 -334l167 334h118z" />
    <glyph glyph-name="brokenbar" unicode="&#xa6;" horiz-adv-x="375" 
d="M234 383h-87v392h87v-392zM234 -76h-87v392h87v-392z" />
    <glyph glyph-name="section" unicode="&#xa7;" horiz-adv-x="531" 
d="M466 529l-87 -48q-35 66 -60.5 89.5t-50.5 23.5q-38 0 -61 -24.5t-23 -68.5q0 -32 17.5 -48.5t75.5 -30.5q187 -46 187 -198q0 -84 -46 -136q27 -40 27 -95q0 -84 -51 -138.5t-131 -54.5q-59 0 -105.5 39.5t-92.5 125.5l86 48q35 -66 60.5 -89.5t51.5 -23.5q38 0 61 25
t23 68q0 31 -17.5 47.5t-75.5 30.5q-187 45 -187 199q0 84 45 136q-26 38 -26 95q0 84 50.5 138t131.5 54q59 0 105.5 -39t92.5 -125zM366 224q0 38 -25 62.5t-87 39.5q-39 9 -63 20q-26 -26 -26 -76q0 -38 25 -62.5t87 -39.5q32 -8 63 -20q26 26 26 76z" />
    <glyph glyph-name="dieresis" unicode="&#xa8;" horiz-adv-x="467" 
d="M402 589q0 -27 -19 -46t-46 -19t-46 19t-19 46t19 46t46 19t46 -19t19 -46zM195 589q0 -27 -19 -46t-46 -19t-46 19t-19 46t19 46t46 19t46 -19t19 -46z" />
    <glyph glyph-name="copyright" unicode="&#xa9;" horiz-adv-x="790" 
d="M745 348q0 -145 -102.5 -247.5t-247.5 -102.5t-247.5 102.5t-102.5 247.5t102.5 247.5t247.5 102.5t247.5 -102.5t102.5 -247.5zM666 348q0 112 -79.5 191.5t-191.5 79.5t-191 -79.5t-79 -191.5t79 -191.5t191 -79.5t191.5 79.5t79.5 191.5zM540 473l-65 -54
q-26 32 -40.5 40.5t-32.5 8.5q-39 0 -60 -32q-18 -30 -18 -88t18 -88q22 -31 60 -31q18 0 32.5 8t40.5 40l65 -54q-37 -44 -67.5 -61.5t-70.5 -17.5q-85 0 -131 71q-31 49 -31 133t31 133q46 71 131 71q40 0 70.5 -17t67.5 -62z" />
    <glyph glyph-name="ordfeminine" unicode="&#xaa;" horiz-adv-x="430" 
d="M385 323l-92 -27l-6 20q-42 -20 -92 -20q-61 0 -105.5 38t-44.5 93t44.5 92.5t105.5 37.5h62q11 0 17 3v22q0 12 -13.5 22.5t-37.5 10.5q-44 0 -70 -39l-92 29q26 53 70 77.5t93 24.5q60 0 103 -35.5t43 -89.5v-212zM298 189h-172v79h172v-79zM274 418v48q-5 -1 -17 -1
h-62q-24 0 -39 -12t-15 -26q0 -15 15 -27t39 -12q45 0 79 30z" />
    <glyph glyph-name="guillemotleft" unicode="&#xab;" horiz-adv-x="491" 
d="M436 388l-138 -130l138 -131v-114l-228 215v60l227 214zM273 388l-138 -130l138 -131v-114l-228 215v60l228 214v-114z" />
    <glyph glyph-name="logicalnot" unicode="&#xac;" horiz-adv-x="546" 
d="M491 80h-88v135h-358v89h446v-224z" />
    <glyph glyph-name="registered" unicode="&#xae;" horiz-adv-x="790" 
d="M745 348q0 -145 -102.5 -247.5t-247.5 -102.5t-247.5 102.5t-102.5 247.5t102.5 247.5t247.5 102.5t247.5 -102.5t102.5 -247.5zM666 348q0 112 -79.5 191.5t-191.5 79.5t-191 -79.5t-79 -191.5t79 -191.5t191 -79.5t191.5 79.5t79.5 191.5zM575 151h-98q-13 22 -41 67.5
t-41 67.5q-10 19 -24 19h-25v-154h-84v395h145q55 0 87 -20q51 -32 51 -101q0 -82 -70 -110zM461 425q0 22 -12 30q-11 7 -42 7h-61v-73h61q29 0 41.5 7t12.5 29z" />
    <glyph glyph-name="macron" unicode="&#xaf;" horiz-adv-x="548" 
d="M438 575h-328v81h328v-81z" />
    <glyph glyph-name="degree" unicode="&#xb0;" horiz-adv-x="315" 
d="M270 661q0 -47 -33 -80t-79 -33q-47 0 -80 33t-33 80t33 79.5t80 32.5q46 0 79 -32.5t33 -79.5zM201 661q0 18 -12.5 31t-30.5 13t-31 -13t-13 -31t13 -31t31 -13t30.5 13t12.5 31z" />
    <glyph glyph-name="plusminus" unicode="&#xb1;" horiz-adv-x="536" 
d="M481 296h-165v-164h-96v164h-165v95h165v163h96v-163h165v-95zM481 0h-426v94h426v-94z" />
    <glyph glyph-name="twosuperior" unicode="&#xb2;" horiz-adv-x="397" 
d="M325 274h-279v65q17 44 31.5 65.5t64.5 75.5q88 92 88 111q0 29 -39 29q-17 0 -29.5 -12t-32.5 -49l-84 44q30 56 63.5 83t82.5 27q52 0 93 -32.5t41 -89.5q0 -37 -22.5 -68.5t-87.5 -96.5q-28 -28 -50 -60h160v-92z" />
    <glyph glyph-name="threesuperior" unicode="&#xb3;" horiz-adv-x="394" 
d="M332 407q0 -56 -40 -95.5t-97 -39.5q-48 0 -83 28t-51 77l88 30l5 -14q10 -30 41 -30q17 0 30 12.5t13 31.5t-13 31.5t-30 12.5h-31v92h28q17 0 28.5 10.5t11.5 25.5q0 14 -11.5 24.5t-28.5 10.5q-31 0 -39 -25l-5 -14l-88 30l5 14q14 39 49 63t78 24q54 0 93.5 -37
t39.5 -90q0 -45 -30 -80q37 -40 37 -92z" />
    <glyph glyph-name="acute" unicode="&#xb4;" horiz-adv-x="328" 
d="M263 691l-116 -146h-82l85 146h113z" />
    <glyph glyph-name="mu" unicode="&#xb5;" horiz-adv-x="533" 
d="M468 0h-102v15q-44 -22 -96 -22q-56 0 -103 22v-206h-102v685h102v-279q0 -63 21.5 -94t81.5 -31q33 0 64.5 20.5t31.5 53.5v330h102v-494z" />
    <glyph glyph-name="paragraph" unicode="&#xb6;" horiz-adv-x="598" 
d="M513 -151h-105v752h-67v-752h-106v433q-77 11 -128.5 70t-51.5 137q0 86 61.5 147.5t147.5 61.5h249v-849z" />
    <glyph glyph-name="periodcentered" unicode="&#xb7;" horiz-adv-x="272" 
d="M207 265q0 -29 -21 -50t-50 -21t-50 21t-21 50t21 50t50 21t50 -21t21 -50z" />
    <glyph glyph-name="cedilla" unicode="&#xb8;" horiz-adv-x="545" 
d="M347 -68l-66 -128h-109l95 132l-27 71l74 25z" />
    <glyph glyph-name="onesuperior" unicode="&#xb9;" horiz-adv-x="320" 
d="M235 266h-92v308l-50 -31l-46 80l133 81h55v-438z" />
    <glyph glyph-name="ordmasculine" unicode="&#xba;" horiz-adv-x="451" 
d="M406 502q0 -85 -29 -131q-48 -74 -151 -74q-49 0 -89 19.5t-62 54.5q-30 47 -30 129v2q0 83 30 130q22 36 62.5 55.5t88.5 19.5q104 0 151 -75q29 -46 29 -130zM312 189h-172v86h172v-86zM309 502q0 58 -15 83q-19 30 -68 30t-68 -30q-16 -26 -16 -83q0 -59 16 -83
q18 -30 68 -30t68 30q15 24 15 83z" />
    <glyph glyph-name="guillemotright" unicode="&#xbb;" horiz-adv-x="491" 
d="M446 228l-228 -215v114l138 131l-138 130v114l228 -214v-60zM283 228l-228 -215v114l138 131l-138 130v114l228 -214v-60z" />
    <glyph glyph-name="onequarter" unicode="&#xbc;" horiz-adv-x="804" 
d="M742 98h-26v-98h-95v98h-182v70l153 270h112l-139 -248h56v78l95 -18v-60h26v-92zM602 698l-320 -698h-98l320 698h98zM235 266h-92v308l-50 -31l-46 80l133 81h55v-438z" />
    <glyph glyph-name="onehalf" unicode="&#xbd;" horiz-adv-x="842" 
d="M777 0h-280v65q18 45 33 67t64 74q87 92 87 112q0 29 -39 29q-16 0 -28.5 -12t-32.5 -49l-85 43q31 56 64.5 83t81.5 27q53 0 93.5 -32t40.5 -89q0 -38 -23 -70.5t-87 -94.5q-30 -30 -49 -60h160v-93zM603 698l-321 -698h-98l321 698h98zM236 266h-93v308l-50 -31l-46 80
l133 81h56v-438z" />
    <glyph glyph-name="threequarters" unicode="&#xbe;" horiz-adv-x="885" 
d="M795 98h-26v-98h-95v98h-182v70l153 270h112l-139 -248h56v78l95 -18v-60h26v-92zM655 698l-320 -698h-98l320 698h98zM332 407q0 -56 -40 -95.5t-97 -39.5q-48 0 -83 28t-51 77l88 30l5 -14q10 -30 41 -30q17 0 30 12.5t13 31.5t-13 31.5t-30 12.5h-31v92h28
q17 0 28.5 10.5t11.5 25.5q0 14 -11.5 24.5t-28.5 10.5q-31 0 -39 -25l-5 -14l-88 30l5 14q14 39 49 63t78 24q54 0 93.5 -37t39.5 -90q0 -45 -30 -80q37 -40 37 -92z" />
    <glyph glyph-name="questiondown" unicode="&#xbf;" horiz-adv-x="503" 
d="M311 417q0 -27 -19 -46t-45 -19q-27 0 -46 19t-19 46q0 26 19 45.5t46 19.5q26 0 45 -19.5t19 -45.5zM455 -19q0 -102 -61 -158t-147 -56q-85 0 -145 52.5t-60 137.5q0 92 91 145q38 23 53 41t17 56l4 100h79q10 -75 10 -101q0 -66 -24.5 -101t-66.5 -60q-2 -1 -10.5 -6
t-11 -7t-9.5 -6.5t-9.5 -7l-7.5 -7.5t-7 -9.5t-4.5 -10t-3.5 -12t-1 -14.5q0 -43 29.5 -68t76.5 -25q48 0 80 29.5t32 87.5h96z" />
    <glyph glyph-name="Agrave" unicode="&#xc0;" horiz-adv-x="674" 
d="M392 775h-83l-115 146h113zM664 0h-114l-78 196h-270l-78 -196h-114l277 698h100zM432 297l-95 240l-95 -240h190z" />
    <glyph glyph-name="Aacute" unicode="&#xc1;" horiz-adv-x="674" 
d="M479 921l-115 -146h-83l85 146h113zM664 0h-114l-78 196h-270l-78 -196h-114l277 698h100zM432 297l-95 240l-95 -240h190z" />
    <glyph glyph-name="Acircumflex" unicode="&#xc2;" horiz-adv-x="674" 
d="M511 775h-117l-59 87l-58 -87h-117l120 146h110zM664 0h-114l-78 196h-270l-78 -196h-114l277 698h100zM432 297l-95 240l-95 -240h190z" />
    <glyph glyph-name="Atilde" unicode="&#xc3;" horiz-adv-x="674" 
d="M532 827q-30 -36 -58.5 -56t-66.5 -20q-36 0 -74.5 25.5t-54.5 25.5q-5 0 -9.5 -1.5t-8 -3t-7.5 -5t-6.5 -5.5t-6.5 -7t-5.5 -6.5t-5.5 -7.5t-5 -7l-68 53q57 77 123 77q33 0 73.5 -25.5t57.5 -25.5q5 0 9.5 1.5t8 3t8 5.5t7 6t7 7.5t6 7t6 8t5.5 7.5zM664 0h-114
l-78 196h-270l-78 -196h-114l277 698h100zM432 297l-95 240l-95 -240h190z" />
    <glyph glyph-name="Adieresis" unicode="&#xc4;" horiz-adv-x="674" 
d="M504 840q0 -27 -19 -46t-46 -19q-26 0 -45.5 19t-19.5 46t19.5 46t45.5 19q27 0 46 -19t19 -46zM297 840q0 -27 -19 -46t-46 -19t-46 19t-19 46t19 46t46 19t46 -19t19 -46zM664 0h-114l-78 196h-270l-78 -196h-114l277 698h100zM432 297l-95 240l-95 -240h190z" />
    <glyph glyph-name="Aring" unicode="&#xc5;" horiz-adv-x="674" 
d="M459 866q0 -50 -36 -85.5t-86 -35.5t-85.5 35.5t-35.5 85.5t35.5 86t85.5 36t86 -36t36 -86zM664 0h-114l-78 196h-270l-78 -196h-114l277 698h100zM382 866q0 19 -13 32t-32 13t-32 -13t-13 -32t13 -32t32 -13t32 13t13 32zM432 297l-95 240l-95 -240h190z" />
    <glyph glyph-name="AE" unicode="&#xc6;" horiz-adv-x="951" 
d="M906 0h-456l1 196h-219l-97 -196h-120l347 698h544v-103h-347v-181h300v-103h-300v-208h347v-103zM451 298v295h-23l-147 -295h170z" />
    <glyph glyph-name="Ccedilla" unicode="&#xc7;" horiz-adv-x="616" 
d="M571 574l-82 -67q-50 59 -81.5 77.5t-76.5 18.5q-92 0 -141 -73q-39 -61 -39 -181t39 -181q49 -73 141 -73q45 0 76.5 18.5t81.5 77.5l82 -67q-52 -60 -94.5 -89.5t-90.5 -38.5l21 -64l-67 -128h-108l94 132l-21 57q-132 11 -204 119q-56 86 -56 237t56 237
q81 121 230 121q71 0 123 -29t117 -104z" />
    <glyph glyph-name="Egrave" unicode="&#xc8;" horiz-adv-x="589" 
d="M374 775h-82l-116 146h113zM539 0h-464v698h464v-103h-359v-181h314v-103h-314v-208h359v-103z" />
    <glyph glyph-name="Eacute" unicode="&#xc9;" horiz-adv-x="589" 
d="M443 921l-116 -146h-82l84 146h114zM539 0h-464v698h464v-103h-359v-181h314v-103h-314v-208h359v-103z" />
    <glyph glyph-name="Ecircumflex" unicode="&#xca;" horiz-adv-x="589" 
d="M477 775h-117l-58 87l-59 -87h-117l121 146h110zM539 0h-464v698h464v-103h-359v-181h314v-103h-314v-208h359v-103z" />
    <glyph glyph-name="Edieresis" unicode="&#xcb;" horiz-adv-x="589" 
d="M471 840q0 -27 -19 -46t-46 -19t-46 19t-19 46t19 46t46 19t46 -19t19 -46zM264 840q0 -27 -19.5 -46t-45.5 -19q-27 0 -46 19t-19 46t19 46t46 19q26 0 45.5 -19t19.5 -46zM539 0h-464v698h464v-103h-359v-181h314v-103h-314v-208h359v-103z" />
    <glyph glyph-name="Igrave" unicode="&#xcc;" horiz-adv-x="268" 
d="M213 775h-82l-116 146h113zM186 0h-108v698h108v-698z" />
    <glyph glyph-name="Iacute" unicode="&#xcd;" horiz-adv-x="266" 
d="M257 921l-116 -146h-82l85 146h113zM188 0h-109v698h109v-698z" />
    <glyph glyph-name="Icircumflex" unicode="&#xce;" horiz-adv-x="281" 
d="M315 775h-117l-59 87l-58 -87h-117l120 146h110zM194 0h-109v698h109v-698z" />
    <glyph glyph-name="Idieresis" unicode="&#xcf;" horiz-adv-x="269" 
d="M307 840q0 -27 -19 -46t-46 -19t-46 19t-19 46t19 46t46 19t46 -19t19 -46zM100 840q0 -27 -19 -46t-46 -19t-46 19t-19 46t19 46t46 19t46 -19t19 -46zM190 0h-109v698h109v-698z" />
    <glyph glyph-name="Eth" unicode="&#xd0;" horiz-adv-x="723" 
d="M631 349q0 -91 -8 -152q-8 -62 -34.5 -103t-69.5 -60.5t-86 -26.5t-101 -7h-222v296h-41v103h41v299h222q58 0 101 -7t86 -26.5t69.5 -60.5t34.5 -103q8 -61 8 -152zM524 349q0 76 -6 139q-9 66 -50 86q-43 21 -137 21h-115v-196h155v-103h-155v-192h116q95 0 136 20
t50 87q6 60 6 138z" />
    <glyph glyph-name="Ntilde" unicode="&#xd1;" horiz-adv-x="650" 
d="M514 827q-30 -36 -58.5 -56t-66.5 -20q-36 0 -74.5 25.5t-54.5 25.5q-5 0 -9.5 -1.5t-8 -3t-7.5 -5t-6.5 -5.5t-6.5 -7t-5.5 -6.5t-5.5 -7.5t-5 -7l-68 53q57 77 123 77q33 0 73.5 -25.5t57.5 -25.5q5 0 9.5 1.5t8 3t8 5.5t7 6t7 7.5t6 7t6 8t5.5 7.5zM575 0h-97
l-297 483v-483h-106v698h97l298 -483v483h105v-698z" />
    <glyph glyph-name="Ograve" unicode="&#xd2;" horiz-adv-x="666" 
d="M410 775h-82l-116 146h114zM621 349q0 -151 -56 -237q-81 -121 -232 -121q-73 0 -133 31.5t-98 89.5q-57 86 -57 237t57 237q38 58 98 89.5t133 31.5q151 0 232 -121q56 -86 56 -237zM515 349q0 121 -40 181q-49 73 -142 73t-142 -73q-40 -60 -40 -181t40 -181
q49 -73 142 -73t142 73q40 60 40 181z" />
    <glyph glyph-name="Oacute" unicode="&#xd3;" horiz-adv-x="666" 
d="M456 921l-116 -146h-82l85 146h113zM621 349q0 -151 -56 -237q-81 -121 -232 -121q-73 0 -133 31.5t-98 89.5q-57 86 -57 237t57 237q38 58 98 89.5t133 31.5q151 0 232 -121q56 -86 56 -237zM515 349q0 121 -40 181q-49 73 -142 73t-142 -73q-40 -60 -40 -181t40 -181
q49 -73 142 -73t142 73q40 60 40 181z" />
    <glyph glyph-name="Ocircumflex" unicode="&#xd4;" horiz-adv-x="666" 
d="M508 775h-117l-59 87l-59 -87h-116l120 146h110zM621 349q0 -151 -56 -237q-81 -121 -232 -121q-73 0 -133 31.5t-98 89.5q-57 86 -57 237t57 237q38 58 98 89.5t133 31.5q151 0 232 -121q56 -86 56 -237zM515 349q0 121 -40 181q-49 73 -142 73t-142 -73
q-40 -60 -40 -181t40 -181q49 -73 142 -73t142 73q40 60 40 181z" />
    <glyph glyph-name="Otilde" unicode="&#xd5;" horiz-adv-x="666" 
d="M529 827q-30 -36 -58.5 -56t-66.5 -20q-36 0 -74.5 25.5t-54.5 25.5q-5 0 -9.5 -1.5t-8 -3t-7.5 -5t-6.5 -5.5t-6.5 -7t-5.5 -6.5t-5.5 -7.5t-5 -7l-68 53q57 77 123 77q33 0 73.5 -25.5t57.5 -25.5q5 0 9.5 1.5t8 3t8 5.5t7 6t7 7.5t6 7t6 8t5.5 7.5zM621 349
q0 -151 -56 -237q-81 -121 -232 -121q-73 0 -133 31.5t-98 89.5q-57 86 -57 237t57 237q38 58 98 89.5t133 31.5q151 0 232 -121q56 -86 56 -237zM515 349q0 121 -40 181q-49 73 -142 73t-142 -73q-40 -60 -40 -181t40 -181q49 -73 142 -73t142 73q40 60 40 181z" />
    <glyph glyph-name="Odieresis" unicode="&#xd6;" horiz-adv-x="666" 
d="M498 840q0 -27 -19 -46t-46 -19t-46 19t-19 46t19 46t46 19t46 -19t19 -46zM291 840q0 -27 -19.5 -46t-45.5 -19q-27 0 -46 19t-19 46t19 46t46 19q26 0 45.5 -19t19.5 -46zM621 349q0 -151 -56 -237q-81 -121 -232 -121q-73 0 -133 31.5t-98 89.5q-57 86 -57 237t57 237
q38 58 98 89.5t133 31.5q151 0 232 -121q56 -86 56 -237zM515 349q0 121 -40 181q-49 73 -142 73t-142 -73q-40 -60 -40 -181t40 -181q49 -73 142 -73t142 73q40 60 40 181z" />
    <glyph glyph-name="multiply" unicode="&#xd7;" horiz-adv-x="499" 
d="M435 152l-64 -64l-122 122l-121 -122l-64 64l121 122l-121 121l64 64l121 -121l122 121l64 -64l-122 -121z" />
    <glyph glyph-name="Oslash" unicode="&#xd8;" horiz-adv-x="666" 
d="M621 349q0 -73 -15.5 -134.5t-48.5 -113t-90 -81t-134 -29.5q-79 0 -138 32l-14 -23h-119l55 91q-72 95 -72 258q0 73 15.5 134.5t48.5 113t90 81t134 29.5t134 -30l13 21h119l-52 -87q74 -95 74 -262zM515 349q0 100 -29 161l-237 -396q35 -19 84 -19q182 0 182 254z
M413 586q-34 17 -80 17q-182 0 -182 -254q0 -94 27 -156z" />
    <glyph glyph-name="Ugrave" unicode="&#xd9;" horiz-adv-x="664" 
d="M421 775h-82l-116 146h114zM594 304q0 -130 -43 -201q-33 -53 -90.5 -82t-128.5 -30q-71 0 -128.5 29t-90.5 83q-43 71 -43 201v394h106v-394q0 -102 28 -148q38 -61 128 -61q92 0 128 61q28 44 28 149v393h106v-394z" />
    <glyph glyph-name="Uacute" unicode="&#xda;" horiz-adv-x="664" 
d="M461 921l-116 -146h-82l85 146h113zM594 304q0 -130 -43 -201q-33 -53 -90.5 -82t-128.5 -30q-71 0 -128.5 29t-90.5 83q-43 71 -43 201v394h106v-394q0 -102 28 -148q38 -61 128 -61q92 0 128 61q28 44 28 149v393h106v-394z" />
    <glyph glyph-name="Ucircumflex" unicode="&#xdb;" horiz-adv-x="664" 
d="M510 775h-117l-58 87l-59 -87h-117l121 146h110zM594 304q0 -130 -43 -201q-33 -53 -90.5 -82t-128.5 -30q-71 0 -128.5 29t-90.5 83q-43 71 -43 201v394h106v-394q0 -102 28 -148q38 -61 128 -61q92 0 128 61q28 44 28 149v393h106v-394z" />
    <glyph glyph-name="Udieresis" unicode="&#xdc;" horiz-adv-x="664" 
d="M503 840q0 -27 -19 -46t-46 -19t-46 19t-19 46t19 46t46 19t46 -19t19 -46zM296 840q0 -27 -19.5 -46t-45.5 -19q-27 0 -46 19t-19 46t19 46t46 19q26 0 45.5 -19t19.5 -46zM594 304q0 -130 -43 -201q-33 -53 -90.5 -82t-128.5 -30q-71 0 -128.5 29t-90.5 83
q-43 71 -43 201v394h106v-394q0 -102 28 -148q38 -61 128 -61q92 0 128 61q28 44 28 149v393h106v-394z" />
    <glyph glyph-name="Yacute" unicode="&#xdd;" horiz-adv-x="621" 
d="M432 921l-116 -146h-82l84 146h114zM596 698l-232 -465v-233h-107v235l-232 463h118l168 -334l167 334h118z" />
    <glyph glyph-name="Thorn" unicode="&#xde;" horiz-adv-x="688" 
d="M621 360q0 -55 -22.5 -100t-64.5 -71q-55 -33 -156 -33h-160v-156h-106v698h106v-135h160q101 0 156 -33q42 -26 64.5 -71t22.5 -99zM515 360q0 58 -37 82q-31 18 -100 18h-160v-201h160q69 0 100 18q37 25 37 83z" />
    <glyph glyph-name="germandbls" unicode="&#xdf;" horiz-adv-x="522" 
d="M477 248q0 -124 -57.5 -184.5t-181.5 -63.5v101q76 0 106 33.5t30 112.5q0 83 -28 120t-108 36v90q65 0 65 54q0 26 -14 42t-39 16q-49 0 -66 -32.5t-17 -85.5v-487h-102v403h-42v90h42q1 92 48 152.5t137 60.5q66 0 111 -46.5t45 -112.5q0 -41 -32 -76q103 -50 103 -223
z" />
    <glyph glyph-name="agrave" unicode="&#xe0;" horiz-adv-x="495" 
d="M328 545h-82l-116 146h113zM450 19l-98 -28l-8 26q-56 -27 -123 -27q-71 0 -123.5 44.5t-52.5 109.5t52.5 111.5t123.5 46.5h81q15 0 29 8v43q0 18 -20.5 33t-53.5 15q-75 0 -102 -70l-98 29q26 73 81.5 106.5t118.5 33.5q71 0 123.5 -42t52.5 -105v-280zM331 130v76
q-14 -3 -29 -3h-81q-32 0 -53 -18.5t-21 -40.5q0 -21 21 -38t53 -17q65 0 110 41z" />
    <glyph glyph-name="aacute" unicode="&#xe1;" horiz-adv-x="495" 
d="M376 691l-116 -146h-82l84 146h114zM450 19l-98 -28l-8 26q-56 -27 -123 -27q-71 0 -123.5 44.5t-52.5 109.5t52.5 111.5t123.5 46.5h81q15 0 29 8v43q0 18 -20.5 33t-53.5 15q-75 0 -102 -70l-98 29q26 73 81.5 106.5t118.5 33.5q71 0 123.5 -42t52.5 -105v-280z
M331 130v76q-14 -3 -29 -3h-81q-32 0 -53 -18.5t-21 -40.5q0 -21 21 -38t53 -17q65 0 110 41z" />
    <glyph glyph-name="acircumflex" unicode="&#xe2;" horiz-adv-x="495" 
d="M424 533h-117l-59 87l-58 -87h-117l120 146h110zM450 19l-98 -28l-8 26q-56 -27 -123 -27q-71 0 -123.5 44.5t-52.5 109.5t52.5 111.5t123.5 46.5h81q15 0 29 8v43q0 18 -20.5 33t-53.5 15q-75 0 -102 -70l-98 29q26 73 81.5 106.5t118.5 33.5q71 0 123.5 -42t52.5 -105
v-280zM331 130v76q-14 -3 -29 -3h-81q-32 0 -53 -18.5t-21 -40.5q0 -21 21 -38t53 -17q65 0 110 41z" />
    <glyph glyph-name="atilde" unicode="&#xe3;" horiz-adv-x="495" 
d="M446 600q-31 -37 -59.5 -56.5t-65.5 -19.5q-36 0 -74.5 25.5t-55.5 25.5q-12 0 -23.5 -8.5t-15.5 -14t-15 -21.5l-67 54q57 77 122 77q34 0 74 -25.5t57 -25.5q26 0 57 46zM450 19l-98 -28l-8 26q-56 -27 -123 -27q-71 0 -123.5 44.5t-52.5 109.5t52.5 111.5t123.5 46.5
h81q15 0 29 8v43q0 18 -20.5 33t-53.5 15q-75 0 -102 -70l-98 29q26 73 81.5 106.5t118.5 33.5q71 0 123.5 -42t52.5 -105v-280zM331 130v76q-14 -3 -29 -3h-81q-32 0 -53 -18.5t-21 -40.5q0 -21 21 -38t53 -17q65 0 110 41z" />
    <glyph glyph-name="adieresis" unicode="&#xe4;" horiz-adv-x="495" 
d="M435 589q0 -27 -19 -46t-45 -19q-27 0 -46 19t-19 46t19 46t46 19q26 0 45 -19t19 -46zM228 589q0 -27 -19 -46t-46 -19q-26 0 -45.5 19t-19.5 46t19.5 46t45.5 19q27 0 46 -19t19 -46zM450 19l-98 -28l-8 26q-56 -27 -123 -27q-71 0 -123.5 44.5t-52.5 109.5t52.5 111.5
t123.5 46.5h81q15 0 29 8v43q0 18 -20.5 33t-53.5 15q-75 0 -102 -70l-98 29q26 73 81.5 106.5t118.5 33.5q71 0 123.5 -42t52.5 -105v-280zM331 130v76q-14 -3 -29 -3h-81q-32 0 -53 -18.5t-21 -40.5q0 -21 21 -38t53 -17q65 0 110 41z" />
    <glyph glyph-name="aring" unicode="&#xe5;" horiz-adv-x="495" 
d="M378 649q0 -50 -35.5 -86t-85.5 -36t-86 36t-36 86t35.5 85.5t86.5 35.5q50 0 85.5 -35.5t35.5 -85.5zM450 19l-98 -28l-8 26q-56 -27 -123 -27q-71 0 -123.5 44.5t-52.5 109.5t52.5 111.5t123.5 46.5h81q15 0 29 8v43q0 18 -20.5 33t-53.5 15q-75 0 -102 -70l-98 29
q26 73 81.5 106.5t118.5 33.5q71 0 123.5 -42t52.5 -105v-280zM302 649q0 19 -13.5 32t-31.5 13q-19 0 -32 -13t-13 -32t13 -32t32 -13q18 0 31.5 13t13.5 32zM331 130v76q-14 -3 -29 -3h-81q-32 0 -53 -18.5t-21 -40.5q0 -21 21 -38t53 -17q65 0 110 41z" />
    <glyph glyph-name="ae" unicode="&#xe6;" horiz-adv-x="807" 
d="M762 202h-320q3 -45 20 -70q30 -43 105 -43q62 0 106 44l85 -58q-77 -84 -190 -84q-104 -2 -168 58q-77 -59 -173 -59q-74 0 -128 44.5t-54 109.5t54 111t128 46h80q19 0 32 10l-2 40q-1 17 -21 31t-52 14q-72 0 -102 -61l-101 29q19 47 54.5 77.5t72 42t76.5 11.5
q87 0 139 -54q60 54 155 54q112 0 173 -87q17 -25 24.5 -63.5t7 -73t-0.5 -69.5zM656 301q-5 41 -13 53q-29 42 -85 42q-66 0 -96 -42q-12 -18 -17 -53h211zM347 136q-10 37 -11 69q-14 -3 -29 -3h-80q-33 0 -55 -18t-22 -40q0 -21 21.5 -38t55.5 -17q67 0 120 47z" />
    <glyph glyph-name="ccedilla" unicode="&#xe7;" 
d="M459 87q-44 -46 -78.5 -67t-73.5 -26l20 -62l-66 -128h-109l95 132l-23 60q-84 16 -131.5 83.5t-47.5 166.5q0 113 60.5 184t165.5 71q54 0 95 -20t93 -76l-75 -66q-39 41 -61 53.5t-52 12.5q-62 0 -95 -45q-26 -35 -26 -114q0 -78 26 -113q32 -45 95 -45q30 0 52 12
t61 53z" />
    <glyph glyph-name="egrave" unicode="&#xe8;" 
d="M332 545h-82l-116 146h113zM459 205h-310q3 -46 20 -71q31 -45 101 -45q61 0 104 47l82 -61q-76 -84 -185 -84q-60 -1 -110 22.5t-78 66.5q-38 56 -38 163q0 106 38 163q59 87 179 87q109 0 167 -88q17 -25 24 -62t6.5 -70t-0.5 -68zM355 304q-3 34 -12 48q-29 42 -82 42
q-91 0 -109 -90h203z" />
    <glyph glyph-name="eacute" unicode="&#xe9;" 
d="M372 691l-116 -146h-82l84 146h114zM459 205h-310q3 -46 20 -71q31 -45 101 -45q61 0 104 47l82 -61q-76 -84 -185 -84q-60 -1 -110 22.5t-78 66.5q-38 56 -38 163q0 106 38 163q59 87 179 87q109 0 167 -88q17 -25 24 -62t6.5 -70t-0.5 -68zM355 304q-3 34 -12 48
q-29 42 -82 42q-91 0 -109 -90h203z" />
    <glyph glyph-name="ecircumflex" unicode="&#xea;" 
d="M437 533h-117l-59 87l-58 -87h-117l120 146h110zM459 205h-310q3 -46 20 -71q31 -45 101 -45q61 0 104 47l82 -61q-76 -84 -185 -84q-60 -1 -110 22.5t-78 66.5q-38 56 -38 163q0 106 38 163q59 87 179 87q109 0 167 -88q17 -25 24 -62t6.5 -70t-0.5 -68zM355 304
q-3 34 -12 48q-29 42 -82 42q-91 0 -109 -90h203z" />
    <glyph glyph-name="edieresis" unicode="&#xeb;" 
d="M420 599q0 -27 -19 -46t-45 -19q-27 0 -46 19t-19 46t19 46t46 19q26 0 45 -19t19 -46zM213 599q0 -27 -19 -46t-46 -19q-26 0 -45.5 19t-19.5 46t19.5 46t45.5 19q27 0 46 -19t19 -46zM459 205h-310q3 -46 20 -71q31 -45 101 -45q61 0 104 47l82 -61q-76 -84 -185 -84
q-60 -1 -110 22.5t-78 66.5q-38 56 -38 163q0 106 38 163q59 87 179 87q109 0 167 -88q17 -25 24 -62t6.5 -70t-0.5 -68zM355 304q-3 34 -12 48q-29 42 -82 42q-91 0 -109 -90h203z" />
    <glyph glyph-name="igrave" unicode="&#xec;" horiz-adv-x="264" 
d="M201 545h-82l-116 146h113zM184 0h-103v494h103v-494z" />
    <glyph glyph-name="iacute" unicode="&#xed;" horiz-adv-x="255" 
d="M253 691l-116 -146h-82l85 146h113zM179 0h-103v494h103v-494z" />
    <glyph glyph-name="icircumflex" unicode="&#xee;" horiz-adv-x="272" 
d="M308 533h-116l-59 87l-59 -87h-116l120 146h110zM186 0h-103v494h103v-494z" />
    <glyph glyph-name="idieresis" unicode="&#xef;" horiz-adv-x="274" 
d="M298 609q0 -27 -19 -46t-46 -19t-46 19t-19 46t19 46t46 19t46 -19t19 -46zM110 609q0 -27 -19 -46t-45 -19q-27 0 -46 19t-19 46t19 46t46 19q26 0 45 -19t19 -46zM189 0h-104v494h104v-494z" />
    <glyph glyph-name="eth" unicode="&#xf0;" horiz-adv-x="583" 
d="M506 248q0 -106 -35 -165q-27 -44 -74 -68t-105 -24q-57 -1 -105 23.5t-75 68.5q-35 58 -35 165q0 104 35 164q27 44 74.5 68t105.5 24q20 0 30 -1l-13 29h-122v99h78l-53 119h109l53 -119h91v-99h-47l36 -76l22 -40q30 -56 30 -168zM403 247q0 79 -20 112q-26 43 -92 43
q-65 0 -91 -43q-20 -33 -20 -112q0 -78 20 -112q28 -43 91 -43q65 1 92 43q20 34 20 112z" />
    <glyph glyph-name="ntilde" unicode="&#xf1;" horiz-adv-x="533" 
d="M458 600q-31 -37 -59.5 -56.5t-65.5 -19.5q-36 0 -74.5 25.5t-55.5 25.5q-12 0 -23.5 -8.5t-15.5 -14t-15 -21.5l-67 54q57 77 122 77q34 0 74 -25.5t57 -25.5q26 0 57 46zM468 0h-102v280q0 62 -18 87q-23 34 -85 34q-58 0 -84 -41q-7 -12 -12 -30v-330h-102v486h102
v-15q46 22 96 22q121 0 171 -72q34 -49 34 -141v-280z" />
    <glyph glyph-name="ograve" unicode="&#xf2;" horiz-adv-x="519" 
d="M332 545h-82l-116 146h113zM474 243q0 -107 -35 -164q-56 -88 -179 -88q-57 -1 -105 22.5t-75 65.5q-35 57 -35 163q0 107 35 163q27 43 74.5 66t105.5 23q122 0 179 -89q35 -56 35 -162zM371 242q0 81 -20 112q-25 41 -92 41q-66 0 -91 -41q-20 -32 -20 -112
q0 -79 20 -111q27 -42 91 -42q67 0 92 42q20 32 20 111z" />
    <glyph glyph-name="oacute" unicode="&#xf3;" horiz-adv-x="519" 
d="M378 691l-116 -146h-82l84 146h114zM474 243q0 -107 -35 -164q-56 -88 -179 -88q-57 -1 -105 22.5t-75 65.5q-35 57 -35 163q0 107 35 163q27 43 74.5 66t105.5 23q122 0 179 -89q35 -56 35 -162zM371 242q0 81 -20 112q-25 41 -92 41q-66 0 -91 -41q-20 -32 -20 -112
q0 -79 20 -111q27 -42 91 -42q67 0 92 42q20 32 20 111z" />
    <glyph glyph-name="ocircumflex" unicode="&#xf4;" horiz-adv-x="519" 
d="M437 533h-117l-59 87l-58 -87h-117l120 146h110zM474 243q0 -107 -35 -164q-56 -88 -179 -88q-57 -1 -105 22.5t-75 65.5q-35 57 -35 163q0 107 35 163q27 43 74.5 66t105.5 23q122 0 179 -89q35 -56 35 -162zM371 242q0 81 -20 112q-25 41 -92 41q-66 0 -91 -41
q-20 -32 -20 -112q0 -79 20 -111q27 -42 91 -42q67 0 92 42q20 32 20 111z" />
    <glyph glyph-name="otilde" unicode="&#xf5;" horiz-adv-x="519" 
d="M458 600q-31 -37 -59.5 -56.5t-65.5 -19.5q-36 0 -74.5 25.5t-55.5 25.5q-12 0 -23.5 -8.5t-15.5 -14t-15 -21.5l-67 54q57 77 122 77q34 0 74 -25.5t57 -25.5q26 0 57 46zM474 243q0 -107 -35 -164q-56 -88 -179 -88q-57 -1 -105 22.5t-75 65.5q-35 57 -35 163
q0 107 35 163q27 43 74.5 66t105.5 23q122 0 179 -89q35 -56 35 -162zM371 242q0 81 -20 112q-25 41 -92 41q-66 0 -91 -41q-20 -32 -20 -112q0 -79 20 -111q27 -42 91 -42q67 0 92 42q20 32 20 111z" />
    <glyph glyph-name="odieresis" unicode="&#xf6;" horiz-adv-x="519" 
d="M423 589q0 -27 -19 -46t-45 -19q-27 0 -46 19t-19 46t19 46t46 19q26 0 45 -19t19 -46zM216 589q0 -27 -19 -46t-46 -19q-26 0 -45.5 19t-19.5 46t19.5 46t45.5 19q27 0 46 -19t19 -46zM474 243q0 -107 -35 -164q-56 -88 -179 -88q-57 -1 -105 22.5t-75 65.5
q-35 57 -35 163q0 107 35 163q27 43 74.5 66t105.5 23q122 0 179 -89q35 -56 35 -162zM371 242q0 81 -20 112q-25 41 -92 41q-66 0 -91 -41q-20 -32 -20 -112q0 -79 20 -111q27 -42 91 -42q67 0 92 42q20 32 20 111z" />
    <glyph glyph-name="divide" unicode="&#xf7;" horiz-adv-x="539" 
d="M328 429q0 -25 -17.5 -43t-42.5 -18t-43 18t-18 43t17.5 43t43.5 18q25 0 42.5 -18t17.5 -43zM484 231h-429v85h429v-85zM328 119q0 -25 -17.5 -43t-42.5 -18q-26 0 -43.5 18t-17.5 43t18 42.5t43 17.5t42.5 -17.5t17.5 -42.5z" />
    <glyph glyph-name="oslash" unicode="&#xf8;" horiz-adv-x="519" 
d="M486 487l-53 -73l6 -9q35 -56 35 -162q0 -107 -35 -164q-56 -88 -179 -88q-62 -1 -114 27l-13 -18h-102l53 73q-2 4 -4 6q-35 57 -35 163q0 107 35 163q27 43 74.5 66t105.5 23q61 0 110 -26l14 19h102zM311 386q-21 9 -52 9q-66 0 -91 -41q-20 -32 -20 -112q0 -45 6 -73
zM371 242q0 50 -7 77l-159 -219q24 -11 54 -11q67 0 92 42q20 32 20 111z" />
    <glyph glyph-name="ugrave" unicode="&#xf9;" horiz-adv-x="528" 
d="M327 545h-82l-116 146h113zM463 0h-102v16q-51 -24 -96 -24q-103 0 -154 54.5t-51 157.5v290h102v-290q0 -60 21.5 -85.5t81.5 -25.5q33 0 64.5 19.5t31.5 51.5v330h102v-494z" />
    <glyph glyph-name="uacute" unicode="&#xfa;" horiz-adv-x="528" 
d="M405 691l-116 -146h-82l84 146h114zM463 0h-102v16q-51 -24 -96 -24q-103 0 -154 54.5t-51 157.5v290h102v-290q0 -60 21.5 -85.5t81.5 -25.5q33 0 64.5 19.5t31.5 51.5v330h102v-494z" />
    <glyph glyph-name="ucircumflex" unicode="&#xfb;" horiz-adv-x="528" 
d="M436 533h-117l-59 87l-58 -87h-117l120 146h110zM463 0h-102v16q-51 -24 -96 -24q-103 0 -154 54.5t-51 157.5v290h102v-290q0 -60 21.5 -85.5t81.5 -25.5q33 0 64.5 19.5t31.5 51.5v330h102v-494z" />
    <glyph glyph-name="udieresis" unicode="&#xfc;" horiz-adv-x="528" 
d="M429 589q0 -27 -19 -46t-45 -19q-27 0 -46 19t-19 46t19 46t46 19q26 0 45 -19t19 -46zM222 589q0 -27 -19 -46t-46 -19q-26 0 -45.5 19t-19.5 46t19.5 46t45.5 19q27 0 46 -19t19 -46zM463 0h-102v16q-51 -24 -96 -24q-103 0 -154 54.5t-51 157.5v290h102v-290
q0 -60 21.5 -85.5t81.5 -25.5q33 0 64.5 19.5t31.5 51.5v330h102v-494z" />
    <glyph glyph-name="yacute" unicode="&#xfd;" horiz-adv-x="502" 
d="M381 691l-116 -146h-82l84 146h114zM483 494l-224 -606q-15 -44 -45 -70q-43 -38 -103 -38h-47l1 102h20.5h17.5h11q20 1 30 10.5t19 31.5l29 76l-173 494h110l118 -347l126 347h110z" />
    <glyph glyph-name="thorn" unicode="&#xfe;" horiz-adv-x="572" 
d="M510 246q2 -103 -32 -165q-26 -45 -71.5 -70t-101.5 -25q-50 0 -96 22v-228h-102v918h102v-214q45 23 96 22q56 0 101.5 -24.5t71.5 -69.5q32 -58 32 -166zM408 246q0 81 -20 115q-22 41 -83 43q-60 0 -83 -43q-10 -17 -13 -46v-138q3 -28 13 -45q23 -43 83 -43t83 43
q20 34 20 114z" />
    <glyph glyph-name="ydieresis" unicode="&#xff;" 
d="M420 589q0 -27 -19 -46t-46 -19t-46 19t-19 46t19 46t46 19t46 -19t19 -46zM213 589q0 -27 -19 -46t-46 -19t-46 19t-19 46t19 46t46 19t46 -19t19 -46zM484 494l-224 -606q-19 -47 -45 -70q-43 -38 -103 -38h-47l1 102h20.5h17.5h11q20 1 30 10.5t19 31.5l29 76
l-173 494h110l118 -347l126 347h110z" />
    <glyph glyph-name="dotlessi" unicode="&#x131;" horiz-adv-x="295" 
d="M198 0h-101v487h101v-487z" />
    <glyph glyph-name="Lslash" unicode="&#x141;" horiz-adv-x="560" 
d="M513 0h-425v233l-36 -16v109l36 15v357h105v-311l158 69v-109l-158 -69v-175h320v-103z" />
    <glyph glyph-name="lslash" unicode="&#x142;" horiz-adv-x="313" 
d="M261 327l-66 -32v-164q0 -20 6 -25t35 -5v-101q-73 0 -105.5 33t-32.5 98v117l-46 -23v110l46 22v341h97v-293l66 31v-109z" />
    <glyph glyph-name="OE" unicode="&#x152;" horiz-adv-x="1026" 
d="M981 -1h-456v57q-77 -65 -186 -65q-154 0 -236 121q-58 85 -58 237t58 237q82 121 236 121q109 0 186 -65v57h456v-104h-348v-181h301v-103h-301v-208h348v-104zM525 349q0 122 -41 181q-49 73 -145 73t-146 -73q-40 -60 -40 -181q0 -120 40 -181q51 -73 146 -73t145 73
q41 61 41 181z" />
    <glyph glyph-name="oe" unicode="&#x153;" horiz-adv-x="856" 
d="M811 204h-322q5 -49 21 -72q30 -43 105 -43q65 0 109 47l84 -60q-78 -85 -192 -85q-116 -2 -180 69q-60 -69 -170 -69q-58 -1 -107.5 22.5t-77.5 65.5q-36 57 -36 163q0 107 36 163q28 43 77 66t108 23q110 0 170 -69q60 69 170 69q113 0 173 -87q9 -13 15.5 -31t10 -31
t5 -38t1.5 -33.5v-37.5v-32zM704 303q-5 40 -13 50q-29 42 -85 42q-66 0 -96 -42q-10 -14 -18 -50h212zM382 242q0 79 -21 112q-27 41 -95 41t-95 -41q-21 -33 -21 -112q0 -80 21 -111q27 -42 95 -42q68 1 95 42q21 31 21 111z" />
    <glyph glyph-name="Scaron" unicode="&#x160;" horiz-adv-x="630" 
d="M480 921l-120 -146h-110l-121 146h117l59 -87l58 87h117zM585 205q0 -56 -32 -108q-35 -55 -95.5 -81.5t-128.5 -26.5q-243 0 -284 229l105 18q19 -94 78 -124q38 -19 101 -19q96 0 134 58q16 26 16 54q0 54 -60 84q-37 15 -125 36q-119 28 -168 69q-52 45 -52 122
q0 82 67 137q59 50 168 50q170 0 239 -121q2 -4 24 -47l-96 -44q-1 2 -6.5 12.5t-7 14t-6.5 12t-8 12.5t-8 10.5t-10.5 11.5t-11.5 9q-37 26 -109 26q-70 0 -100 -25q-29 -24 -29 -58q0 -35 25 -52q29 -19 114 -38q106 -26 146 -44q120 -58 120 -177z" />
    <glyph glyph-name="scaron" unicode="&#x161;" horiz-adv-x="479" 
d="M418 679l-121 -146h-110l-120 146h117l58 -87l59 87h117zM439 146q0 -42 -24 -79q-52 -76 -166 -76q-161 0 -204 138l101 19q14 -36 39 -48q23 -11 64 -11q60 0 79 31q9 14 9 26q0 31 -32 46q-18 8 -83 22q-89 20 -122 48q-41 36 -41 93q0 63 52 104q45 35 124 35
q125 0 176 -85l6 -10l-92 -45q-12 21 -26 28q-22 13 -64 13q-43 0 -60 -13q-14 -11 -14 -27q0 -12 8 -20q13 -10 76 -24q79 -18 103 -30q42 -19 66.5 -54t24.5 -81z" />
    <glyph glyph-name="Ydieresis" unicode="&#x178;" horiz-adv-x="621" 
d="M481 840q0 -27 -19 -46t-46 -19t-46 19t-19 46t19 46t46 19t46 -19t19 -46zM274 840q0 -27 -19 -46t-46 -19t-46 19t-19 46t19 46t46 19t46 -19t19 -46zM596 698l-232 -465v-233h-107v235l-232 463h118l168 -334l167 334h118z" />
    <glyph glyph-name="Zcaron" unicode="&#x17d;" horiz-adv-x="601" 
d="M470 921l-120 -146h-110l-120 146h116l59 -87l59 87h116zM546 0h-501v80l359 515h-325v103h467v-83l-357 -511h357v-104z" />
    <glyph glyph-name="zcaron" unicode="&#x17e;" horiz-adv-x="476" 
d="M415 679l-120 -146h-110l-121 146h117l59 -87l58 87h117zM431 0h-391v84l247 312h-225v98h369v-81l-249 -314h249v-99z" />
    <glyph glyph-name="florin" unicode="&#x192;" horiz-adv-x="396" 
d="M371 698l-1 -103q-29 0 -50 -3.5t-35.5 -14.5t-23.5 -20.5t-16 -30.5t-10 -35t-8 -44h68v-103h-85l-95 -549l-100 18l92 531h-53v103h70q0 3 3.5 20.5t4 22t3.5 20t5 21.5t5.5 19t7.5 20.5t8.5 18t10.5 19.5t13 17q57 73 186 73z" />
    <glyph glyph-name="circumflex" unicode="&#x2c6;" horiz-adv-x="531" 
d="M441 533h-117l-59 87l-58 -87h-117l120 146h110z" />
    <glyph glyph-name="caron" unicode="&#x2c7;" horiz-adv-x="531" 
d="M441 679l-121 -146h-110l-120 146h117l58 -87l59 87h117z" />
    <glyph glyph-name="breve" unicode="&#x2d8;" horiz-adv-x="551" 
d="M468 707q-28 -68 -79 -104.5t-114 -36.5t-114 36.5t-78 104.5h83q39 -67 109 -67q69 0 110 67h83z" />
    <glyph glyph-name="dotaccent" unicode="&#x2d9;" horiz-adv-x="561" 
d="M341 585q0 -25 -18 -42.5t-43 -17.5t-43 17.5t-18 42.5t18 43t43 18q26 0 43.5 -18t17.5 -43z" />
    <glyph glyph-name="ring" unicode="&#x2da;" horiz-adv-x="547" 
d="M395 649q0 -50 -35.5 -86t-85.5 -36t-86 36t-36 86t35.5 85.5t86.5 35.5q50 0 85.5 -35.5t35.5 -85.5zM319 649q0 19 -13.5 32t-31.5 13q-19 0 -32 -13t-13 -32t13 -32t32 -13q18 0 31.5 13t13.5 32z" />
    <glyph glyph-name="ogonek" unicode="&#x2db;" horiz-adv-x="573" 
d="M411 -196h-113l-119 196h93z" />
    <glyph glyph-name="tilde" unicode="&#x2dc;" horiz-adv-x="521" 
d="M458 596q-31 -37 -59.5 -56.5t-65.5 -19.5q-36 0 -74.5 25.5t-55.5 25.5q-12 0 -23.5 -8.5t-15.5 -14t-15 -21.5l-67 54q57 77 122 77q34 0 74 -25.5t57 -25.5q26 0 57 46z" />
    <glyph glyph-name="hungarumlaut" unicode="&#x2dd;" horiz-adv-x="499" 
d="M455 716l-119 -146h-59l68 146h110zM324 716l-120 -146h-59l68 146h111z" />
    <glyph glyph-name="pi" unicode="&#x3c0;" horiz-adv-x="565" 
d="M520 0h-45q-66 0 -98 47q-20 30 -20 78v259h-192v-384h-100v478h392v-353q0 -19 3 -25t15 -6h45v-94z" />
    <glyph glyph-name="endash" unicode="&#x2013;" horiz-adv-x="539" 
d="M484 231h-429v85h429v-85z" />
    <glyph glyph-name="emdash" unicode="&#x2014;" horiz-adv-x="837" 
d="M782 231h-727v85h727v-85z" />
    <glyph glyph-name="quoteleft" unicode="&#x2018;" horiz-adv-x="267" 
d="M197 752l-7 -183q-1 -25 -18 -41.5t-42 -16.5t-44 17t-16 41l7 52l85 131h35z" />
    <glyph glyph-name="quoteright" unicode="&#x2019;" horiz-adv-x="267" 
d="M197 694l-7 -52l-85 -131h-35l7 183q1 25 18.5 41.5t41.5 16.5q25 0 44 -17t16 -41z" />
    <glyph glyph-name="quotesinglbase" unicode="&#x201a;" horiz-adv-x="267" 
d="M197 52l-7 -52l-85 -131h-35l7 183q1 25 18.5 41.5t41.5 16.5q25 0 44 -17t16 -41z" />
    <glyph glyph-name="quotedblleft" unicode="&#x201c;" horiz-adv-x="440" 
d="M370 752l-7 -183q-1 -25 -18.5 -41.5t-41.5 -16.5q-25 0 -44 17t-16 41l7 52l85 131h35zM197 752l-7 -183q-1 -25 -18 -41.5t-42 -16.5t-44 17t-16 41l7 52l85 131h35z" />
    <glyph glyph-name="quotedblright" unicode="&#x201d;" horiz-adv-x="440" 
d="M370 694l-7 -52l-85 -131h-35l7 183q1 25 18 41.5t42 16.5t44 -17t16 -41zM197 694l-7 -52l-85 -131h-35l7 183q1 25 18.5 41.5t41.5 16.5q25 0 44 -17t16 -41z" />
    <glyph glyph-name="quotedblbase" unicode="&#x201e;" horiz-adv-x="440" 
d="M370 52l-7 -52l-85 -131h-35l7 183q1 25 18 41.5t42 16.5t44 -17t16 -41zM197 52l-7 -52l-85 -131h-35l7 183q1 25 18.5 41.5t41.5 16.5q25 0 44 -17t16 -41z" />
    <glyph glyph-name="dagger" unicode="&#x2020;" horiz-adv-x="499" 
d="M444 399h-150v-399h-89v399h-150v94h150v205h89v-205h150v-94z" />
    <glyph glyph-name="daggerdbl" unicode="&#x2021;" horiz-adv-x="499" 
d="M444 9h-150v-209h-89v209h-150v94h150v292h-150v94h150v209h89v-209h150v-94h-150v-292h150v-94z" />
    <glyph glyph-name="bullet" unicode="&#x2022;" horiz-adv-x="464" 
d="M399 338q0 -69 -48.5 -118t-118.5 -49q-69 0 -118 49t-49 118q0 70 49 118.5t118 48.5q70 0 118.5 -48.5t48.5 -118.5z" />
    <glyph glyph-name="ellipsis" unicode="&#x2026;" horiz-adv-x="739" 
d="M664 60q0 -28 -20 -48t-48 -20t-48 20t-20 48t20 48t48 20t48 -20t20 -48zM438 60q0 -28 -20 -48t-48 -20q-29 0 -49 20t-20 48t20 48t49 20q28 0 48 -20t20 -48zM212 60q0 -28 -20 -48t-49 -20q-28 0 -48 20t-20 48t20 48t48 20q29 0 49 -20t20 -48z" />
    <glyph glyph-name="perthousand" unicode="&#x2030;" horiz-adv-x="1027" 
d="M982 186q0 -79 -30 -127q-42 -69 -126 -69q-70 0 -113 49q-43 -49 -112 -49q-83 0 -127 69q-29 46 -29 127q0 82 29 128q44 69 127 69q70 0 112 -50q44 50 113 50q83 0 127 -69q29 -48 29 -128zM607 698l-320 -698h-96l320 698h96zM353 511q0 -82 -29 -127
q-42 -70 -125 -70t-125 70q-29 45 -29 127t29 127q44 70 125 70q83 0 125 -70q29 -45 29 -127zM894 186q0 58 -17 84q-18 28 -51 28q-34 0 -52 -28q-17 -26 -17 -84t17 -83q18 -29 52 -29q33 0 51 29q17 25 17 83zM669 186q0 58 -16 84q-18 28 -52 28t-52 -28
q-17 -28 -17 -84q0 -55 17 -83q18 -29 52 -29t52 29q16 26 16 83zM267 511q0 55 -17 84q-18 28 -51 28t-51 -28q-16 -28 -16 -84t16 -84q18 -28 51 -28t51 28q17 29 17 84z" />
    <glyph glyph-name="guilsinglleft" unicode="&#x2039;" horiz-adv-x="324" 
d="M269 389l-132 -131l132 -131v-122l-224 222v62l223 222z" />
    <glyph glyph-name="guilsinglright" unicode="&#x203a;" horiz-adv-x="324" 
d="M279 227l-224 -222v122l132 131l-132 131v122l224 -222v-62z" />
    <glyph glyph-name="fraction" unicode="&#x2044;" horiz-adv-x="216" 
d="M316 698l-322 -698h-94l322 698h94z" />
    <glyph glyph-name="Euro" unicode="&#x20ac;" horiz-adv-x="706" 
d="M619 69q-89 -78 -214 -78q-109 0 -187 62.5t-102 168.5h-83l23 94h48l-1 35h-70l23 94h53q17 120 96.5 191t199.5 71q119 0 209 -77l-60 -87q-39 36 -70 50t-79 14q-76 0 -124.5 -43t-63.5 -119h259l-23 -94h-243l1 -35h265l-23 -94h-228q20 -62 67.5 -96.5t112.5 -34.5
q48 0 79.5 14.5t69.5 49.5z" />
    <glyph glyph-name="trademark" unicode="&#x2122;" horiz-adv-x="654" 
d="M459 485h-48v101l-44 -101h-33l-44 100v-100h-47v214h44l64 -146l63 146h45v-214zM228 654h-61v-169h-48v169h-61v44h170v-44z" />
    <glyph glyph-name="Omega" unicode="&#x2126;" horiz-adv-x="636" 
d="M581 0h-226v98q61 21 88 69q34 61 34 181q0 122 -34 181q-39 70 -111 70h-28q-71 0 -111 -70q-34 -59 -34 -181q0 -120 34 -181q27 -48 88 -69v-98h-226l17 95h49q-63 85 -63 253q0 147 46 228q32 58 84 89.5t116 31.5h28q64 0 116 -31.5t84 -89.5q46 -81 46 -228
q0 -168 -62 -253h48z" />
    <glyph glyph-name="partialdiff" unicode="&#x2202;" horiz-adv-x="517" 
d="M462 216q0 -89 -60 -154t-148 -65t-148.5 65t-60.5 154t60.5 154.5t148.5 65.5q50 0 94 -24q-34 185 -112 185q-43 0 -97 -66l-79 62q86 108 177 108q42 0 77 -20t58 -51.5t40 -76.5t26.5 -88t15 -93t7 -85.5t1.5 -70.5zM363 216q0 48 -31.5 85t-77.5 37q-47 0 -78 -37
t-31 -85t31 -84.5t78 -36.5q46 0 77.5 36.5t31.5 84.5z" />
    <glyph glyph-name="Delta" unicode="&#x2206;" horiz-adv-x="612" 
d="M597 0h-582l291 738zM461 91l-155 391l-154 -391h309z" />
    <glyph glyph-name="product" unicode="&#x220f;" horiz-adv-x="624" 
d="M549 -197h-100v851h-274v-851h-100v949h474v-949z" />
    <glyph glyph-name="summation" unicode="&#x2211;" horiz-adv-x="546" 
d="M491 -220h-436v77l249 382l-249 383v76h436v-95h-308l237 -364l-237 -364h308v-95z" />
    <glyph glyph-name="minus" unicode="&#x2212;" horiz-adv-x="538" 
d="M481 233h-424v81h424v-81z" />
    <glyph glyph-name="radical" unicode="&#x221a;" horiz-adv-x="649" 
d="M614 604h-100l-172 -604h-83l-204 492h100q10 -24 62 -149t75 -180l151 530h171v-89z" />
    <glyph glyph-name="infinity" unicode="&#x221e;" horiz-adv-x="791" 
d="M746 262q3 -60 -38 -100q-46 -44 -117 -44q-84 0 -195 83q-111 -83 -196 -83q-59 0 -105 36t-50 103q-4 63 42 103t113 41q82 0 196 -83q114 83 195 83q60 -1 105.5 -36.5t49.5 -102.5zM649 257q-1 23 -14 36t-23.5 15.5t-20.5 2.5q-47 0 -118 -52q73 -51 118 -51
q31 0 47 16q12 12 11 33zM319 259q-73 52 -118 52q-29 0 -48 -17q-12 -12 -11 -32q1 -23 14.5 -36t24 -15.5t20.5 -2.5q43 0 118 51z" />
    <glyph glyph-name="integral" unicode="&#x222b;" horiz-adv-x="347" 
d="M312 600h-72q-17 0 -17 -19q-1 -4 -1 -14v-631q0 -52 -19 -82q-33 -50 -96 -50h-72v99h72q15 0 17 18v15v631q0 50 20 81q30 50 96 50h72v-98z" />
    <glyph glyph-name="approxequal" unicode="&#x2248;" horiz-adv-x="556" 
d="M511 365q-38 -36 -66 -51.5t-69 -15.5q-36 0 -101 23t-99 23q-5 0 -9.5 -0.5t-9.5 -2t-8 -3t-8 -4.5t-7 -4.5t-7 -6t-6 -5.5t-7 -6.5t-7 -6.5l-62 60q70 66 137 66q35 0 100.5 -22t99.5 -22q8 0 15 1.5t11.5 3.5t11 6.5t9 7t10 9.5t10.5 9zM511 200q-38 -36 -66 -51.5
t-69 -15.5q-36 0 -101 23t-99 23q-14 0 -28 -6.5t-20 -12t-21 -19.5l-62 59q71 67 137 67q35 0 100.5 -22.5t99.5 -22.5q8 0 15 2t11 3t11.5 6.5t9 7t10.5 10t10 9.5z" />
    <glyph glyph-name="notequal" unicode="&#x2260;" horiz-adv-x="556" 
d="M501 114h-228l-40 -110l-78 29l29 81h-129v94h163l31 85h-194v94h228l40 109l79 -28l-30 -81h129v-94h-163l-31 -85h194v-94z" />
    <glyph glyph-name="lessequal" unicode="&#x2264;" horiz-adv-x="510" 
d="M455 118l-400 178v81l400 178v-104l-259 -115l259 -115v-103zM455 0h-400v95h400v-95z" />
    <glyph glyph-name="greaterequal" unicode="&#x2265;" horiz-adv-x="510" 
d="M455 296l-400 -178v103l259 115l-259 115v104l400 -178v-81zM455 0h-400v95h400v-95z" />
    <glyph glyph-name="lozenge" unicode="&#x25ca;" horiz-adv-x="557" 
d="M502 345l-223 -366l-224 366l224 365zM394 345l-115 188l-116 -188l116 -189z" />
    <glyph glyph-name="apple" unicode="&#xf8ff;" horiz-adv-x="500" 
 />
    <glyph glyph-name="fi" unicode="&#xfb01;" horiz-adv-x="499" 
d="M434 662q0 -26 -18 -43.5t-43 -17.5t-43 18t-18 43t18 43t43 18t43 -17.5t18 -43.5zM426 0h-100v403h-138v-403h-100v403h-43v90h43q2 101 46.5 151t144.5 54v-101q-53 -3 -71.5 -25.5t-19.5 -77.5l238 -1v-493z" />
    <glyph glyph-name="fl" unicode="&#xfb02;" horiz-adv-x="528" 
d="M473 0q-92 0 -121 51q-17 31 -17 80v466h-50q-56 0 -75.5 -23t-21.5 -80l93 -1v-90h-93v-403h-100v403h-43v90h43q2 84 30 129q48 76 167 76h150v-567q0 -21 5.5 -25.5t32.5 -4.5v-101z" />
    <glyph glyph-name="nbspace" horiz-adv-x="150" 
 />
    </font>
</defs>
</svg>
